<mxfile host="app.diagrams.net" modified="2024-01-10T08:32:33.349Z" agent="Mozilla/5.0 (Windows NT 10.0; Win64; x64) AppleWebKit/537.36 (KHTML, like Gecko) Chrome/120.0.0.0 Safari/537.36" etag="q03fXljhSkBhyBWYP6kY" version="22.1.18" type="github">
  <diagram name="Page-1" id="VCnu8fW1wujwQlEsuVHH">
    <mxGraphModel dx="1786" dy="2720" grid="1" gridSize="10" guides="1" tooltips="1" connect="1" arrows="1" fold="1" page="1" pageScale="1" pageWidth="850" pageHeight="1100" math="0" shadow="0">
      <root>
        <mxCell id="0" />
        <mxCell id="1" parent="0" />
        <mxCell id="EjAZbper3AnYCD3PskdR-1" value="" style="edgeStyle=elbowEdgeStyle;elbow=horizontal;endArrow=none;dashed=1" parent="1" edge="1">
          <mxGeometry x="1460" y="437.8935185185186" width="100" height="100" as="geometry">
            <mxPoint x="1354.5" y="610" as="sourcePoint" />
            <mxPoint x="1354.5" y="770" as="targetPoint" />
          </mxGeometry>
        </mxCell>
        <mxCell id="EjAZbper3AnYCD3PskdR-2" value="" style="fillColor=#CC4125;strokeColor=#660000" parent="1" vertex="1">
          <mxGeometry x="100" y="160" width="10" height="130" as="geometry" />
        </mxCell>
        <mxCell id="EjAZbper3AnYCD3PskdR-3" value="Browser" style="shadow=1;fillColor=#A2C4C9;strokeColor=none" parent="1" vertex="1">
          <mxGeometry x="50" y="60" width="105" height="50" as="geometry" />
        </mxCell>
        <mxCell id="EjAZbper3AnYCD3PskdR-4" value="SSPM" style="shadow=1;fillColor=#A2C4C9;strokeColor=none" parent="1" vertex="1">
          <mxGeometry x="330" y="60" width="105" height="50" as="geometry" />
        </mxCell>
        <mxCell id="EjAZbper3AnYCD3PskdR-5" value="Unauthenticated Access" style="edgeStyle=none;verticalLabelPosition=top;verticalAlign=bottom;entryX=-0.278;entryY=0.121;entryDx=0;entryDy=0;entryPerimeter=0;" parent="1" target="EjAZbper3AnYCD3PskdR-7" edge="1">
          <mxGeometry x="220" y="92" width="100" height="100" as="geometry">
            <mxPoint x="113" y="170" as="sourcePoint" />
            <mxPoint x="515" y="183" as="targetPoint" />
          </mxGeometry>
        </mxCell>
        <mxCell id="EjAZbper3AnYCD3PskdR-6" value="PPA" style="shadow=1;fillColor=#A2C4C9;strokeColor=none" parent="1" vertex="1">
          <mxGeometry x="462.2839506172839" y="59.99999999999997" width="105" height="50" as="geometry" />
        </mxCell>
        <mxCell id="EjAZbper3AnYCD3PskdR-7" value="" style="fillColor=#CC4125;strokeColor=#660000" parent="1" vertex="1">
          <mxGeometry x="509.78" y="160" width="10" height="90" as="geometry" />
        </mxCell>
        <mxCell id="EjAZbper3AnYCD3PskdR-8" value="" style="fillColor=#CC4125;strokeColor=#660000" parent="1" vertex="1">
          <mxGeometry x="670" y="237.39" width="10" height="182.61" as="geometry" />
        </mxCell>
        <mxCell id="EjAZbper3AnYCD3PskdR-9" value="Auth module" style="shadow=1;fillColor=#A2C4C9;strokeColor=none" parent="1" vertex="1">
          <mxGeometry x="622.5" y="60" width="105" height="50" as="geometry" />
        </mxCell>
        <mxCell id="EjAZbper3AnYCD3PskdR-10" value="" style="edgeStyle=none;endArrow=none;dashed=1" parent="1" source="EjAZbper3AnYCD3PskdR-9" target="EjAZbper3AnYCD3PskdR-8" edge="1">
          <mxGeometry x="614.4878472222224" y="174.99999999999997" width="100" height="100" as="geometry">
            <mxPoint x="674.6527777777778" y="110" as="sourcePoint" />
            <mxPoint x="674.6527777777778" y="260" as="targetPoint" />
          </mxGeometry>
        </mxCell>
        <mxCell id="EjAZbper3AnYCD3PskdR-11" value="Okta" style="shadow=1;fillColor=#A2C4C9;strokeColor=none" parent="1" vertex="1">
          <mxGeometry x="797.5" y="60" width="105" height="50" as="geometry" />
        </mxCell>
        <mxCell id="EjAZbper3AnYCD3PskdR-12" value="" style="edgeStyle=none;endArrow=none;dashed=1" parent="1" source="EjAZbper3AnYCD3PskdR-11" target="EjAZbper3AnYCD3PskdR-13" edge="1">
          <mxGeometry x="727.3350694444446" y="165" width="100" height="100" as="geometry">
            <mxPoint x="802.2588734567901" y="110" as="sourcePoint" />
            <mxPoint x="802.5761959876544" y="165" as="targetPoint" />
          </mxGeometry>
        </mxCell>
        <mxCell id="EjAZbper3AnYCD3PskdR-13" value="" style="fillColor=#CC4125;strokeColor=#660000" parent="1" vertex="1">
          <mxGeometry x="845" y="407.69" width="10" height="92.31" as="geometry" />
        </mxCell>
        <mxCell id="EjAZbper3AnYCD3PskdR-14" value="Wynsure" style="shadow=1;fillColor=#A2C4C9;strokeColor=none" parent="1" vertex="1">
          <mxGeometry x="952.5" y="60" width="105" height="50" as="geometry" />
        </mxCell>
        <mxCell id="EjAZbper3AnYCD3PskdR-15" value="" style="edgeStyle=elbowEdgeStyle;elbow=horizontal;endArrow=none;dashed=1" parent="1" source="EjAZbper3AnYCD3PskdR-3" target="EjAZbper3AnYCD3PskdR-2" edge="1">
          <mxGeometry x="230.00000000000003" y="310" width="100" height="100" as="geometry">
            <mxPoint x="230.00000000000003" y="410" as="sourcePoint" />
            <mxPoint x="330" y="310" as="targetPoint" />
          </mxGeometry>
        </mxCell>
        <mxCell id="EjAZbper3AnYCD3PskdR-16" value="" style="edgeStyle=elbowEdgeStyle;elbow=vertical;verticalLabelPosition=top;verticalAlign=bottom;entryX=-0.276;entryY=0.396;entryDx=0;entryDy=0;entryPerimeter=0;" parent="1" edge="1">
          <mxGeometry width="100" height="100" as="geometry">
            <mxPoint x="680" y="430.0004012345679" as="sourcePoint" />
            <mxPoint x="844.7399999999998" y="427.96155999999996" as="targetPoint" />
            <Array as="points" />
            <mxPoint as="offset" />
          </mxGeometry>
        </mxCell>
        <mxCell id="EjAZbper3AnYCD3PskdR-17" style="edgeStyle=orthogonalEdgeStyle;rounded=0;orthogonalLoop=1;jettySize=auto;html=1;" parent="1" source="EjAZbper3AnYCD3PskdR-18" target="EjAZbper3AnYCD3PskdR-8" edge="1">
          <mxGeometry relative="1" as="geometry">
            <Array as="points">
              <mxPoint x="700" y="194" />
              <mxPoint x="700" y="370" />
            </Array>
          </mxGeometry>
        </mxCell>
        <mxCell id="EjAZbper3AnYCD3PskdR-18" value="&#xa;&#xa;&#xa;&#xa;Auth module will &#xa;create Session&#xa;and store in DB&#xa;&#xa;USAS16V0021    &#xa;USAS16V0022&#xa;(Both server uses &#xa;same DB )&#xa;&#xa;&#xa;&#xa;" style="shape=note;align=left" parent="1" vertex="1">
          <mxGeometry x="720" y="149.39" width="120.03" height="140.61" as="geometry" />
        </mxCell>
        <mxCell id="EjAZbper3AnYCD3PskdR-19" value="" style="fillColor=#CC4125;strokeColor=#660000" parent="1" vertex="1">
          <mxGeometry x="100" y="280" width="10" height="560" as="geometry" />
        </mxCell>
        <mxCell id="EjAZbper3AnYCD3PskdR-20" value="" style="edgeStyle=none;endArrow=none;dashed=1;" parent="1" source="EjAZbper3AnYCD3PskdR-24" target="EjAZbper3AnYCD3PskdR-38" edge="1">
          <mxGeometry x="956.5711805555559" y="205" width="100" height="100" as="geometry">
            <mxPoint x="1031.7361111111113" y="150" as="sourcePoint" />
            <mxPoint x="1005" y="468.33333333333326" as="targetPoint" />
          </mxGeometry>
        </mxCell>
        <mxCell id="EjAZbper3AnYCD3PskdR-21" value="Non-SSO Positive Flow" style="rounded=1;fontStyle=1;fillColor=#FFD966;strokeColor=none" parent="1" vertex="1">
          <mxGeometry x="50" y="20" width="150" height="30" as="geometry" />
        </mxCell>
        <mxCell id="EjAZbper3AnYCD3PskdR-22" value="" style="endArrow=open;endFill=1;endSize=12;html=1;rounded=0;exitX=1.322;exitY=0.797;exitDx=0;exitDy=0;exitPerimeter=0;" parent="1" edge="1">
          <mxGeometry width="160" relative="1" as="geometry">
            <mxPoint x="110.00000000000026" y="260" as="sourcePoint" />
            <mxPoint x="671.78" y="260.39" as="targetPoint" />
          </mxGeometry>
        </mxCell>
        <mxCell id="EjAZbper3AnYCD3PskdR-23" value="" style="edgeStyle=none;endArrow=none;dashed=1" parent="1" source="EjAZbper3AnYCD3PskdR-14" target="EjAZbper3AnYCD3PskdR-24" edge="1">
          <mxGeometry x="956.5711805555559" y="205" width="100" height="100" as="geometry">
            <mxPoint x="1005" y="110" as="sourcePoint" />
            <mxPoint x="1005" y="468" as="targetPoint" />
          </mxGeometry>
        </mxCell>
        <mxCell id="EjAZbper3AnYCD3PskdR-24" value="" style="fillColor=#CC4125;strokeColor=#660000" parent="1" vertex="1">
          <mxGeometry x="1000" y="239.39" width="10" height="120.61" as="geometry" />
        </mxCell>
        <mxCell id="EjAZbper3AnYCD3PskdR-25" value="Verify Employee" style="html=1;verticalAlign=bottom;endArrow=block;curved=0;rounded=0;" parent="1" edge="1">
          <mxGeometry x="0.1875" y="10" width="80" relative="1" as="geometry">
            <mxPoint x="680" y="322.34" as="sourcePoint" />
            <mxPoint x="1000" y="322.34" as="targetPoint" />
            <mxPoint x="-1" as="offset" />
          </mxGeometry>
        </mxCell>
        <mxCell id="EjAZbper3AnYCD3PskdR-26" value="Employee Available" style="html=1;verticalAlign=bottom;endArrow=open;dashed=1;endSize=8;curved=0;rounded=0;exitX=0;exitY=1;exitDx=0;exitDy=0;" parent="1" edge="1">
          <mxGeometry relative="1" as="geometry">
            <mxPoint x="1000" y="344.0000000000001" as="sourcePoint" />
            <mxPoint x="680" y="344" as="targetPoint" />
            <mxPoint as="offset" />
          </mxGeometry>
        </mxCell>
        <mxCell id="EjAZbper3AnYCD3PskdR-27" value="Redirection to Auth Module" style="html=1;verticalAlign=bottom;endArrow=open;dashed=1;endSize=8;curved=0;rounded=0;exitX=0;exitY=0.5;exitDx=0;exitDy=0;entryX=0.938;entryY=0.338;entryDx=0;entryDy=0;entryPerimeter=0;" parent="1" source="EjAZbper3AnYCD3PskdR-7" target="EjAZbper3AnYCD3PskdR-2" edge="1">
          <mxGeometry x="-0.001" relative="1" as="geometry">
            <mxPoint x="290" y="230" as="sourcePoint" />
            <mxPoint x="105" y="200" as="targetPoint" />
            <mxPoint as="offset" />
          </mxGeometry>
        </mxCell>
        <mxCell id="EjAZbper3AnYCD3PskdR-28" value="Redirect to Portal with PPA URL in response" style="html=1;verticalAlign=bottom;endArrow=open;dashed=1;endSize=8;curved=0;rounded=0;exitX=-0.3;exitY=0.94;exitDx=0;exitDy=0;exitPerimeter=0;entryX=1.418;entryY=0.169;entryDx=0;entryDy=0;entryPerimeter=0;" parent="1" edge="1">
          <mxGeometry x="-0.1096" y="-14" relative="1" as="geometry">
            <mxPoint x="670" y="510.00339999999994" as="sourcePoint" />
            <mxPoint x="113.00000000000006" y="511.07000000000005" as="targetPoint" />
            <mxPoint as="offset" />
          </mxGeometry>
        </mxCell>
        <mxCell id="EjAZbper3AnYCD3PskdR-29" value="&amp;nbsp; &amp;nbsp; &amp;nbsp;check user existances" style="text;html=1;align=center;verticalAlign=middle;resizable=0;points=[];autosize=1;strokeColor=none;fillColor=none;" parent="1" vertex="1">
          <mxGeometry x="675" y="424" width="160" height="30" as="geometry" />
        </mxCell>
        <mxCell id="EjAZbper3AnYCD3PskdR-30" value="User exist" style="html=1;verticalAlign=bottom;endArrow=open;dashed=1;endSize=8;curved=0;rounded=0;" parent="1" edge="1">
          <mxGeometry relative="1" as="geometry">
            <mxPoint x="840" y="477" as="sourcePoint" />
            <mxPoint x="680" y="477" as="targetPoint" />
          </mxGeometry>
        </mxCell>
        <mxCell id="EjAZbper3AnYCD3PskdR-31" value="" style="html=1;points=[[0,0,0,0,5],[0,1,0,0,-5],[1,0,0,0,5],[1,1,0,0,-5]];perimeter=orthogonalPerimeter;outlineConnect=0;targetShapes=umlLifeline;portConstraint=eastwest;newEdgeStyle={&quot;curved&quot;:0,&quot;rounded&quot;:0};labelBackgroundColor=default;fillColor=#CC4125;" parent="1" vertex="1">
          <mxGeometry x="375.5" y="640" width="10" height="200" as="geometry" />
        </mxCell>
        <mxCell id="EjAZbper3AnYCD3PskdR-32" value="" style="html=1;verticalAlign=bottom;endArrow=block;curved=0;rounded=0;exitX=1.325;exitY=0.662;exitDx=0;exitDy=0;exitPerimeter=0;" parent="1" source="EjAZbper3AnYCD3PskdR-19" target="EjAZbper3AnYCD3PskdR-31" edge="1">
          <mxGeometry x="0.2781" y="15" relative="1" as="geometry">
            <mxPoint x="120" y="650" as="sourcePoint" />
            <mxPoint x="370" y="650" as="targetPoint" />
            <mxPoint as="offset" />
          </mxGeometry>
        </mxCell>
        <mxCell id="EjAZbper3AnYCD3PskdR-33" value="Necessary response to paint screen" style="html=1;verticalAlign=bottom;endArrow=open;dashed=1;endSize=8;curved=0;rounded=0;exitX=0;exitY=1;exitDx=0;exitDy=-5;entryX=1;entryY=0.75;entryDx=0;entryDy=0;" parent="1" edge="1">
          <mxGeometry x="-0.0058" relative="1" as="geometry">
            <mxPoint x="110" y="824.9999999999998" as="targetPoint" />
            <mxPoint x="375.5" y="824.9999999999995" as="sourcePoint" />
            <mxPoint as="offset" />
          </mxGeometry>
        </mxCell>
        <mxCell id="EjAZbper3AnYCD3PskdR-34" style="edgeStyle=orthogonalEdgeStyle;rounded=0;orthogonalLoop=1;jettySize=auto;html=1;exitX=0.5;exitY=1;exitDx=0;exitDy=0;" parent="1" source="EjAZbper3AnYCD3PskdR-8" target="EjAZbper3AnYCD3PskdR-8" edge="1">
          <mxGeometry relative="1" as="geometry" />
        </mxCell>
        <mxCell id="EjAZbper3AnYCD3PskdR-35" value="" style="html=1;points=[[0,0,0,0,5],[0,1,0,0,-5],[1,0,0,0,5],[1,1,0,0,-5]];perimeter=orthogonalPerimeter;outlineConnect=0;targetShapes=umlLifeline;portConstraint=eastwest;newEdgeStyle={&quot;curved&quot;:0,&quot;rounded&quot;:0};fillColor=#CC4125;" parent="1" vertex="1">
          <mxGeometry x="670" y="630" width="10" height="100" as="geometry" />
        </mxCell>
        <mxCell id="EjAZbper3AnYCD3PskdR-36" value="Verify session&amp;nbsp;" style="html=1;verticalAlign=bottom;endArrow=block;curved=0;rounded=0;" parent="1" target="EjAZbper3AnYCD3PskdR-35" edge="1">
          <mxGeometry relative="1" as="geometry">
            <mxPoint x="390" y="670" as="sourcePoint" />
            <mxPoint x="660" y="670" as="targetPoint" />
            <mxPoint as="offset" />
          </mxGeometry>
        </mxCell>
        <mxCell id="EjAZbper3AnYCD3PskdR-37" value="Session Available" style="html=1;verticalAlign=bottom;endArrow=open;dashed=1;endSize=8;curved=0;rounded=0;exitX=0;exitY=1;exitDx=0;exitDy=-5;" parent="1" source="EjAZbper3AnYCD3PskdR-35" edge="1">
          <mxGeometry relative="1" as="geometry">
            <mxPoint x="390" y="725" as="targetPoint" />
          </mxGeometry>
        </mxCell>
        <mxCell id="EjAZbper3AnYCD3PskdR-38" value="" style="html=1;points=[[0,0,0,0,5],[0,1,0,0,-5],[1,0,0,0,5],[1,1,0,0,-5]];perimeter=orthogonalPerimeter;outlineConnect=0;targetShapes=umlLifeline;portConstraint=eastwest;newEdgeStyle={&quot;curved&quot;:0,&quot;rounded&quot;:0};fillColor=#CC4125;" parent="1" vertex="1">
          <mxGeometry x="1000" y="760" width="10" height="80" as="geometry" />
        </mxCell>
        <mxCell id="EjAZbper3AnYCD3PskdR-39" value="Wysure API call" style="html=1;verticalAlign=bottom;endArrow=block;curved=0;rounded=0;" parent="1" target="EjAZbper3AnYCD3PskdR-38" edge="1">
          <mxGeometry x="-0.001" relative="1" as="geometry">
            <mxPoint x="390" y="770" as="sourcePoint" />
            <mxPoint as="offset" />
          </mxGeometry>
        </mxCell>
        <mxCell id="EjAZbper3AnYCD3PskdR-40" value="Resonse from wynsure" style="html=1;verticalAlign=bottom;endArrow=open;dashed=1;endSize=8;curved=0;rounded=0;" parent="1" source="EjAZbper3AnYCD3PskdR-38" edge="1">
          <mxGeometry x="-0.001" relative="1" as="geometry">
            <mxPoint x="390" y="810" as="targetPoint" />
            <mxPoint x="990" y="810" as="sourcePoint" />
            <mxPoint as="offset" />
          </mxGeometry>
        </mxCell>
        <mxCell id="EjAZbper3AnYCD3PskdR-41" value="" style="edgeStyle=none;endArrow=none;dashed=1" parent="1" target="EjAZbper3AnYCD3PskdR-31" edge="1">
          <mxGeometry x="272.3350694444445" y="165" width="100" height="100" as="geometry">
            <mxPoint x="380.25" y="120" as="sourcePoint" />
            <mxPoint x="380" y="450" as="targetPoint" />
          </mxGeometry>
        </mxCell>
        <mxCell id="EjAZbper3AnYCD3PskdR-42" value="Login&amp;nbsp;" style="edgeLabel;html=1;align=center;verticalAlign=middle;resizable=0;points=[];" parent="EjAZbper3AnYCD3PskdR-41" vertex="1" connectable="0">
          <mxGeometry relative="1" as="geometry">
            <mxPoint x="2" y="-80" as="offset" />
          </mxGeometry>
        </mxCell>
        <mxCell id="EjAZbper3AnYCD3PskdR-43" style="edgeStyle=orthogonalEdgeStyle;rounded=0;orthogonalLoop=1;jettySize=auto;html=1;" parent="1" source="EjAZbper3AnYCD3PskdR-44" edge="1">
          <mxGeometry relative="1" as="geometry">
            <mxPoint x="513" y="510" as="targetPoint" />
          </mxGeometry>
        </mxCell>
        <mxCell id="EjAZbper3AnYCD3PskdR-44" value="&#xa;With&#xa;session id in the &#xa;response cookiee&#xa;" style="shape=note;align=left" parent="1" vertex="1">
          <mxGeometry x="459.56" y="360" width="107.72" height="103.62" as="geometry" />
        </mxCell>
        <mxCell id="EjAZbper3AnYCD3PskdR-45" value="Redirection to Login / Registration" style="html=1;verticalAlign=bottom;endArrow=open;dashed=1;endSize=8;curved=0;rounded=0;entryX=1.245;entryY=0.012;entryDx=0;entryDy=0;entryPerimeter=0;" parent="1" target="EjAZbper3AnYCD3PskdR-19" edge="1">
          <mxGeometry x="0.0011" relative="1" as="geometry">
            <mxPoint x="670" y="290" as="sourcePoint" />
            <mxPoint x="590" y="290" as="targetPoint" />
            <mxPoint as="offset" />
          </mxGeometry>
        </mxCell>
        <mxCell id="EjAZbper3AnYCD3PskdR-46" value="Redirection to Auth Module" style="text;html=1;align=center;verticalAlign=bottom;resizable=0;points=[];autosize=1;strokeColor=none;fillColor=none;fontSize=11;" parent="1" vertex="1">
          <mxGeometry x="231" y="231" width="160" height="30" as="geometry" />
        </mxCell>
        <mxCell id="EjAZbper3AnYCD3PskdR-47" value="" style="endArrow=block;endFill=1;html=1;edgeStyle=orthogonalEdgeStyle;align=left;verticalAlign=top;rounded=0;entryX=-0.209;entryY=0.455;entryDx=0;entryDy=0;entryPerimeter=0;" parent="1" edge="1">
          <mxGeometry x="-1" relative="1" as="geometry">
            <mxPoint x="112" y="313" as="sourcePoint" />
            <mxPoint x="667.9100000000001" y="313.47755000000006" as="targetPoint" />
            <mxPoint as="offset" />
          </mxGeometry>
        </mxCell>
        <mxCell id="EjAZbper3AnYCD3PskdR-48" value="After product selection in PPA &#xa;and &#xa;Redirection to Poral Home page" style="shape=note;align=left" parent="1" vertex="1">
          <mxGeometry x="120" y="530" width="192.72" height="70" as="geometry" />
        </mxCell>
        <mxCell id="EjAZbper3AnYCD3PskdR-49" value="" style="fillColor=#CC4125;strokeColor=#660000" parent="1" vertex="1">
          <mxGeometry x="120" y="1260" width="10" height="130" as="geometry" />
        </mxCell>
        <mxCell id="EjAZbper3AnYCD3PskdR-50" value="Browser" style="shadow=1;fillColor=#A2C4C9;strokeColor=none" parent="1" vertex="1">
          <mxGeometry x="70" y="1160" width="105" height="50" as="geometry" />
        </mxCell>
        <mxCell id="EjAZbper3AnYCD3PskdR-51" value="" style="fillColor=#CC4125;strokeColor=#660000" parent="1" vertex="1">
          <mxGeometry x="459.56" y="1260" width="10" height="250" as="geometry" />
        </mxCell>
        <mxCell id="EjAZbper3AnYCD3PskdR-52" value="Auth module" style="shadow=1;fillColor=#A2C4C9;strokeColor=none" parent="1" vertex="1">
          <mxGeometry x="412.5" y="1160" width="105" height="50" as="geometry" />
        </mxCell>
        <mxCell id="EjAZbper3AnYCD3PskdR-53" value="" style="edgeStyle=none;endArrow=none;dashed=1" parent="1" source="EjAZbper3AnYCD3PskdR-52" target="EjAZbper3AnYCD3PskdR-51" edge="1">
          <mxGeometry x="614.4878472222224" y="174.99999999999997" width="100" height="100" as="geometry">
            <mxPoint x="464.6527777777778" y="1210" as="sourcePoint" />
            <mxPoint x="464.6527777777778" y="1360" as="targetPoint" />
          </mxGeometry>
        </mxCell>
        <mxCell id="EjAZbper3AnYCD3PskdR-54" value="" style="edgeStyle=elbowEdgeStyle;elbow=horizontal;endArrow=none;dashed=1" parent="1" source="EjAZbper3AnYCD3PskdR-50" target="EjAZbper3AnYCD3PskdR-49" edge="1">
          <mxGeometry x="230.00000000000003" y="310" width="100" height="100" as="geometry">
            <mxPoint x="250.00000000000003" y="1510" as="sourcePoint" />
            <mxPoint x="350" y="1410" as="targetPoint" />
          </mxGeometry>
        </mxCell>
        <mxCell id="EjAZbper3AnYCD3PskdR-55" value="" style="fillColor=#CC4125;strokeColor=#660000" parent="1" vertex="1">
          <mxGeometry x="120" y="1380" width="10" height="130" as="geometry" />
        </mxCell>
        <mxCell id="EjAZbper3AnYCD3PskdR-56" value="Logout In Non-SSO Positive Flow" style="rounded=1;fontStyle=1;fillColor=#FFD966;strokeColor=none" parent="1" vertex="1">
          <mxGeometry x="40" y="1120" width="200" height="30" as="geometry" />
        </mxCell>
        <mxCell id="EjAZbper3AnYCD3PskdR-57" value="" style="endArrow=open;endFill=1;endSize=12;html=1;rounded=0;exitX=1.322;exitY=0.797;exitDx=0;exitDy=0;exitPerimeter=0;" parent="1" edge="1">
          <mxGeometry width="160" relative="1" as="geometry">
            <mxPoint x="130.00000000000026" y="1360" as="sourcePoint" />
            <mxPoint x="460" y="1360" as="targetPoint" />
          </mxGeometry>
        </mxCell>
        <mxCell id="EjAZbper3AnYCD3PskdR-58" style="edgeStyle=orthogonalEdgeStyle;rounded=0;orthogonalLoop=1;jettySize=auto;html=1;exitX=0.5;exitY=1;exitDx=0;exitDy=0;" parent="1" source="EjAZbper3AnYCD3PskdR-51" target="EjAZbper3AnYCD3PskdR-51" edge="1">
          <mxGeometry relative="1" as="geometry" />
        </mxCell>
        <mxCell id="EjAZbper3AnYCD3PskdR-59" value="Redirection to Login/ Registration" style="html=1;verticalAlign=bottom;endArrow=open;dashed=1;endSize=8;curved=0;rounded=0;entryX=1.182;entryY=0.018;entryDx=0;entryDy=0;entryPerimeter=0;" parent="1" edge="1">
          <mxGeometry relative="1" as="geometry">
            <mxPoint x="460" y="1410" as="sourcePoint" />
            <mxPoint x="131.82000000000016" y="1413.3199999999997" as="targetPoint" />
          </mxGeometry>
        </mxCell>
        <mxCell id="EjAZbper3AnYCD3PskdR-60" value="Logout with session ID" style="text;html=1;align=center;verticalAlign=middle;resizable=0;points=[];autosize=1;strokeColor=none;fillColor=none;" parent="1" vertex="1">
          <mxGeometry x="235.5" y="1328" width="140" height="30" as="geometry" />
        </mxCell>
        <mxCell id="EjAZbper3AnYCD3PskdR-61" value="" style="fillColor=#CC4125;strokeColor=#660000" parent="1" vertex="1">
          <mxGeometry x="670" y="368" width="10" height="182.61" as="geometry" />
        </mxCell>
        <mxCell id="EjAZbper3AnYCD3PskdR-62" value="" style="edgeStyle=none;endArrow=none;dashed=1" parent="1" edge="1">
          <mxGeometry x="272.3350694444445" y="165" width="100" height="100" as="geometry">
            <mxPoint x="514.41" y="110" as="sourcePoint" />
            <mxPoint x="514" y="160" as="targetPoint" />
          </mxGeometry>
        </mxCell>
        <mxCell id="EjAZbper3AnYCD3PskdR-63" value="" style="edgeStyle=none;endArrow=none;dashed=1" parent="1" target="EjAZbper3AnYCD3PskdR-35" edge="1">
          <mxGeometry x="272.3350694444445" y="165" width="100" height="100" as="geometry">
            <mxPoint x="675.25" y="550" as="sourcePoint" />
            <mxPoint x="675" y="620" as="targetPoint" />
          </mxGeometry>
        </mxCell>
        <mxCell id="EjAZbper3AnYCD3PskdR-64" value="API to fetch Wynsure Data" style="text;html=1;align=center;verticalAlign=middle;resizable=0;points=[];autosize=1;strokeColor=none;fillColor=none;" parent="1" vertex="1">
          <mxGeometry x="150" y="618" width="160" height="30" as="geometry" />
        </mxCell>
        <mxCell id="EjAZbper3AnYCD3PskdR-65" value="eg: v1/Welcome" style="shape=note;align=left" parent="1" vertex="1">
          <mxGeometry x="137.28" y="710" width="122.72" height="40" as="geometry" />
        </mxCell>
        <mxCell id="EjAZbper3AnYCD3PskdR-66" style="edgeStyle=orthogonalEdgeStyle;rounded=0;orthogonalLoop=1;jettySize=auto;html=1;entryX=0.306;entryY=1.244;entryDx=0;entryDy=0;entryPerimeter=0;" parent="1" source="EjAZbper3AnYCD3PskdR-65" target="EjAZbper3AnYCD3PskdR-64" edge="1">
          <mxGeometry relative="1" as="geometry" />
        </mxCell>
        <mxCell id="EjAZbper3AnYCD3PskdR-67" value="" style="edgeStyle=none;endArrow=none;dashed=1" parent="1" edge="1">
          <mxGeometry x="272.3350694444445" y="165" width="100" height="100" as="geometry">
            <mxPoint x="675.25" y="730" as="sourcePoint" />
            <mxPoint x="675" y="960" as="targetPoint" />
          </mxGeometry>
        </mxCell>
        <mxCell id="EjAZbper3AnYCD3PskdR-68" value="" style="edgeStyle=none;endArrow=none;dashed=1;exitX=0.25;exitY=1;exitDx=0;exitDy=0;" parent="1" edge="1">
          <mxGeometry x="272.3350694444445" y="165" width="100" height="100" as="geometry">
            <mxPoint x="850.5" y="500" as="sourcePoint" />
            <mxPoint x="853" y="960" as="targetPoint" />
          </mxGeometry>
        </mxCell>
        <mxCell id="EjAZbper3AnYCD3PskdR-69" value="" style="edgeStyle=none;endArrow=none;dashed=1;" parent="1" edge="1">
          <mxGeometry x="272.3350694444445" y="165" width="100" height="100" as="geometry">
            <mxPoint x="1006" y="840" as="sourcePoint" />
            <mxPoint x="1006" y="960" as="targetPoint" />
          </mxGeometry>
        </mxCell>
        <mxCell id="EjAZbper3AnYCD3PskdR-70" value="" style="edgeStyle=none;endArrow=none;dashed=1;" parent="1" edge="1">
          <mxGeometry x="272.3350694444445" y="165" width="100" height="100" as="geometry">
            <mxPoint x="380" y="843" as="sourcePoint" />
            <mxPoint x="380" y="963" as="targetPoint" />
          </mxGeometry>
        </mxCell>
        <mxCell id="EjAZbper3AnYCD3PskdR-71" value="" style="edgeStyle=none;endArrow=none;dashed=1;" parent="1" edge="1">
          <mxGeometry x="272.3350694444445" y="165" width="100" height="100" as="geometry">
            <mxPoint x="104.38" y="840" as="sourcePoint" />
            <mxPoint x="104.38" y="960" as="targetPoint" />
          </mxGeometry>
        </mxCell>
        <mxCell id="EjAZbper3AnYCD3PskdR-72" value="&amp;nbsp; Session Killed for user" style="html=1;align=left;spacingLeft=2;endArrow=block;rounded=0;edgeStyle=orthogonalEdgeStyle;curved=0;rounded=0;" parent="1" edge="1">
          <mxGeometry relative="1" as="geometry">
            <mxPoint x="467.44000000000005" y="1370" as="sourcePoint" />
            <Array as="points">
              <mxPoint x="497.44000000000005" y="1400" />
            </Array>
            <mxPoint x="472.44000000000005" y="1400" as="targetPoint" />
          </mxGeometry>
        </mxCell>
        <mxCell id="EjAZbper3AnYCD3PskdR-73" style="edgeStyle=orthogonalEdgeStyle;rounded=0;orthogonalLoop=1;jettySize=auto;html=1;" parent="1" source="EjAZbper3AnYCD3PskdR-74" edge="1">
          <mxGeometry relative="1" as="geometry">
            <mxPoint x="700" y="680" as="targetPoint" />
          </mxGeometry>
        </mxCell>
        <mxCell id="EjAZbper3AnYCD3PskdR-74" value="Verify session &#xa;in DB.&#xa;&#xa;Both server&#xa;sessions are &#xa;stored in same table&#xa;" style="shape=note;align=left" parent="1" vertex="1">
          <mxGeometry x="700" y="520" width="120" height="120" as="geometry" />
        </mxCell>
        <mxCell id="EjAZbper3AnYCD3PskdR-75" value="&amp;nbsp;" style="html=1;align=left;spacingLeft=2;endArrow=block;rounded=0;edgeStyle=orthogonalEdgeStyle;curved=0;rounded=0;" parent="1" edge="1">
          <mxGeometry x="-0.0048" relative="1" as="geometry">
            <mxPoint x="680" y="680" as="sourcePoint" />
            <Array as="points">
              <mxPoint x="710" y="710" />
            </Array>
            <mxPoint x="685" y="710" as="targetPoint" />
            <mxPoint as="offset" />
          </mxGeometry>
        </mxCell>
        <mxCell id="EjAZbper3AnYCD3PskdR-76" value="" style="rounded=0;whiteSpace=wrap;html=1;dashed=1;fillColor=#f5f5f5;strokeColor=#666666;fontColor=#333333;" parent="1" vertex="1">
          <mxGeometry x="-218.5" y="1640" width="1968.5" height="1310" as="geometry" />
        </mxCell>
        <mxCell id="EjAZbper3AnYCD3PskdR-77" value="" style="rounded=0;whiteSpace=wrap;html=1;dashed=1;fillColor=#d5e8d4;strokeColor=#82b366;" parent="1" vertex="1">
          <mxGeometry x="1090" y="2014" width="530" height="460" as="geometry" />
        </mxCell>
        <mxCell id="EjAZbper3AnYCD3PskdR-78" value="" style="rounded=0;whiteSpace=wrap;html=1;dashed=1;fillColor=#f8cecc;strokeColor=#b85450;" parent="1" vertex="1">
          <mxGeometry x="590" y="1820" width="440" height="800" as="geometry" />
        </mxCell>
        <mxCell id="EjAZbper3AnYCD3PskdR-79" value="" style="rounded=0;whiteSpace=wrap;html=1;dashed=1;fillColor=#dae8fc;strokeColor=#6c8ebf;" parent="1" vertex="1">
          <mxGeometry x="72" y="2082.7" width="340.5" height="391.3" as="geometry" />
        </mxCell>
        <mxCell id="EjAZbper3AnYCD3PskdR-80" value="&lt;br&gt;Server&amp;nbsp;&lt;b&gt;&lt;u&gt;USAS16V0021&lt;/u&gt;&lt;/b&gt;&lt;span style=&quot;border-color: var(--border-color); text-align: left;&quot;&gt;&amp;nbsp;&amp;nbsp;&lt;/span&gt;&lt;br&gt;Hosting on IIS Following:&lt;br&gt;&lt;ol&gt;&lt;li style=&quot;text-align: left;&quot;&gt;&lt;span style=&quot;background-color: initial;&quot;&gt;SSPM&lt;/span&gt;&lt;br&gt;&lt;/li&gt;&lt;li style=&quot;text-align: left;&quot;&gt;&lt;span style=&quot;background-color: initial;&quot;&gt;Mercer Auth Controller&lt;/span&gt;&lt;/li&gt;&lt;li style=&quot;text-align: left;&quot;&gt;&lt;span style=&quot;background-color: initial;&quot;&gt;Portal Edge&lt;/span&gt;&lt;/li&gt;&lt;li style=&quot;text-align: left;&quot;&gt;&lt;span style=&quot;background-color: initial;&quot;&gt;SSP&lt;/span&gt;&lt;/li&gt;&lt;/ol&gt;" style="text;html=1;align=center;verticalAlign=middle;resizable=0;points=[];autosize=1;strokeColor=none;fillColor=none;" parent="1" vertex="1">
          <mxGeometry x="710" y="1881" width="180" height="140" as="geometry" />
        </mxCell>
        <mxCell id="EjAZbper3AnYCD3PskdR-81" value="" style="verticalLabelPosition=bottom;html=1;verticalAlign=top;align=center;strokeColor=none;fillColor=#00BEF2;shape=mxgraph.azure.user;" parent="1" vertex="1">
          <mxGeometry x="31.25" y="1966" width="47.5" height="48" as="geometry" />
        </mxCell>
        <mxCell id="EjAZbper3AnYCD3PskdR-82" value="&lt;b&gt;Wynsure API Server&lt;/b&gt;&lt;br&gt;Wynsure Backend exposing&lt;br&gt;RestAPI Service&lt;br&gt;on Wyseman port 700" style="text;html=1;align=center;verticalAlign=middle;resizable=0;points=[];autosize=1;strokeColor=none;fillColor=none;" parent="1" vertex="1">
          <mxGeometry x="1270" y="2167.5" width="170" height="70" as="geometry" />
        </mxCell>
        <mxCell id="EjAZbper3AnYCD3PskdR-83" value="Wynsure SQLServer&lt;br&gt;Database" style="text;html=1;align=center;verticalAlign=middle;resizable=0;points=[];autosize=1;strokeColor=none;fillColor=none;" parent="1" vertex="1">
          <mxGeometry x="1190" y="2290" width="130" height="40" as="geometry" />
        </mxCell>
        <mxCell id="EjAZbper3AnYCD3PskdR-84" value="External&lt;br&gt;Users" style="text;html=1;align=center;verticalAlign=middle;resizable=0;points=[];autosize=1;strokeColor=none;fillColor=none;fontSize=10;" parent="1" vertex="1">
          <mxGeometry y="1950" width="60" height="40" as="geometry" />
        </mxCell>
        <mxCell id="EjAZbper3AnYCD3PskdR-85" value="&lt;br&gt;Server&amp;nbsp;&lt;span style=&quot;text-align: left;&quot;&gt;&lt;b&gt;&lt;u&gt;USAS16V0022&lt;/u&gt;&lt;/b&gt;&lt;/span&gt;&lt;br&gt;Hosting on IIS Following:&lt;br&gt;&lt;ol&gt;&lt;li style=&quot;border-color: var(--border-color); text-align: left;&quot;&gt;SSPM&lt;br style=&quot;border-color: var(--border-color);&quot;&gt;&lt;/li&gt;&lt;li style=&quot;border-color: var(--border-color); text-align: left;&quot;&gt;&lt;span style=&quot;border-color: var(--border-color); background-color: initial;&quot;&gt;Mercer Auth Controller&lt;/span&gt;&lt;/li&gt;&lt;li style=&quot;border-color: var(--border-color); text-align: left;&quot;&gt;&lt;span style=&quot;border-color: var(--border-color); background-color: initial;&quot;&gt;Portal Edge&lt;/span&gt;&lt;/li&gt;&lt;li style=&quot;border-color: var(--border-color); text-align: left;&quot;&gt;&lt;span style=&quot;border-color: var(--border-color); background-color: initial;&quot;&gt;SSP&lt;/span&gt;&lt;/li&gt;&lt;/ol&gt;" style="text;html=1;align=center;verticalAlign=middle;resizable=0;points=[];autosize=1;strokeColor=none;fillColor=none;" parent="1" vertex="1">
          <mxGeometry x="710" y="2339.5" width="180" height="140" as="geometry" />
        </mxCell>
        <mxCell id="EjAZbper3AnYCD3PskdR-86" value="" style="endArrow=classic;html=1;rounded=0;strokeColor=#001DBC;strokeWidth=2;fillColor=#0050ef;entryX=0;entryY=0.5;entryDx=0;entryDy=0;" parent="1" target="EjAZbper3AnYCD3PskdR-87" edge="1">
          <mxGeometry width="50" height="50" relative="1" as="geometry">
            <mxPoint x="80" y="1994" as="sourcePoint" />
            <mxPoint x="180" y="1993.985" as="targetPoint" />
          </mxGeometry>
        </mxCell>
        <mxCell id="EjAZbper3AnYCD3PskdR-87" value="" style="shape=image;html=1;verticalAlign=top;verticalLabelPosition=bottom;labelBackgroundColor=#ffffff;imageAspect=0;aspect=fixed;image=https://cdn4.iconfinder.com/data/icons/picons-social/57/56-edge-128.png" parent="1" vertex="1">
          <mxGeometry x="210" y="1966" width="55" height="55" as="geometry" />
        </mxCell>
        <mxCell id="EjAZbper3AnYCD3PskdR-88" value="" style="endArrow=classic;html=1;rounded=0;strokeColor=#001DBC;strokeWidth=2;fillColor=#0050ef;exitX=0.5;exitY=1;exitDx=0;exitDy=0;" parent="1" source="EjAZbper3AnYCD3PskdR-87" edge="1">
          <mxGeometry width="50" height="50" relative="1" as="geometry">
            <mxPoint x="220" y="2049.91" as="sourcePoint" />
            <mxPoint x="238" y="2270" as="targetPoint" />
          </mxGeometry>
        </mxCell>
        <mxCell id="EjAZbper3AnYCD3PskdR-89" value="&lt;b&gt;uat.mercervb.com&lt;br&gt;&lt;br&gt;&lt;/b&gt;" style="text;html=1;strokeColor=none;fillColor=none;align=center;verticalAlign=middle;whiteSpace=wrap;rounded=0;fontFamily=Comic Sans MS;" parent="1" vertex="1">
          <mxGeometry x="204.5" y="2352.68" width="55.5" height="27.32" as="geometry" />
        </mxCell>
        <mxCell id="EjAZbper3AnYCD3PskdR-90" value="" style="outlineConnect=0;dashed=0;verticalLabelPosition=bottom;verticalAlign=top;align=center;html=1;shape=mxgraph.aws3.classic_load_balancer;fillColor=#F58534;gradientColor=none;" parent="1" vertex="1">
          <mxGeometry x="200" y="2274" width="69" height="72" as="geometry" />
        </mxCell>
        <mxCell id="EjAZbper3AnYCD3PskdR-91" value="" style="html=1;rounded=0;strokeColor=#001DBC;strokeWidth=2;fillColor=#0050ef;exitX=0.855;exitY=0.145;exitDx=0;exitDy=0;exitPerimeter=0;entryX=0;entryY=0.5;entryDx=0;entryDy=0;" parent="1" source="EjAZbper3AnYCD3PskdR-90" target="EjAZbper3AnYCD3PskdR-95" edge="1">
          <mxGeometry width="50" height="50" relative="1" as="geometry">
            <mxPoint x="525" y="2128.5125" as="sourcePoint" />
            <mxPoint x="630" y="2015.4980243219397" as="targetPoint" />
          </mxGeometry>
        </mxCell>
        <mxCell id="EjAZbper3AnYCD3PskdR-92" value="" style="html=1;rounded=0;strokeColor=#001DBC;strokeWidth=2;fillColor=#0050ef;entryX=0;entryY=0.5;entryDx=0;entryDy=0;" parent="1" source="EjAZbper3AnYCD3PskdR-90" target="EjAZbper3AnYCD3PskdR-96" edge="1">
          <mxGeometry width="50" height="50" relative="1" as="geometry">
            <mxPoint x="535" y="2138.5125" as="sourcePoint" />
            <mxPoint x="621" y="2282.4268142681426" as="targetPoint" />
          </mxGeometry>
        </mxCell>
        <mxCell id="EjAZbper3AnYCD3PskdR-93" value="/lspmw" style="text;html=1;align=center;verticalAlign=middle;resizable=0;points=[];autosize=1;strokeColor=none;fillColor=none;" parent="1" vertex="1">
          <mxGeometry x="284" y="2182.5" width="60" height="30" as="geometry" />
        </mxCell>
        <mxCell id="EjAZbper3AnYCD3PskdR-94" value="/lspmw&lt;br&gt;" style="text;html=1;align=center;verticalAlign=middle;resizable=0;points=[];autosize=1;strokeColor=none;fillColor=none;" parent="1" vertex="1">
          <mxGeometry x="315" y="2309.5" width="60" height="30" as="geometry" />
        </mxCell>
        <mxCell id="EjAZbper3AnYCD3PskdR-95" value="" style="aspect=fixed;perimeter=ellipsePerimeter;html=1;align=center;shadow=0;dashed=0;spacingTop=3;image;image=img/lib/active_directory/cluster_server.svg;" parent="1" vertex="1">
          <mxGeometry x="745.02" y="2012.5" width="77.5" height="77.5" as="geometry" />
        </mxCell>
        <mxCell id="EjAZbper3AnYCD3PskdR-96" value="" style="aspect=fixed;perimeter=ellipsePerimeter;html=1;align=center;shadow=0;dashed=0;spacingTop=3;image;image=img/lib/active_directory/cluster_server.svg;" parent="1" vertex="1">
          <mxGeometry x="750" y="2250" width="70" height="70" as="geometry" />
        </mxCell>
        <mxCell id="EjAZbper3AnYCD3PskdR-97" value="" style="aspect=fixed;perimeter=ellipsePerimeter;html=1;align=center;shadow=0;dashed=0;spacingTop=3;image;image=img/lib/active_directory/cluster_server.svg;" parent="1" vertex="1">
          <mxGeometry x="1190" y="2082.5" width="97.5" height="97.5" as="geometry" />
        </mxCell>
        <mxCell id="EjAZbper3AnYCD3PskdR-98" value="" style="html=1;rounded=0;strokeColor=#001DBC;strokeWidth=2;fillColor=#0050ef;exitX=1;exitY=0.5;exitDx=0;exitDy=0;entryX=0;entryY=0;entryDx=0;entryDy=0;" parent="1" source="EjAZbper3AnYCD3PskdR-95" target="EjAZbper3AnYCD3PskdR-97" edge="1">
          <mxGeometry width="50" height="50" relative="1" as="geometry">
            <mxPoint x="686" y="2085" as="sourcePoint" />
            <mxPoint x="793" y="2158" as="targetPoint" />
          </mxGeometry>
        </mxCell>
        <mxCell id="EjAZbper3AnYCD3PskdR-99" value="" style="html=1;rounded=0;strokeColor=#001DBC;strokeWidth=2;fillColor=#0050ef;entryX=0;entryY=0.25;entryDx=0;entryDy=0;exitX=1;exitY=0.75;exitDx=0;exitDy=0;" parent="1" source="EjAZbper3AnYCD3PskdR-96" target="EjAZbper3AnYCD3PskdR-97" edge="1">
          <mxGeometry width="50" height="50" relative="1" as="geometry">
            <mxPoint x="670" y="2295" as="sourcePoint" />
            <mxPoint x="990" y="2347" as="targetPoint" />
          </mxGeometry>
        </mxCell>
        <mxCell id="EjAZbper3AnYCD3PskdR-100" value="" style="shape=image;verticalLabelPosition=bottom;labelBackgroundColor=default;verticalAlign=top;aspect=fixed;imageAspect=0;image=data:image/jpeg,/9j/4AAQSkZJRgABAQAAAQABAAD/2wCEAAcHBwcIBwgJCQgMDAsMDBEQDg4QERoSFBIUEhonGB0YGB0YJyMqIiAiKiM+MSsrMT5IPDk8SFdOTldtaG2Pj8ABBwcHBwgHCAkJCAwMCwwMERAODhARGhIUEhQSGicYHRgYHRgnIyoiICIqIz4xKysxPkg8OTxIV05OV21obY+PwP/CABEIBdwJYAMBIgACEQEDEQH/xAAcAAEAAQUBAQAAAAAAAAAAAAAAAQQFBgcIAwL/2gAIAQEAAAAA6RAAAAAAAAAAAAAAAAAAAAAAAAAAAAAAAAAAAAAAAAAAAAAAAAAAAAAAAAAAAAAAAAAAAAAAAAAAAAAAAAAAAAAAAAAAAAAAAAAAAAAAAAAAAAAAAAAAAAAAAAAAAAAAAAAAAAAAAAAAAAAAAAAAAAAAAAAAAAAAAAAAAAAAAAAAAAAAAAAAAAAAAAAAAAAAAAAAAAAAAAAAAAAAAAAAAAAAAAAAAAAAAAAAAAAAAAAAAAAAAAAAAAAAAAAAAAAAAAAAAAAAAAAAAAAAAAAAAAAAAAAAAAAAAAAAAAAAAAAAAAAAAAAAAAAAAAAAAAAAAAAAAAAAAAAAAAAAAAAAAAAAAAAAAAAAAAAAAAAAAAAAAAAAAAAAAAAAAAAAAAAAAAAAAAAAAAAAAAAAAAAAAAAAAAAAAAAAAAAAAAAAAAAAAAAAAAAAAAAAAAAAAAAAAAAAAAAAAAAAAAAAAAAAAAAAAAAAAAAAAAAAAAAAAAAAAAAAAAAAAAAAAAAAAAAAAAAAAAAAAAAAAAAAAAAAAAAAAAAAAAAAAAAAAAAAAAAAAAAAAAAAAAAAAAAAAAAAAAAAAAAAAAAAAAAAAAAAAAAAAAAAAAAAAAAAAAAAAAAAAAAAAAAAAAAAAAAAAAAAAAAAAAAAAAAAAAAAAAAAAAAAAAAAAAAAAAAAAAAAAAAAAAAAAAAAAAAAAAAAAAAAAAAAAAAAAAAAAAAAAAAAAAAAAAAAAAAAAAAAAAAAAAAAAAAAAAAAAAAAAAAAAAAAAAAAAAAAAAAAAAAAAAAAAAAAAAAAAAAAAAAAAAAAAAAAAAAAAAAAAAAAAAAAAAAAAAAAAAAAAAAAAAAAAAAAAAAAAAAAAAAAAAAAAAAAAAAAAAAAAAAAAAAAAAAAAAAAAAAAAAAAAAAAAAAAAAAAAAAAAAAAAAAAAAAAAAAAAAAAAAAAAAAAAAAAAAAAAAAAAAAAAAAAAAAAAAAAAAAAAAAAAAAAAAAAAAAAAAAAAAAAAAAAAAAAAAAAAAAAAAAAAAAAAAAAAAAAAAAAAAAAAAAAAAAAAAAAAAAAAAAAAAAAAAAAAAAAAAAAAAAAAAAAAAAAAAAAAAAAAAAAAAAAAAAAAAAAAAAAAAAAAAAAAAAAAAAAAAAAAAAAAAAAAAAAAAAAAAAAAAAAAAAAAAAAAAAAAAAAAAAAAAAAAAAAAAAAAAAAAAAAAAAAAAAAAAAAAAAAAAAAAAAAAAAAAAAAAAAAAAAAAAAAAAAAAAAAAAAAAAAAAAAAAAAAAAAAAAAAAAAAAAAAAAAAAAAAAAAAAAAAAAAAAAAAAAAAAAAAAAAAAAAAAAAAAAAAAAAAAAAAAAAAAAAAAAAAAAAAAAAAAAAAAAAAAAAAAAAAAAAAAAAAAAAAAAAAAAAAAAAAAAAAAAAAAAAAAAAAAAAAAAAAAAAAAAAAAAAAAAAAAAAAAAAAAAAAAAAAAAAAAAAAAAAAAAAAAAAAAAAAAAAAAAAAAAAAAAAAAAAAAAAAAAAAAAAAAAAAAAAAAAAAAAAAAAAAAAAAAAAAAAAAAAAAAAAAAAAAAAAAAAAAAAAAAAAAAAAAAAAAAAAAAAAAAAAAAAAAAAAAAAAAAAAAAAAAAAAAAAAAAAAAAAAAAAAAAAAAAAAAAAAAAAAAAAAAAAAAAAAAAAAAAAAAAAAAAAAAAAAAAAAAAAAAAAAAAAAAAAAAAAAAAAAAAAAAAAAAAAAAAAAAAAAAAAAAAAAAAAAAAAAAAAAAAAAAAAAAAAAAAAAAAAAAAAAAAAAAAAAAAAAAAAAAAAAAAAAAAAAAAAAAAAAAAAAAAAAAAAAAAAAAAAAAAAAAAAAAAAAAAAAAAAAAAAAAAAAAAAAAAAAAAAAAAAAAAAAAAAAAAAAAAAAAAAAAAAAAAAAAAAAAAAAAAAAAAAAAAAAAAAAAAAAAAAAAAAAAAAAAAAAAAAAAAAAAAAAAAAAAAAAAAAAAAAAAAAAAAAAAAAAAAAAAAAAAAAAAAAAAAAAAAAAAAAAAAAAAAAAAAAAAAAAAAAAAAAAAAAAAAAAAAAAAAAAAAAAAAAAAAAAAAAAAAAAAAAAAAAAAAAAAAAAAAAAAAAAAAAAAAAAAAAAAAAAAAAAAAAAAAAAAAAAAAAAAAAAAAAAAAAAAAAAAAAAAAAAAAAAAAAAAAAAAAAAAAAAAAAAAAAAAAAAAAAAAAAAAAAAAAAAAAAAAAAAAAAAAAAAAAAAAAAAAAAAAAAAAAAAAAAAAAAAAAAAAAAAAAAAAAAAAAAAAAAAAAAAAAAAAAAAAAAAAAAAAAAAAAAAAAAAAAAAAAAAAAAAAAAAAAAAAAAAAAAAAAAAAAAAAAAAAAAAAAAAAAAAAAAAAAAAAAAAAAAAAAAAAAAAAAAAAAAAAAAAAAAAAAAAAAAAAAAAAAAAAAAAAAAAAAAAAAAAAAAAAAAAAAAAAAAAAAAAAAAAAAAAAAAAAAAAAAAAAAAAAAAAAAAAAAAAAAAAAAAAAAAAAAAAAAAAAAAAAAAAAAAAAAAAAAAAAAAAAAAAAAAAAAAAAAAAAAAAAAAAAAAAAAAAAAAAAAAAAAAAAAAAAAAAAAAAAAAAAAAAAAAAAAAAAAAAAAAAAAAAAAAAAAAAAAAAAAAAAAAAAAAAAAAAAAAAAAAAAAAAAAAAAAAAAAAAAAAAAAAAAAAAAAAAAAAAAAAAAAAAAAAAAAAAAAAAAAAAAAAAAAAAAAAAAAAAAAAAAAAAAAAAAAAAAAAAAAAAAAACmqQAAAAAAAAAAAAAAAAAAAAAAAAAAAAAAAAAAAAAAAAAAAAAAAAA1xsaQAAAAAAAAAAAAAAAAAAAAAAAAAAAAAAAAAAAAAAAAAAAAAAAADy0ZsbMgAAAAAAAAAAAAAAAAAAAAAAAAAAAAAAAAAAAAAAAAAAAAAAAADWuE/e+/oAAAAAAAAAAAAAAAAAAAAAAAAAAAAAAAAAAAAAAAAAAAAAAAAEa9wSLXtXPgAAAAAAAAAAAAAAAAAAAAAAAAAAAAAAAAAAAAAAAAAAAAAAAA89W4tK0++/LiAAAAAAAAAAAAAAAAAAAAAAAAAAAAAAAAAAAAAAAAAAAAAAAAeWpcelNqXjenuAAAAAAAAAAAAAAAAAAAAAAAAAAAAAAAAAAAAAAAAAAAAAAAB56jx6Uzai+7uqAAAAAAAAAAAAAAAAAAAAAAAAAAAAAAAAAAAAAAAAAAAAAAAAjU+LSmZtfyZDu32AAAAAAAAAAAAAAAAAAAAAAAAAAAAAAAAAAAAAAAAAAAAAAAGtsFmUytnyMq3P8AYAAAAAAAAAAAAAAAAAAAAAAAAAAAAAAAAAAAAAAAAAAAAAADENVTKZTbfghne2gAAAAAAAAAAAAAAAAAAAAAAAAAAAAAAAAAAAAAAAAAAAAAALTpbylMpm2+aBtTYQAAAAAAAAAAAAAAAAAAAAAAAAAAAAAAAAAAAAAAAAAAAAAAfGlrNMplM23yJh97xyIAAAAAAAAAAAAAAAAAAAAAAAAAAAAAAAAAAAAAAAAAAAAAAa717MplMrd5AXDfdWAAAAAAAAAAAAAAAAAAAAAAAAAAAAAAAAAAAAAAAAAAAAAAtWkPiZmUym3+IDM9xgAAAAAAAAAAAAAAAAAAAAAAAAAAAAAAAAAAAAAAAAAAAAANOY2mZlMpt3kAbny8AAAAAAAAAAAAAAAAAAAAAAAAAAAAAAAAAAAAAAAAAAAAAGMadmZmUymbf4gFw3/7gAAAAAAAAAAAAAAAAAAAAAAAAAAAAAAAAAAAAAAAAAAAACNI2WZTMymVB4SgDZOzgAAAAAAAAAAAAAAAAAAAAAAAAAAAAAAAAAAAAAAAAAAAABiun5mUzMplQeAA9eg68AAAAAAAAAAAAAAAAAAAAAAAAAAAAAAAAAAAAAAAAAAAAA0rj6ZmZlMpoPAAM/2wAAAAAAAAAAAAAAAAAAAAAAAAAAAAAAAAAAAAAAAAAAAAAsWkZTMpmZTNB4EAPToWvAAAAAAAAAAAAAAAAAAAAAAAAAAAAAAAAAAAAAAAAAAAAA1ThSZlMzKZmgpwAbL2aAAAAAAAAAAAAAAAAAAAAAAAAAAAAAAAAAAAAAAAAAAAADx0B4TKZmX0mVDTgBFZ0P7AAAAAAAAAAAAAAAAAAAAAAAAAAAAAAAAAAAAAAAAAAAABh+opmUzKZmU0NOABuDOAAAAAAAAAAAAAAAAAAAAAAAAAAAAAAAAAAAAAAAAAAAAA1DiEymZTMzKaGnAAybeQAAAAAAAAAAAAAAAAAAAAAAAAAAAAAAAAAAAAAAAAAAAA+OevH6TMpmZlM0NOBAJ6GuQAAAAAAAAAAAAAAAAAAAAAAAAAAAAAAAAAAAAAAAAAAABjelUzMpmUzMqKngADauxAAAAAAAAAAAAAAAAAAAAAAAAAAAAAAAAAAAAAAAAAAAADWuupmZlMymZlQ04ADIt7gAAAAAAAAAAAAAAAAAAAAAAAAAAAAAAAAAAAAAAAAAAAGk8cl9JmUzL6TQ04AQfXR9SAAAAAAAAAAAAAAAAAAAAAAAAAAAAAAAAAAAAAAAAAAABHO/jKZmZTMpmaGnCABufMwAAAAAAAAAAAAAAAAAAAAAAAAAAAAAAAAAAAAAAAAAAALXoOUzMpmZTMqKmAAM+24AAAAAAAAAAAAAAAAAAAAAAAAAAAAAAAAAAAAAAAAAAABiOnUy+kymZl9KGnABBd+hAAAAAAAAAAAAAAAAAAAAAAAAAAAAAAxm3en39fcnxEfPz8RA9airrrh9AAChxb3+5+hERERB9e1ZX1wAAAa81kmUzMpmUzNFTAgAnpX1AAAAAAAAAAAAAAAAAAAAAAAAAAAAAKPAQAAAKu+ZB9gAYXaQAAD0v+S/QAADVeBTKZmUzKZmaKlAAHQd4AAAAAAAAAAAAAAAAAAAAAAAAAAAAAKKx0Vv8AMA9Pf7+PPy+QBfMq9AAx6ioqL5Aj7+o+AD7zC7gAAaaxOUy+kymZl9UNMAAN2ZeAAAAAAAAAAAAAAAAAAAAAAAAAAAAABT4jawZjeQj5o7XZaGQfeW3oABZ8NBnNxI+LdYLSBlt9AABouxSmUzMpmUzRUwAA25n4AAAAAAAAAAAAAAAAAAAAAAAAAAAAACNcfIbKAClxiyyDIcpAAYTaw2UAp8IpAnYXuAAGgLamUzMymUzNFTAAEbS2UAAAAAAAAAAAAAAAAAAAAAAAAAAAAAAYLbw2UABQ4V4AvuWgAYrj4jZYB8YDTBfctAADnelmUy+kzKZlR0wBAGyNqAAAAAAAAAAAAAAAAAAAAAAAAAAAAAAGE2sNkyAB84NQAynIQAYzjYbJkAt2DB6bGAADnPxmUymZlMymjphAANibYAAAAAAAAAAAAAAAAAAAAAAAAAAAAAAMLtInZIAB84PbwZ/VgBjONhsmQBrvxDY3oAAOc/GUymZmUymaOlAAGwttAAAAAAAAAAAAAAAAAAAAAAAAAAAAAAGG2cfWyAAB8a+8QrM+ADGcbE7JADDbOGxPYAAc606ZTL6TKZmaSkABA2PtYAAAAAAAAAAAAAAAAAAAAAAAAAAAAAAw+yj62QAAFswgGZ3cAYzjY+tkABi2PBsX1AAHPtvTKZTMymZUtICAgNmbSAAAAAAAAAAAAAAAAAAAAAAAAAAAAAAMPso+9jgAAwa3BXZ4AMZxsfWyAAxSwD22IAAGi7BMplMy+kzKlowgANqbKAAAAAAAAAAAAAAAAAAAAAAAAAAAAAAMPso+tkAAAtmEA2P9gGM42PrZAAYNbhkmTAABpvEJTKZfSZTM0tEAANxZ4AAHhrvNLuGP4JY/bKdh+oCMNwq31uUZ96gAAIsmI2Cg+rnkuZ1YAAFv1lsK9inwDCrZWZZsmuAAARiuI2L4ul/za4APn6ABFixKwUS6ZNmVWAAGH2UfexwAARrvyDLL8AYzjY+9jgDw14PfYP0AAGs9cJmUymZlMzS0QAA3plQAHzjOFYFg/h1HmxrrS+JhX782cFPqXUNmCs3buAAALVqjWNgA+8+3XloAHlimEYDh3x0bsxQ6Y1PRh7bq3SAAGO6n1nbAMt2lsi5DC9HdSgC1ap1fYQPvP92ZWAAYfZR97HAAAxKxBeMyAMXx0fexwBiFkPvOa4AAGHadTKZTMzKZU1EAAOjLkAMQ1fjOK0odY5RivPmJgG8tzo1roe0gGzejAAFJpXUPi+7r52yAbV397ANcYBi2NeQdP51rPQduANldHSABbdDayj2zS62rDqYF0uyzW6u7LAUmlNReL0unnbIBtXoD0AAw6zD72OAABZsOCo2EAYtjw+9jgIxfHipzStAAAtOgZlMpl9JlM0tGACD36XkAaO0z8gdZ650r8K2KMDp3Led9egA3zuAAGOcz2Fct67M9njrrSuNhl3UVSCOM6MB1Bq7WAAN47oABi/MlpZz0bczy0npiADYvSgGN8z2Jc96bL93hrvSuNhl/UNSADDbOPvY4AAFFgQTskAxbHhOVVE/T58bfaPB6ZJkH0AAAjnelTMplMzKZpaMEAGTb5ABSat03Zw9PPK9v7Ar1s1Fpn4Fd7Wuv2lsHJPvGNVazgVXY1SAMX5coV86mu4PjRGoAzjqCQWjWGqbECso/bYWcXunxPVlrD37ErgBaOT7ayDrL3Bp/QwC/9N38GLcu0K/dS3YEaF1CGc9QAAwu0j72OAAB8a4BsoAxbHgABNzv12+gAAGncOTKZTMymZpKMAA2ZtMAB581a/Fx39soDXPNgfe4911ANd82/A6A2yAUPJlnfXVmVgGhdQBvfcQCNZc9eIbP3vcw8eddbBvzboA5r10dE7QAjlHFR03fl/kFv5NtD66tyoA0JqEN87gADDLQPvY4AAEa2BsoAxbHgAAPTJr/ACAADCdQzKZTL6TKaSkAAN6ZWAAa05xHTWfgHNuuBuTeoBpHSgz/AKaAOd9XGxOlQBHKGLCr7EqgDmnXg2h0SA+eVMTGfdNgFg5FHZFxAat54G+dwAHOmsTYvSgA+OUcXFX2R7ADC7SPvY4AAEa2BsoAxXHx9Z3U/XxFLR260eIFdnHoAAHlzn8pmUymZlNJSAAR79KeoABrnmwde3wAwjl0bU6FAKTjXzLj2QAx/keDo7ZYAYRy6G/duAHOWsx0jsgA17zQLn2MAab0Ue/aMgLFyGNu78AY9yRB0dssAMI5dDf22wBhdpH3scAABrUGyZAYrj49NjAFrxaiBU599gABpjE0ymUzMpmjpQIAzTdgAA13zUOvb4AeXFvybE6VAHKmIjtb7A0XpodgXkAHJGOjM+pgDnTWI6cz0ApeMBPa30A501iVPaABHFEG399ANFabHYF5AByPjwzTqUAYdZh97HAAA89ch77DAMWx4emxgAxfHQXbNAAAxXSsymUy+kzNFTQABu3MwABgHMo7AvIA43txn3TYA5u1uO0agDkzGT67U+wAaS0mPXtOQHO2rx05noBHF9OO0agBzXronteQEcWeRvHdADkvGj67WkAGkdKD27R+gDDrMPvY4AAFFgQXTNgDFseHpsYAGKWAGe1oAAjQFsTMplMzKipgAK3o/wBAABgXMY7AvIA5DsRn3TYA551YOzawHxxZ8FT2gABhfLQdfXsBztq8dOZ6AON7cOzawBzprEdX5UA+OKoOl9hAfHFfyVXZ4AGFcth2DeADD7KPvY4AAFswgMlyUAxXHx6bGAB8698Qv+VgABgmp0ymUzMyoPAADZe1QAAwPmIdg3gAcmYyZ902ANAalHZ1WC2ccio7RAAt/GwdX5UA541aOmdgADj6zjs2sAaU0iN2btAYvycVHZFSBbuNxU9oAAUHGodZ5MAYfZR9bIAAAxjHAzm4gGK4+PTYwAGNY0FbnoAAefP9BKZTL6TNv8QID16MuAAAYHzEOwbwAOUMVM+6bAGg9RDsuuBZOQR9dqfYAI4r8x1flQDnfVw6Y2CAOQ7EOzawBhPLguXYPsBpbR5uDfICz8fD67V+gARxV8DqzLQDDrMPrZAAAGBUQ9digDFLAPTYwAFBggeuxQAAYRqNMymUzM23zgANibdAABgXMY7Cu4A5RxQz/poAaF1AO0agFr46Dsi4gAcZ0Q6zyYBztq8dNZ+AORbAOzK0BHIthG0OiQW/ke3Mh6uqgFp48Dse5AAcY0g63yIAwy0D62QAACn15IyfIwBilgHpsYADy10HrsUAAEaJscymUzMzbPMAPboq4gAA1/zMOwruAOT8WNh9LADQ2nx2p6g8uKw6gzkADjShHZ1WA511gOms/AHI+PDsuuAMG5fDY2/7oWXm/EGQ9P3kA+eKA6hzgADjOiHaNQAYXaR9bIAABi+Oj62F7ADE7CPvY4ADWoV2eAAAWDRhMpl9JtfyAG0doAAAa65rHYV3AHJ2Lmw+lgBoXUA7QqQOPrON17uABHFviXnsAA5z1kOl9hADkfHh2VXgDUmgoH1lN7tOI/LZ+/6sAOPbQN17uAA4r8i9dfgDCrUJ2RIAA8NffIyjIgAxOwj72OAB467C/wCVgWvw+pu30A1dr2ZlMpmbVAAvHQnqAABrbm8deX0AclY2bE6VAGgtRjtb7A5w1qMj61kAKLjMbW6DAOb9bDpPYwA5Hx4dkXEAMM5/xkD0z/dGXAAc3a3GSdaSAFJxiNrdBgDCLYGygAAw2zitzyQAxKxCdkgAWXDwzi5B549fvZNprKoDz0RaJTKZn3s/mAN85QAAA1dzuOu78AOQ7EbF6UAHP2px2jUAaz5yDqnMAAwvlodS5oAc166HSGyQByNj47FugAI1xzcznI7xk+ZVgABrDnUOqcwADCuWx1NmYAwa3BsmQACw4mPbO6kAGIWQNkyADCrUKzPgY7kOP2/1qcjs13+gLPorymUy+q6y00ANlbYAAANT8/Dr2+ADju1GxOlQBz3qodsgPHjijGadSgBpDSpl3VUgHMuADozZoA5Gx8de3wAGM86Yvu/dQAADw45oxmvUgAaR0oZh1RIAwOhDYVQAAseIj1zitAAwy0Bsj6AC34KGc3EPCjueP3+cNzJZ7wAwzUEymU3iy2wBkm+/sAAA1BoUdcZCAOM6I2D0wAOddYDtkA0vo4N+7cAPPkG0PvqrLABy3hQ6H2kAORLCOt8iAFJo3U3w6gzkAAA0to8N/wC2gDx5DtD76rysANd+IZLkoAGMY4KnN6oABglAGY3kAeGCU4yu/goK6cfj7t+XMeyEA1jrxMpnIrPYALj0DcAAABozTI6qy8A+OLPgznqAAcy4AOz6oB5cnY4Pvo7ZADRWmze24wA5Lxob728AOObYOsMpAMa5ftYyToXLfsAADz5Mx0ffR+xwGitNm99xABT69Ayq/wAgFrxWjF4y70AAfGuvkPbYP2AtOJeBOW3wC31frj9XYcylYL+ARqHDZTLL7bhxBU78vwAAAsvLNmG1eg5Aan5+FR1NlYDGOVqYbb339gLNyhbhO294Vo8dGafN07wADDOW/kZx076AMQ5VDZ+/K4BhfLQH3XXGvuN0u13v+S3IALHylbxO3N4Vg8NF6hN17uAC0YtSgPu73Oq9vqn8LbaPAVWV3UAB42vH7eB93yvrPRS0NmohXZdXAPm03jH7/RUF98rfdQB8abxZMs8p9bB7b0ykAABYdQYhinyC55hm+3zWmu8RsYF9zXbuVI0RheJwD2y/LN6/YLJy/YQ9c3yf2seBW9W7/wBmgGMaXxSwAVuXX7edax7TOK4xAPrKMs6A+wjlHFQABftw7ZkAsfMFhD1zfJ/exYDQK7f+zADy1/5AAACLhkN5kADH8VAAAFVk16ACzXW23H1xzI8ayUAHnpzFpTsus0mPfeOVgAAGtubwAyPrY5bwoAOhdqI4nAD27SkDz0jqGmAK/a+5K8Aao59AB11f2q+egAdpe4LZy7jYAAZ30z6gHjpLUNOAXDa+5K4AWXDwAAHpcbrevYAAYBSAAAVV3u9xkACzfV1+rdbr96AAfGo8OmdvVunLErN55IAAALTrer96moh4/FHT3PYxgeO+3p7+p8efj47DvBqarqfX2mfLx8KP22gAPDXGBYrZ6f1vuZ5/nnqADDNLVXvUe3q8vGmpvDpn7Ylo2qqaio9Hh4eNN99JAPnUWkqIAAba3+AHhrXBMWs9P7XzNM+zz1AB40SIh5j4iD69PT3q/sAABbvn1j4+I+fn58/mIlUetTWSAACKHyrKgAARrHX9btv1s2mbzvG7gAAAAAAAAAAAACEgAAAAAAAA1VoPwzzNvb4pLdZccscA+uw7oAAQkAAAAAAAAAAAAAAAAAAAw3D899fa3ZJ7gAAAAAAAAAAAAAAAAAAAAABRc9a4u/R+ZgKTXWlbAHQu1AAAAAAAAAAAAAAAAAAAAAAC00Xr7XeQAAAAAAAAAAAAAAAAAAAAAAxvmiw3vqe7gB5816+G7t1gAAAAAAAAAAAAAAAAAAAAADHvWruIAAAAAAAAAAAAAAAAAAAAAAYdzJROqsvAAp+N6Y3ruQAAAAAAAAAAAAAAAAAAAAAAWD1r6sAAAAAAAAAAAAAAAAAAAAAAWzkigZP1kAAcyYCdL7CAAAAAAAAAAAAAAAAAAAAAAFnXCoAAAAAAAAAAAAAAAAAAAAAAGlNIme9OAAHOWs3t2TVAAAAAAAAAAAAAAAAAAAAAAC2+dx9QAAAAAAAAAAAAAAAAAAAAABzdrcv3XYAByhira/QQAAAAAAAAAAAAAAAAAAAAAAUlNX+oAAAAAAAAAAAAAAAAAAAAAA0DqQdT5kABjnJUV3W90AAAAAAAAAAAAAAAAAAAAAADwpK/7AAAAAAAAAAAAAAAAAAAAAAGBcxi+dV3IAPHlvEPrpfYAAAAAAAAAAAAAAAAAAAAAAAPGlrfsAAAAAAAAAAAAAAAAAAAAAARyXjYu/RmbAFi5xxH66F2kAAAAAAAAAAAAAAAAAAAAAAB50tX9gAAAAAAAAAAAAAAAAAAAAABjXKXgGX7MzW8e/zacU15rn4uHRmegAAAAAAAAAAAAAAAAAAAAAAIR9AAAAAAAAAAAAAAAAAAAAAAAw7me3gATsvfN0AAAAAAAAAAAAAAAAAAAAAAAAAAAAAAAAAAAAAAAAAAAAAAAt2jNXeYB77J3Fk4AAAAAAAAAAAAAAAAAAAAAAAAAAAAAAAAAAAAAAAAAAAAAAAUWvcLx+z09deslzbN6kAAAAAAAAAAAAAAAAAAAAAAAAAAAAAAAAAAAAAAAAAAAAAAAAAAAAAAAAAAAAAAAAAAAAAAAAAAAAAAAAAAAAAAAAAAAAAAAAAAAAAAAAAAAAAAAAAAAAAAAAAAAAAAAAAAAAAAAAAAAAAAAAAAAAAAAAAAAAAAAAAAAAAAAAAAAAAAAAAAAAAAAAAAAAAAAAAAAAAAAAAAAAAAAAAAAAAAAAAAAAAAAAAAAAAAAAAAAAAAAAAAAAAAAAAAAAAAAAAAAAAAAAAAAAAAAAAAAAAAAAAAAAAAAAAAAAAAAAAAAAAAAAAAAAAAAAAAAAAAAAAAAAAAAAAAAAAAAAAAAAAAAAAAAAAAAAAAAAAAAAAAAAAAAAAAAAAAAAAAAAAAAAAAAAAAAAAAAAAAAAAAAAAAAAAAAAAAAAAAAAAAAAAAAAAAAAAAAAAAAAAAAAAAAAAAAAAAAAAAAAAAAAAAAAAAAAAAAAAAAAAAAAAAAAAAAAAAAAAAAAAAAAAAAAAAAAAAAAAAAAAAAAAAAAAAAAAAAAAAAAAAAAAAAAAAAAAAAAAAAAAAAAAAAAAAAAAAAAAAAAAAAAAAAAAAAAAAAAAAAAAAAAAAAAAAAAAAAAAAAAAAAAAAAAAAAAAAAAAAAAAAAAAAAAAAAAAAAAAAAAAAAAAAAAAAAAAAAAAAAAAAAAAAAAAAAAAAAAAAAAAAAAAAAAAAAAAAAAAAAAAAAAAAAAAAAAAAAAAAAAAAAAAAAAAAAAAAAAAAAAAAAAAAAAAAAAAAAAAAAAAAAAAAAAAAAAAAAAAAAAAAAAAAAAAAAAAAAAAAAAAAAAAAAAAAAAAAAAAAAAAAAAAAAAAAAAAAAAAAAAAAAAAAAAAAAAAAAAAAAAAAAAAAAAAAAAAAAAAAAAAAAAAAAAAAAAAAAAAAAAAAAAAAAAAAAAAAAAAAAAAAAAAAAAAAAAAAAAAAAAAAAAAAAAAAAAAAAAAAAAAAAAAAAAAAAAAAAAAAAAAAAAAAAAAAAAAAAAAAAAAAAAAAAAAAAAAAAAAAAAAAAAAAAAAAAAAAAAAAAAAAAAAAAAAAAAAAAAAAAAAAAAAAAAAAAAAAAAAAAAAAAAAAAAAAAAAAAAAAAAAAAAAAAAAAAAAAAAAAAAAAAAAAAAAAAAAAAAAAAAAAAAAAAAAAAAAAAAAAAAAAAAAAAAAAAAAAAAAAAAAAAAAAAAAAAAAAAAAAAAAAAAAAAAAAAAAAAAAAAAAAAAAAAAAAAAAAAAAAAAAAAAAAAAAAAAAAAAAAAAAAAAAAAAAAAAAAAAAAAAAAAAAAAAAAAAAAAAAAAAAAAAAAAAAAAAAAAAAAAAAAAAAAAAAAAAAAAAAAAAAAAAAAAAAAAAAAAAAAAAAAAAAAAAAAAAAAAAAAAAAAAAAAAAAAAAAAAAAAAAAAAAAAAAAAAAAAAAAAAAAAAAAAAAAAAAAAAAAAAAAAAAAAAAAAAAAAAAAAAAAAAAAAAAAAAAAAAAAAAAAAAAAAAAAAAAAAAAAAAAAAAAAAAAAAAAAAAAAAAAAAAAAAAAAAAAAAAAAAAAAAAAAAAAAAAAAAAAAAAAAAAAAAAAAAAAAAAAAAAAAAAAAAAAAAAAAAAAAAAAAAAAAAAAAAAAAAAAAAAAAAAAAAAAAAAAAAAAAAAAAAAAAAAAAAAAAAAAAAAAAAAAAAAAAAAAAAAAAAAAAAAAAAAAAAAAAAAAAAAAAAAAAAAAAAAAAAAAAAAAAAAAAAAAAAAAAAAAAAAAAAAAAAAAAAAAAAAAAAAAAAAAAAAAAAAAAAAAAAAAAAAAAAAAAAAAAAAAAAAAAAAAAAAAAAAAAAAAAAAAAAAAAAAAAAAAAAAAAAAAAAAAAAAAAAAAAAAAAAAAAAAAAAAAAAAAAAAAAAAAAAAAAAAAAAAAAAAAAAAAAAAAAAAAAAAAAAAAAAAAAAAAAAAAAAAAAAAAAAAAAAAAAAAAAAAAAAAAAAAAAAAAAAAAAAAAAAAAAAAAAAAAAAAAAAAAAAAAAAAAAAAAAAAAAAAAAAAAAAAAAAAAAAAAAAAAAAAAAAAAAAAAAAAAAAAAAAAAAAAAAAAAAAAAAAAAAAAAAAAAAAAAAAAAAAAAAAAAAAAAAAAAAAAAAAAAAAAAAAAAAAAAAAAAAAAAAAAAAAAAAAAAAAAAAAAAAAAAAAAAAAAAAAAAAAAAAAAAAAAAAAAAAAAAAAAAAAAAAAAAAAAAAAAAAAAAAAAAAAAAAAAAAAAAAAAAAAAAAAAAAAAAAAAAAAAAAAAAAAAAAAAAAAAAAAAAAAAAAAAAAAAAAAAAAAAAAAAAAAAAAAAAAAAAAAAAAAAAAAAAAAAAAAAAAAAAAAAAAAAAAAAAAAAAAAAAAAAAAAAAAAAAAAAAAAAAAAAAAAAAAAAAAAAAAAAAAAAAAAAAAAAAAAAAAAAAAAAAAAAAAAAAAAAAAAAAAAAAAAAAAAAAAAAAAAAAAAAAAAAAAAAAAAAAAAAAAAAAAAAAAAAAAAAAAAAAAAAAAAAAAAAAAAAAAAAAAAAAAAAAAAAAAAAAAAAAAAAAAAAAAAAAAAAAAAB//EABoBAQEBAAMBAAAAAAAAAAAAAAABAgMEBQb/2gAIAQIQAAAAAAAAAAAAAAAAAAAAAAAAAAAAAAAAAAAAAAAAAAAAAAAAAAAAAAAAAAAAAAAAAAAAAAAAAAAAAAAAAAAAAAAAAAAAAAAAAAAAAAAAAAAAAAAAAAAAAAAAAAAAAAAAAAAAAAAAAAAAAAAAAAAAAAAAAAAAAAAAAAAAAAAAAAAAAAAAAAAAAAAAAAAAAAAAAAAAAAAAAAAAAAAAAAAAAAAAAAAAAAAAAAAAAAAAAAAAAAAAAAAAAAAAAAAAAAAAAAAAAAAAAAAAAAAAAAAAAAAAAAAAAAAAAAAAAAAAAAAAAAAAAAAAAAAAAAAAAAAAAAAAAAAAAAAAAAAAAAAAAAAAAAAAAAAAAAAAAAAAAAAAAAAAAAAAAAAAAAAAAAAAAAAAAAAAAAAAAAAAAAAAAAAAAAAAAAAAAAAAAAAAAAAAAAAAAAAAAAAAAAAAAAAAAAAAAAAAAAAAAAAAAAAAAAAAAAAAAAAAAAAAAAAAAAAAAAAAAAAAAAAAAAAAAAAAAAAAAAAAAAAAAAAAAAAAAAAAAAAAAAAAAAAAAAAAAAAAAAAAAAAAAAAAAAAAAAAAAAAAAAAAAAAAAAAAAAAAAAAAAAAAAAAAAAAAAAAAAAAAAAAAAAAAAAAAAAAAAAAAAAAAAAAAAAAAAAAAAAAAAAAAAAAAAAAAAAAAAAAAJQAAAAAAAAAAAAAAAAAAAAAAAA83vcgAAAAAAAAAAAAAAAAAAAAAAABwfM+p7IAAAAAAAAAAAAAAAAAAAAAAADq/OcXP7/cAAAAAAAAAAAAAAAAAAAAAAAB1vmsTm37/AGgAAAAAAAAAAAAAAAAAAAAAABx/McUct39DzgAAAAAAAAAAAAAAAAAAAAAAHznSRzVy/RbAAAAAAAAAAAAAAAAAAAAAAA8zw4jmp3vcAAAAAAAAAAAAAAAAAAAAAABj5bEJzUe73QAAAAAAAAAAAAAAAAAAAAAA8fyCJzUcv0lAAAAAAAAAAAAAAAAAAAAAAM/LYiJzUr2PRAAAAAAAAAAAAAAAAAAAAAAPN8NEOahy/SAAAAAAAAAAAAAAAAAAAAAAHzvTIjmoPd7gAAAAAAAAAAAAAAAAAAAAAGPlpERzUV3vaAAAAAAAAAAAAAAAAAAAAAA6PgIiObQNfS0AAAAAAAAAAAAAAAAAAAAAHkeShE5tAe92gAAAAAAAAAAAAAAAAAAAAAeB0oiJzaA9X0wAAAAAAAAAAAAAAyAC0CQAWgB8314iJzaA7/sgAAAAAAAAAAAAABEFEDQIhSC0A+XxJCOXQHb90AAAAAAAAAAAAAACRaEg0Bk0JDQB8rJERy6FOx74AAAAAAAAAAAAAAEi0DI0DJoJFoD5WSIjm0B2PfAAAAAAAAAAAAAAAkWgMloZNBItAfL4kRHNoDs+8AAAAAAAAAAAAAABItASGgyaCRaA+c66RE5tAd32gFRakLUgAtJAFRakAFqIAVUQCRaAZLRk0GTQB4nnpETm0Fel6gWkUJNAyBbCmRaJQZAthQkLUUkBItAMloyaIloA87xUSHNoD2u4C0kNCRakDSQaMi0SLUgWyFqIWsi1IEi0AkWjIAtAOL5kkhzaBfotgWyC1ILWRayFqQWpBoyGmQ0kGkgaMhItAJFoyaIg0AfP9RIjm0Dte4AtkDSQWsjSQGjItZC1kWshpIWsgtSCRaASLRk0DJaA6PhEkc9Kev3gFsgaSC1kaSAtZFrIWsi1kNMi1kDSQSLQDJoMmgSGgD5zrpE7FDk+goC2QNJBayNJAWsi1kLWQ0kLZBayBpIJFoBk0GTQGTQB1Pn0idkHr94AtkDSQWsjRkFrItZC1kLSLIFrIGkgkWgJFoZNAZNADxfOkOzB2fcAFsgaSC1kaMgtZFrIWsgtJALUgNMhItAZNAyaBItIUZ+d4JN8+Tfu8oA0kDSQWsi1IGkgtSC1kFuQA0ZC1kJDQGTQGTQMmiBRw/O8c5+bjPZ7YAaMhpILWQ0SFsgWpBayFpBAWmRpkGRVRFoEgtSGhCyh1vA4+1z9d63dAFoSaBloGRaCQNAy0DJaAZC0EgSABaBIAFoJZQOv4Hb7fnev2wAAAAACiAUEUEDQBkFEABBQABBQAADj6nLzcgAAAAAAAAAAC2QLUgAAAAAAAAAAHDnsAAAAAAAAAAALZANMgAAAAAAAAAAOPHOAAAAAAAAAAA0kA0yAAAAAAAAAAAxjmAAAAAAAAAAAaMgakAAAAAAAAAAAZ4+YAAAAAAAAAABaSFsgAAAAAAAAAAAzoAAAAAAAAAAAtAyAAAAAAAAAAAAAAAAAAAAAAACiAAAAAAAAAAAAAAAAAAAAAAAAAAAAAAAAAAAAAAAAAAAAAAAAAAAAAAAAAAAAAAAAAAAAAAAAAAAAAAAAAAAAAAAAAAAAAAAAAAAAAAAAAAAAAAAAAAAAAAAAAAAAAAAAAAAAAAAAAAAAAAAAAAAAAAAAAAAAAAAAAAAAAAAAAAAAAAAAAAAAAAAAAAAAAAAAAAAAAAAAAAAAAAAAAAAAAAAAAAAAAAAAAAAAAAAAAAAAAAAAAAAAAAAAAAAAAAAAAAAAAAAAAAAAAAAAAAAAAAAAAAAAAAAAAAAAAAAAAAAAAAAAAAAAAAAAAAAAAAAAAAAAAAAAAAAAAAAAAAAAAAAAAAAAAAAAAAAAAAAAAAAAAAAAAAAAAAAAAAAAAAAAAAAAAAAAAAAAAAAAAAAAAAAAAAAAAAAAAAAAAAAAAAAAAAAAAAAAAAAAAAAAAAAAAAAAAAAAAAAAAAAAAAAAAAAAAAAAAAAAAAAAAAAAAAAAAAAAAAAAAAAAAAAAAAAAAAAAAAAAAAAAAAAAAAAAAAAAAAAAAAAAAAAAAAAAAAAAAAAAAAAAAAAAAAAAAAAAAAAAAAAAAAAAAAAAAAAAAAAAAAAAAAAAAAAAAAAAAAAAAAAAAAAAAAAAAAAB/8QAGgEBAQEAAwEAAAAAAAAAAAAAAAECBAUGA//aAAgBAxAAAAAAAAAAAAAAAAAAAAAAAAAAAAAAAAAAAAAAAAAAAAAAAAAAAAAAAAAAAAAAAAAAAAAAAAAAAAAAAAAAAAAAAAAAAAAAAAAAAAAAAAAAAAAAAAAAAAAAAAAAAAAAAAAAAAAAAAAAAAAAAAAAAAAAAAAAAAAAAAAAAAAAAAAAAAAAAAAAAAAAAAAAAAAAAAAAAAAAAAAAAAAAAAAAAAAAAAAAAAAAAAAAAAAAAAAAAAAAAAAAAAAAAAAAAAAAAAAAAAAAAAAAAAAAAAAAAAAAAAAAAAAAAAAAAAAAAAAAAAAAAAAAAAAAAAAAAAAAAAAAAAAAAAAAAAAAAAAAAAAAAAAAAAAAAAAAAAAAAAAAAAAAAAAAAAAAAAAAAAAAAAAAAAAAAAAAAAAAAAAAAAAAAAAAAAAAAAAAAAAAAAAAAAAAAAAAAAAAAAAAAAAAAAAAAAAAAAAAAAAAAAAAAAAAAAAAAAAAAAAAAAAAAAAAAAAAAAAAAAAAAAAAAAAAAAAAAAAAAAAAAAAAAAAAAAAAAAAAAAAAAAAAAAAAAAAAAAAAAAAAAAAAAAAAAAAAAAAAAAAAAAAAAAAAAAAAAAAAAAAAAAAAAAAAAAAAAAAAAAAAAAAAAAAAAAAAAAAAAAAAAAAAAAAAAAAAAAAAAAAAAAAAAAAAAAAAAAAAAAAlAAAAAAAAAAAAAAAAAAAAAAAADrub9AAAAAAAAAAAAAAAAAAAAAAAAD4+e5ndgAAAAAAAAAAAAAAAAAAAAAAAON0GMei5gAAAAAAAAAAAAAAAAAAAAAAAOP57L569HygAAAAAAAAAAAAAAAAAAAAAAB8/OfKsT6ek+4AAAAAAAAAAAAAAAAAAAAAAB57h2sH29LsAAAAAAAAAAAAAAAAAAAAAADrOlWsDn9+AAAAAAAAAAAAAAAAAAAAAADHmMKSDv+eAAAAAAAAAAAAAAAAAAAAAAHT9TS3MH29PQAAAAAAAAAAAAAAAAAAAAADPlcqtzKO67MAAAAAAAAAAAAAAAAAAAAAA6zpCqkD7+nAAAAAAAAAAAAAAAAAAAAAAPN8SqWAeg5oAAAAAAAAAAAAAAAAAAAAAGPJqUAdh3oAAAAAAAAAAAAAAAAAAAAAHA8+pQBv1NAAAAAAAAAAAAAAAAAAAAAB03UlUAPRcsAAAAAAAAAAAAAAAAAAAAAHnuCUoA7jtQAAAAAAAAAAAAAA0ACQBoASAB5f4FKBTsO8AAAAAAAAAAAAAACqIKJAVSFEgB5PAqqFOX6AAAAAAAAAAAAAAAC1IDQyBoyLTIB5CUpbYDleiAAAAAAAAAAAAAAAtSAWmQaMhakAeQlKWlDkejAAAAAAAAAAAAAAAtSANEgaMhakAeSwpVtA5XoQAAAAAAAAAAAAAALUgC0yGjIWpAHmOMpTVA53egAAAAAAAAAAAAAAWpADRINGQ0ZAOg65SmqB2nbgAAAAAAAAAAAAAAWpAC1INGSrIAOr6NRWqB3vOAAAAAAAAAAAAAAAtSAFqQaAEgB8fKlK1QPUbAAAAAAAAAAAAAAAtSAFqQaMlUZAPNcRStlHK9AAAAAAAAAAAAAAAAtSAFqQaMg0SAOv8+Uu6DuuwAAAAAAAAAAAAAAAWpADRkNGQWmQDy/HUu6H09LQAAAAAAAAAAAAAAFqQA0ZDRkDRkA4XnFLuh3PYgAAAAAAAAAAAAAAFqQBakDRkDRkAdF1ir9A5PoQAAAAAAAAAAAAAABakAaMg0ZBakKgZ8zx6+u8Vr0P2AAAAAAAAAAAAAAAFqQDRkDRkGjIVA+HmsOVv4He8wAAAAAAAAAAAAAAANCIqpALRItMgsA43nMdj9OA7rngAAAAAAAAAAAAAAC0AJALQAkBZYBx/O9pzeh7rmgAAAAAAAAAAAAAAAAAAAVAAAB8p98aAAAAAAAAAAAAAAAAAAAAAAAAKgAAAAAAAAAAAAAAAAAAAAAAAAqAAAAAAAAAAAAAAAAAAAAAAAABYAAAAAAAAAAAAAAAAAAAAAAAAFgAAAAAAAAAAAAAAAAAAAAAAAAAAAAAAAAAAAAAAAAAAAAAAAAAAAAAAAAAAAAAAAAAAAAAAAAAAAAAAAAAAAAAAAAAAAAAAAAAAAAAAAAAAAAAAAAAAAAAAAAAAAAAAAAAAAAAAAAAAAAAAAAAAAAAAAAAAAAAAAAAAAAAAAAAAAAAAAAAAAAAAAAAAAAAAAAAAAAAAAAAAAAAAAAAAAAAAAAAAAAAAAAAAAAAAAAAAAAAAAAAAAAAAAAAAAAAAAAAAAAAAAAAAAAAAAAAAAAAAAAAAAAAAAAAAAAAAAAAAAAAAAAAAAAAAAAAAAAAAAAAAAAAAAAAAAAAAAAAAAAAAAAAAAAAAAAAAAAAAAAAAAAAAAAAAAAAAAAAAAAAAAAAAAAAAAAAAAAAAAAAAAAAAAAAAAAAAAAAAAAAAAAAAAAAAAAAAAAAAAAAAAAAAAAAAAAAAAAAAAAAAAAAAAAAAAAAAAAAAAAAAAAAAAAAAAAAAAAAAAAAAAAAAAAAAAAAAAAAAAAAAAAAAAAAAAAAAAAAAAAAAAAAAAAAAAAAAAAAAAAAAAAAAAAAAAAAAAAAAAAAAAAAAAAAAAAAAAAAAAAAAAAAAAAAAAAAAAAAAAAAAAAAAAAAAAAAAAAAAAAAAAAAAAAAAAAAAAAAAAAAAAAAAAAAAAAAAAAAAAAAAAAAAAAAAAAAAAAAD/8QAWRAAAQMBAwUKCAgLBgUEAgMAAQIDBAUABhEHIDAxURITISJAQXFygZEUMjNCUmGxshAjNmJzdIKSFRY0NUNTVHCAocEXJGOiwtFFVYOEkyUmRGRQYNDT4P/aAAgBAQABPwD/APwEKJbPh4iKOCy1vg9YxwP8Fl4qoYN5I76TwRwgLG0K1iyFocbQtBBSoAg7Qf4Kn3247LjzisEISVKPRapyVzHpUhfjOLKrXGqokwFRHF8eNq6h/gqvVXEyV+BRlYtIPxih56h/QWc8mvotRKmqmVFiSMSgHBwbUHXZtaHG0OIUFJUAQRzg/wAE5ISCSQAOEk2r96d8DkWAringW9t9SfgV4quj4LjVsOsmmvLAW2CpknnTzp/gmeebZaW44sJQkYqUdQFq9eN2oFTEclEYd6+n4TqPwRZL0WQ1IZUUuNqCkn1i1Iq0aqwG5DXjalo9BX8Ej77UdpbzywhtAxUo2rtfeqbpQjFEZJ4qNvrVn0StSaRLDzRxQrgcb5lJtDqMeoxW5EdzdIWO47CP4InXWmWluurCEIGKlHUBav15yqPFDeKYyDxE+l845x1np+GgV6RR5YWnFbKvKt7RtHrtDlxpsZqRHcC21jEH+h9Y/ggUpKQVEgADEk2vHX1VF0sMKIjIP3ztOcLL8ZXScy71ffo8rHhXHWfjG/6j12iyWJTLb7LgW2sYpI/gfvXX99UuBFXxAcHljzj6Ogc8dXSc27F43KRI3t0lURw8dPoH0hZtxt1tDjawpCwCkjhBB/gdvTXvAWTEjr/vDg4SPMSdC55RfTnXPvMYDohS1/3ZzgQo6m1H+ltf8DdZqrVLhLfVgVngbR6SrSH3ZL7j7yypxaiVE6F3yi+nPuZeTfUIpktfHT5BZ5x6J/gaccQ02txaglCQSSdQAtXau5VJqneENI4rSdg0T3lV9Oeha0LStCilSSCCNYItdivJq8LBZAksjB0bR6Y/gZvlWf8AhrCthePsTo3/ACq9BS6lIpk1mUwrjIPCOZQ5wbQZsefEaksKxQ4nH1g84P8AAvWqmimQHJB4V+K2nao2ddW64txxRUtZKlE85Ojf8qrQ3Or5pszwd5X93fPYhfMf4F70Vf8ACM8pbViwzilHrPOrSP8AlVaK59dNQgCK8vF+OAOsjmP8Ct6qsIFOU2g4PyMUI9Q5zpX/ACqtFSqi9TJ7EtrWhXCPSTzi0WSzLjMvsq3SHEhST0/wJkgDEnAC1fqZqVSedB+KTxGuqNLI8qdHcOsBK10x5fArFbHTzj+BO91T8CphZQcHZPEHqT5x00jyp6Bo2H3I7zTzStyttQUk7CLUqezUqcxLRrWOMNihrH8CV5qmajVXlg4tNfFt9CdNI8qegaS4dXMeYuAtWCH+Fv1LH8CN5Kj+D6U+4k4OL+Lb6VaeR5XsGkadcZdbdbUUrQoKSdhFqXUG6jTospHno4w2K5x/Ahfefv1QbiJPFjp43XVp5PlewaXJ5VQ3Ifpzh4rg3xvpGv8AgPkvojR3n1+K2gqPQLSZDkmQ8+4cVuLKldJ08nyvYNLAmOwZkeU2eO0sKFo77chhp9s4ocQFJPqIx/gOvtN8HpaY6Tx5C8D1U8J5BJ8p2DTXDqXhFNchrXxo6uL1FfwHX1m+EVgsjxI6AjtPCeQSfKDo010aiIFdiqUcG3TvS/t/wGvOJaacdUcEoSVHsGNpD6pEh55fjOLUo9px5BJ8oOjTAkEEHAi1GnCoUuHKx4y2wF9ZPAf4DL3ShFob4B47xDY7eQyfKDo0+T2oYsS4Kj4ig6geo8B/gMv9KxXCig6gpw+wchk+UHRp7qTfA67DUTglxW9K+3/AZeyTv9dl7G8Gx9kchk+UHRp0qUhSVJOBBBBtTpiJlNhyE/pWkqV0/wABS1JQlSicAkEm0p4yJL7x1uOKV3nHkMnxx0cguHO3+irjFXCw6R2K4R/AVXXt4olRexwwZUkdKuDkUnxx0cgyezAzVX2DqeZJHWR/AVfd8N0Qo53Xkp7uNyKT46ejkFAmeBVmA/jgEvJB6FcB/dpVKu+iQWozhSEcCiOc2FZqY/8AkqsK7Ux+n70iwvBU/TT90WF4qiOdv7theOeOZvusLyTQMNw3YXkmgYBtuwvHNAwCG+6wvFOGpLfdb8Yah/h/dsbw1L00fdsa/Uj+lT90WNdqZ/T/AMhY1qp/tB7hb8M1P9pVb8MVL9qVb8MVL9qXb8L1L9qXYVeojVJV3Cya7Uk/pgelINkXjqAPGDauyyL0OefGT2GyLxw18C0rb7MbMT4Lo+LkJJ2Y4HkNRmCHHKx454ED12FYqPPIJ6QLC8FT/WpP2Rb8Yqjtb+7YXinjzW+6wvJNHmN91heSaBgG27C8k0DANt2F5JoGAbbsLxzgMAhvut+Mc/mDfdb8Yqj/AIf3bfjFUdrf3bG8FSPno+7b8YKn+sT90W/GCp/rU/dFvw/VP1w+6Lfh+p/rk/dFheGpDWtB+yLN3kmp8ZttVmbzJAAcjnsNo9Zpi8MVlJ+cLIWhacUKChtBx5PlBdAap7IOtS1HkUrx09HIASCCNYtFeS9EjOg4740hXeMf3ZVKSYsRbnnHio6TYnlLE+ZHw3t9QGzHEWjXkWOCQyFY86bQ58J9OLbgKtmo6atSd+mqQDxWuKOnn5M088yoKbcUk7QcLRLxyG8EyEhxO0cBtClxZKcWnATzjURyXKC6VVaO36DAP3jyKV46ejkN017/AECnKx8VrcfdJH7sqjTFTw2Ev7ncY82Isu7cweItCv5WcotSb1sFXVINnGHm/HaUnpGGiQw8vxGlq6ATYQJp1RnPu2/BdQ/ZXO6xgTf2ZzusqLKTrYc+6bKQtPjJI6RogSCCDgbQ67JZwQ98aj1+MLQ5UaWkFl3E84PARpJN3XFOOLRITwknhG2y7vVFOpKFdBs5Sqg3iVRV9gxsttxHjoUnpGGhDbh1IV3W3h79UvuNi04NaFd1sCNY0LbjjSwtCilQ1EWpldD2DMkhK/NVzHkl9nd8vDJHoIQn+XIpXjp6OQ3EdC7vBB1oeWke392pAIwItKo8B5BKmghW1PAbVKlPQVAnjNq1K/oc+lUxpphDrqApxYBGIx3IziAdYxs9Chr4FR2z2WfoVNIOCVIV802fu04nEtPg7Aq0imzY3lGFYbRwjQNuONLC21FKhqItTa6h0oalEIVqSvmOmUlKhgpII2G1RoLTiC5FASv0RqVYgg4HOpkJqPFbxQC4sBSifXzZim21a0JPSLP0ynKTwxkYnZwWfu3FX5FxaDsPGFpVEnRwVBG+IHOmxBGfRapvmEZ9XG8xR5/UeR3nWV1+pH/GI7uDkUrx09HIcnDqfAJ6FakvpV3j9277CHmVtLAwULOILa1oOtJIPZnNDBpsbEjRzKXBkglTe4X6SeC06hyouKk/GI2jXoKTWlR1JakEqa1BXOmwIIBBxB01ZZSzUHgjxVYKHbnM+Rb6g0FRpcSSkkp3DnMtNpsF+G6W3R0KGo5yVFKgpJwIOINqdOEuIhwnjp4FD18irSyur1BROJMhz28ileOno5Dk2WvdVNsbGz+7irJ3NRletePfnJ8VPRpajRY8hJcRg25tGom0mK/GcLbqCk+3Po9WMZaWXiSyTwH0bA46W8YPhyDtbGc35NHVGhlRWZDKmnRjj/I2mRHIkhbLnNqO0bc678veJm9nxXRh2jkU4lU2Udry/byKV4yejkOTZYTPng/qUn93FbGFSf7PZmp8YdNhqGmlRGJDRbdTjsPOLT6e9CXxhi2rxV59BqYBER9XAfJk+zS3m/LGfov6nNGsWR4qejRV6Fv0TfQOO1w/ZzmXC0624NaVA91gQoAjURyGScZL/wBIr28ileMno5Dk3P8A6rLG2P8A1/dxXBhUnuzNR4yemw07rLT7am3E4oVapU9yC+UHhQfEVnAkEEG1Inmazxji62MFf76S8/5Wx9F/XNTrHTYahoiAoEEcBtJaLMh1v0VEZ0J0mDFO1schkjCS+P8AEV7eRStaOQ5OPzvJ+rn2j93FeG5qTo9SfZmo8dHSOQy4jUiOtpzn1HYbSGHI7y2nBgpJzqfMVDlNujVjgobRZKgpIUk4gjEHR3n/ACtj6L+uanxk9NhqGjryAiouEDAKSk51Kc3NNi7dxyGaMJkobHV+3kUrzO3kOTUY1Scdkb/UP3cV/wDObvVT7M1vx0dI5FXoIkM+ENp47Y4TtGfd+aVxlsE8LeroOjvP+VsfRf1zUeOnpGkvIP78g7WxnQQW4UZHOGxyGro3FVnpw1SHPbyKV5nbyHJqgmbUVbGUe393F4Pzm71U+zNb8ojrDkdVh+CS1oHiK4yc6myfBpjTh8XHBXQdHef8rY+i/qc1Hjo6w0l41YzwNjYzYzJfkNNDzlAWAAAHIb0t73eCpDa9j94Y8ilakchybDcCpu/Rp/dxeD85udVPszWvKI6w5HXYm+wt9CeM1w9mfSH/AAiA0o8JA3KulOivP+WMfRf1Oa35RHWGkqzodqD5GoHcjszbvRvjFylDgTwI6eRX5Z3uvLVzONIV/TkUrUjpPIcnTYRSZjhT48jAdieRSp8CA0XpkpplG1xQTasZVaFCCm6e2ua79xu11q4mu0OLPLYQo4hxA5lJOdUr33bpRIl1JorH6Jvjq7k2mZYKc0SIVMed2KcUEWcyyVgniUyMkdKjZjLJNTgHqQyR8xwi1MysXdkEIksvxDtI3ae9NqfUKdOYD8SW0+g+c2oKw0LjrbaFLcWlCBrUo4AWqWUW61OxQJnhK9jA3dpOWJKT/c6P2uuWGWSs7rE02Lh0qsxlmf3X94o6MPmO2pmVW7MgpEhL8RXz07od6bU+fT5rKX4stp9B85CgrkpIAxNp16rt00nwuqMBQ8xJ3au5NpOVq7kf8nYlSD1QgWfyyq1R6KPtu2Vljq+pFLip7VGzeWSqpwCqVFPQpQtGyzo/+TRj9h20DKtdd/cpdL8broxHem1OqtIqSAuHUGH+osEjs5JOrVHpaN3PnMs7EqVxj2WrOVuCyhbVJhqeXzPO8VFrr19uvUOLPCAl3hQ6jmStObLnQYLW/TJTTDY85agm1RyrXdhEpiNvTF7UjcI71Wl5Yayv8lp8VnrYrscq97fTjf8AitGyvXib8tFiPJ6pTamZX6W4UJn051j56CHBak1ui1ZoOQZrb+1IOCk9KTyVxxtpBW4tKEjWVHAC02/t06fiHail5foMguWmZY6cOCLS33OuoIs7lkqhPxdKjp6VqNm8sVWTrpcU9BWLR8s/7RRfuO2hZWLsvYJfbkxusgKH+W1OvFQaikCDVGHCdaQrBfcdC4601uN24lO7UEpxOGKjzDSkgDE2qF6ruU4kSqqwlQ8xJ3au5NpOVq7jHkI8qQegIFn8sigCI1GH23bLyyVg+JTIo7VGzeWSqjALpUY9ClC0fLMjEeE0Y/YdtAyq3VfCEul+MfnoxHem0Gq0mpIC4dQYfHOEKBPdyK8H5zd6qfZmteVb6w5GpIWlSSMQRgbPtFl9xo60qIzrsvY7+x0LGivP+WM/Rf1Oa15VvrDRy30x47rp80cHrNlEqJJ1k4nMjR3JL6GkDhP8hZhluOyhpA4EjkWUVo+FwH8PGaUjuPIpWpHIbkN71dyPinhW44v+eGmcdaaSVuuJQkc6jgLTb8XUgY79VGlqHmNYue7aflfgNYin0xx4+m8oIFqllLvVNxDclMVGxlOB7zaRKkynC5IfcdWdalqKj/P4MlbZRdCOfTfePwqWlCVKWoJSkYkk4AWr+VGiU0KYp6fDXhsODYPWtWb7XirBUl6Yptk/oWeIjOp1TqFMkJkQpTjDg50H22uhlOj1JbUKr7liUSAh7U25nS5sSCwuRLkNsNJ1rWcBauZWmWStqjR98V+vdGCexNqteCs1hwrnznXdiCcEDoSM6DUJ1PfS/DkuMOp1KQcLXVyrJdKIldwQeaUgYD7YshaHEJWhQUhQBSoHEEHnHIarXaRR299qExDI5k61q6Ei1YyuHjIpEHoef/okWqt6a/VifDai8tPoA7lHcNA2640sLbWpChqUk4EWomUq8dMKEPOiayPMe8bsXa7l/wCg1sJZDvg0nmZd5+qdM/KiRkFciS0ykc61BPttOyh3Rgggz9/WPNZSV2qGWPAFFNpX231/0Tap5QL11HdJXUVMoPmMjexZxxxxZW4tSlHWVHEn4MkI3N3ZqlajMPuj4ajVabSo5kT5SGWxzqPCfUkc5tX8rElwrZozG8p/XujFfYm02oTqg+p+ZJcfcPnLUVZ0eTIivIejvLacScUrQSki10sqawtqJXSMNQlge+LNuNuoQ42oKQoApUDiCDyGtXuoFEBEyYC7+pb47lqvlcqTwU3SoiIqP1i+Ou1RrVWqa93OnPPnYtRI7s8Eggg4EWpN+bzUkpDFQW42P0b3xibUbLBCXuG6pBWyedxnjptS7yUCpIBh1Nhw+juglXcrMKkpBKiABrJtXMoN3qOhYQ+JcnUGmTj3qtKvhVqveGnTpLu5SxKbU00jxEAK0dVr1HozW+VCYhrYnWtXQkWrGV5Yxbo8HD/Gf/okWql6K/VSfDKi6tHoA7lHcNA2660sLbWpCxqUk4EWouUu8dNwQ+6JrPoveN2Ltdu/1ArYSyhzwaSf0LpwJ6qufkFf/ObvVT7M1ryiOsOSXhY3qdu8OBxAPaM6hPb3UmtiwU6K8xxmtepoe3Na8q31ho61PD7gZbVi2jWdqsxppx1xKEJKlK1AWp1PRDawOBcV46v6cjygMb9SGZA/RPjuVyKVqR0nkNDZMai05jVgwgnpIx0d6L60y7gQh1BflLGKGE+1RtLywV53EMQorPeu0zKFe6XiFVRbYPM0Ai0mdNlq3UmU68dq1lXtzsn6Qzc6kDahau9Z+C8l86Pd1BQ8vfpfNHQeH7Wy14r51uvrKX3y3G82O2cEdu3RZOb/ACt2zRqq96oz6vcV8JIAJNry5TabS93HpgTMl6iv9Ei1XrtVrUgvz5S3Vcw1JT1Rorh38forzcCc6VU9ZwB52TZC0OIStCgpKgCkg4gg8400+oQqdFXJmPoZZRrUq15crEuRu41EbMdr9evxz1RaRJkSnlPSHluuK1rWSontPwttOuqCW21LVsSMTZu71ecGKKTLI+hVZ6iVlgYu0yUgbS0qykqSSFJII5jnAkHEWujlMnUwtxKoVyYnM5rcatDmw50VqVEfS604MUrScRoby5SabRpC4kVnwuSg4L4cG0HYTaTlcvK75FmIx0IKrTL73pmYhyrPJB5m8G/ds8+++rdvOrcVtWoqP887JQ2UXSbPpyXT8F6cpcKlFyLTAiVLGIK9bTdqpV6jVpSpM+St5w86jwAbAOYaK4d+3qE+iFNWpdPWe1k7RZDiHG0ONrCkKAUlQOIIPONNV61TqNEVKnPhtHMPOUdiRa8uU+sVQrYgEwovzfKr6TZSipRUokknEk/BHjSJLqWmGVuuK1IQkqJ7BaHk3vbKGJgBgf4ywixySXqw1xOjfbS8m974uP8A6dvwH6pYXaVDlw3S1KjuMr9FaSk/zz41crMQAR6lKbGxLqgLIvxe1AwFbk9pxsq/F7VDA1qR2EC0ur1Wb+VT5Dw2LcKh8FMZU/UoLKRiXJDaR2qA0M+oQadGXJmSEMso1qV7BtNryZV5b4XGoiDHa/Xr8obSJD8l1Tz7y3XFa1rJUT2n4W2nXVblptS1bEgk2bu9XnBiikyyPoVWeolZYGLtMlI6WlWUlSTgoEHYc4Eggg2ullLm04txKspcmJzOa3G7QZsOZFblRX0PNODFC08I014Pzm71U+zNa8q31hyS8ze6YYd3OBCiO/Ohub3LYXscTory/lyPoxms+Vb6w0K1obSVLUEpGsm1SrO+BTMYkJ1Fe3ozIsN+UvctIx2nmFoFOZho4OMs61ckvHF8KoU9sAeT3SdpKOHkUrUjpPIIrJfksMgYlxxKR2nCyUhCUpGoAAdmjyk3OrD9Wcq0Nhchl1CN2hPCpsoFltrbWULQpKhrBGBGguRJjfidSVh9AQ0x8YvEYIIJxBte7KccXIVCX6lS/wD+uzjjjq1OOLUtajipSjiSfgAJOAs3TKk6AW4MhYPotqNnKdUGhi5CfQNqm1DPBIIItk3vcqt08wpTgM2KntcRzKtVqvTaPDVLqEgNNDUNalnYkWvZlDqleK2GCYsHmbB4y+udLkrvWXkfgKYvEoBVFUdg1o0t5b0067kQPSTu3lg7ywDxln+ibV+8dUr8svzXiUjybQ8RsbAPhpVHqNYlpiwI6nnDs1JG1R5hag5K6VCQh2qrMt/nbHFaTZiBAhIDcOIyygcyEBPwz6RSZqCmZAYeB9NAJtWsk9ElBxynOrhu7PHbtX7p1ugOYTYx3onBLyOM2rOule+fduYFIJcirI35j+qdirUuqQqrAYnRHQtpwcG0HYRnupWW1hBwUUnA7DaoRZcObIjy0KS+hwhwK146G4EqHTriwpEp5DTSS6tS1dc2vhlFmVXfIVNUtiFzq1Le0uSu9jhWKFLcxGBMQnvLelvVeqFduEHHePIcB3hnnV6zsFq1XKjW5ipU14rV5qfNQNiR8NzrkzLxOl5ZLEFs4Le51H0UWpNDpNHYDMCIhpPnL1rX1lZlQp9OnsLYmRG30nmWnHtFr25LFxkOTKJuloAxXFUcVjqWIKSQQQQcCDosmNHXULzMSCn4mEN9V1vNGgvNeqnXcib6+rdvr8kwDxlf7C1evFU69LL814kA8RocCED1D4aTRqjWJaYsCOp1w9yRtUeYWoGS2lQwh2qKMt7nQCUtC0eDBhIDcWKywkczaAn4Z9HpM1G5mU9h7roBtWck9FmBblNdXDd5keO3av3UrVAdwmxviycEvI4zas66N8J92pmKMXYiz8cwT/NOxVqZU4VTp7E2E8FtOpxB5wedJ2EaWvHGpu9CfZmteVb6w5JWmsaa96iFZyTgoHYbJOKUnaNDeT8uR9GM1KilQUNYONmryNpA3cY4+o2F5437O53iybyQwAN5csLyQgPJuWTeOEkeTct+MsNI4GXDZd50+ZGPaqzl4ZZ8mhCP5mz8qQ+cXXVK+Fll19wNtIKlHUBaLd4pwVKX9hP9TZtptpAQ2gJSOYclUkKSoEYgjAi06MqJNkx1a2nVJ7jyGVqRyC6Ebwi8ELgxDZLh+yNLVaHR6m3uZ1PYe9ZTxh0G1byQR3AtykSi0r9U9xkdirVigVeivb1UIa2vRVrQrqqGcl55Lam0urCFeMkEgHpHwUK5dfrmC48be2P17vER2bbUrJLRoiUrqUhyW56A4iLRKFRacNzDp0dr1hAx7/hqN2rv1JC/DKawvmCwncq7CLXlyTusoclUR1TqBrjueP8AYNnG3GnFtuIUhaTgpKhgQRzHNptTnUuY3LhPqZeRqULVetVOsyvCZ8lTzmGA5gkbAB8FOpVRqb4YgxHH3NiBjh02pOSKe6EuVSaiOP1TfHXaDk2unDCSuGuSra8smyLu3dYSAzSIifXvSbSLtXcdSQ7SIhx/wk2qeTG6ksKLcdcVe1lX9Da8WS+tUsLfhKE5gegMHQOrYggkEYEZsGbIgTI8uOvcusuBaD6xak1KPVKVDmtHiPtBWGw840d7L0xLuU/fl4OSHMQwz6R2n5otUqlNqkx2ZMeLjzhxJPsGwD4bvUCbX6i3DjD1uOHU2jabUOg06hwkRITWAHCtw+O4rao577DD7K2X2kONrGCkqGIItffJsunIdqVISpcYcLjGtTfrTnXHve/dyoBLhKoL6gH0bPnizbjbraHG1haFpCkqBxBB1HPrt2aFWkgToSVrAwS4OKsdotV8jutdKqHQ0+PYoWrF2a3RVkToK208zg4yD9oZ66hOchtQlyXDGaUVIaKuIkq1kD4I8aRKdS1HZW64rUhCSonutTMl15JgSuSGoaD+sOK+4WjZH6W0B4XU33Vc4bAQLDJXdFKeFElXS7aVkmuwpODbkppXqWDap5HZrYKqdUEPfMdG4NqrRapSH95nxHGVcxI4qug6jnRpL0WQzIZWUuNLC0KHMUnG1Dq7FVpEOe1qeQCU7Fc47Do6/W4lDpj86RqRwIRzrWdSRar1aZV5702W5unHD2JHMkeofDdigP1+sR4DeISTunV+g2NZtDhxoMVmLGaDbLSAlCRzAZ+Uy5SFtO1yntYLTwym0849MZ2Bwxw4PhoV2KzXX0twoqijznVcDaek2uzd6Ld6lphsHdrUd287zrXn3tvTFu5A31eC5LuIYZ2nafULVKpTKnMdlzHi484cST7BsA+G7d3Z14ak3CijAa3XDqbRtNqHQ6dQ4KIkJkJHnrPjuK2qOfJZYkNOMvtIcbWMFIUMQR6wbX3ybLpqHajSgVxdbjGtTedca9713agEOqJgPqAfR6PzxZtxDraHG1BSFpBSoaiDzjSVz85PdAzWvKt9YckqDQ8Akjn3s58c4sMnahPs0N5fy5H0Y5ClSkkFJII5xaPWagxhg8VDYrhtGvKyrASGig7U8Isy8y8jdtuJUNo5LfqEI9bU8nxZCAvtHAeQyvM7eQZN4o8JnS1DgQ2G09Kjjp5kKJMjLjy2EPNL8ZChiLX/ALoIu7Paci4mHJxLYPCUEa05tLpNQq0tEWDHU86rmHMNpPMLXayZ02lhp+pbmXL17nW0iwAAAAwAz8odyW6tHeqMFoCcynFaR+mSM5ttx1aW20KWtRwSlIxJJtdnJY46lEquLLSeaKnx/tm0OBBgMpYhRm2Gk6koGGffjJ+xWGnJ9PZS1PAJUkcAfs42404ttxJStCilSSMCCOY5uR+q79An0taziwsOt9Reiq1Ti0inSJ8tW5aaT2qPMkes2rtbmVypPzpSuMs8VPMhPMkfClKlqSlIJUogADWSbXLu43QKM20Ujwp4Bclfr9HoGiyk3IFPcXV6czhFWfj2h+iV6XVOdkpvSpxKqFKdOKQVRT7UaFxttxCkOIC0qGBSoYgi158lcCaHH6PhFf8A1X6JdpEd6K+6w+2UOtLKVpOsEZ11Mm82qpbl1IqjRDwpRqccFqVRKXR2N5gREMp5yBipXSdZzp8KDUIi4sqMh5petKhja+9wH6CpUyFu3YBPa1nZIKsVw6jTFq8ioPI6F6PKReQ1etrisrxiQiW0bFL85WZkmpKYlGfqa0/Gy3MEdRvQKSlaVJUAUqBBB1EG186AaDXpURIwZV8Yx1FZuThUKqXSYafisKEdxbSwUA42k3Lum8oldFj4n0RuPds1cq6URQLVHYKxzrBX71kNobQENoShIHAAMAM+r1WJR6dInyjg20NXOo8yR6zauVqZW6k/OlKxWs8VPMhPMkfChClrShKSVKIAA1km1zbttUCjtMlIMp3ByQv53o9CdFlIuOKc4urU5rCKs/HtD9Eo8/VOdkpvUXEGhy3OFAKopOznRpK7+cnuzNa8q31hySQMY7w+Yr2Z8X8lj/Rp9mhvJ+XI+jHJGnnWVhbayhQ5wbQbxK4ESh9sf1FkOIWkKQoKSdRHI7/wlPU1iXueMy5geqrkMrzO3kFyYngtAYVhgp9SnDyDK80n8XISudMxOHak5uTOksQLtsyigF+aS4o/NBwSNFlMu8KRXTIZRhHm4uJ2BfnDNyOxIb1Rqb7iAX2Wkb16gvRZV7roZWiuRkYBZCJQHpcy83JnUPAr2wwTxZCVsntGI0WU68v4Rqv4MjL/ALrDJCti3czJlRBU7yNPOIxZhDfldbzNG+wy+y4y8gLbcSUrSdRB4CLXwu27d2svROEsL47C9qDmwJsiBNjzI69y6y4FoPrFqXVWapTYc9g8V9oK6u0aLKgw2ze6UUDDfGmlnNyYXdYqdSfnSmwtmHhuEHUpw6F9lp9lxl5sLQtJStChiCDzWvndtd3q07FGJjucdhW1Bzcmk8xL2wk80hK2T2jEaK99W/A13Z8tJ+M3G9tH57nBYkkkk5lBiJgUOlxMPJRm8R6yMTocr9JS7SoVRQnjRndwvqOZuRqXixV4mxxp3vBGiym3l/CVV/B0dzGLDOB2LdzMmVFFRvEiQ6jFmCnfj19SNG+wzIZdZeQFtuIKVJOog8BBte+7jt3qy9EOJZVx2F7UHNgTpFPmxpkdW5dZcC0n1i1JqbVVp0Sawr4t9oL6u0aOucFSe7M1ryrfWHJHvIudQ58cYMM9RPs0N5Py5H0YzUJ3S0p2kCzdGp7aBiyFnaSeGy6XTEJ/JUW/BFN/ZUWXSaWkcMVP87KodMP6DDoJs7d+nYcAWn7VnbstgEokkdYWeu9Pbx3G5cHqNno0hg4OtKQfWNBCqD8NeKDijnQdRtDmRpLIcaVw+cDrTyKfBTMgSoy/0rZT0bLONqbcW2sYKSopI9Y5BK1o08ZhcmQywjxnFpQOlRwtGYRHjssI8RpAQnoSOQZW0AXYY+uo9hzblLCbo0T6qnRZTKQmbdaQ6lGLkRQeHsVm5IpBbvK+1zOxF/5SDoqpTWqnS50N3xXmlI6CdRs+yth51lwYLbWUqGwpOBzKPKMSrU+SDhvUltfcrQ3rrIolAmzcRvu53DI+evgFlKUtSlKJKicSTzk5mSeAIt3nphHHlvn7rekyj0BFWoDr7KcZELF1v1p89OdkfrG+xZtJcVwtK35rqq16LKz8rD9UazckjaGrtPvYcLktf8gNFlVpKZ13jMSn42E4F/YXwKzaJJMWsU2QDhvclpXcrRZYp24ZpVPTzqW8vs4ozIqAuVHR6TiR3mwAAAGoaG+EAS7sVhnAFXg61getvj5uR1wiuT2+ZUX2K0N7KyKJQJs0H43DcMetxdlKUpRUokknEk5mSiAIt3XZZHHlvn7qOLpMpN3UVSgLfabJkwsXUetHnjOyP1guRJtKWcSyd9a6q9HXPzk70DNa8q31hySQcI7x+Yr2ZyRiQNpsgYJSNg0N5fy5H0YzWfKt9YaFSUqBCgCNhtMocJ0KU18Ur1cINplOlQ1YOo4OZQ4RnxJb0R5LrR4RrG0WiSmpMdLqDwHWNh2civpTTCrCnQOJJSHB08/IJXjJ6NPcSD4RXEvEYojILn2tQ5DlYRhdVv643m3LWE3Son1VGimxESYMqO4OB5paOxQws4goWtB1pJB7MzJasIvfF9bLw/y6O/kQRL21dsDAKe3wfbAVmAkHEWhP77AhuDz2G1feTjoMr1U3UyBS0K4GUF5zrLzbqRxBuxSGAMFeCoJ6V8Y6QgEEEYg2vZSPwNeCoQgCG0ubprqL4wzbgVI069dOWVYIeWWV9Dmiyt/KsfU2s3JN8k/+7d0VWhJl0eosLHlY7ie8ZqSUkEawbRHt3EjOY47tpCu8Y6HKy9u7zoa5mojY7yTmQlbmZFVsdQe46KW0FxJLZ89paT2iyhgojYczI42TW6ivZE9qtDleqm7mwKWhXAy2XnOsvNuvF8Du1R4+oiK2SPWvjaRSQoEEAgjAi166R+Bq/UIIBDaHMW+ovhTm5Pql+D7105RVgh5RZX0OaOv/AJ0d6qPZmteVb6w5JOwTAlK2NnOiILklhG1aRory/lyPoxms+Wa640a0JWkpWkEHWDaq0UsYvR+FHnJ9HPo9QMOSAT8WvgUPYeRX2pomUhTzaCVxTuh1fO5BK8dPRp7iU/wSjb+oceUrdfYHAOQ5WEAXTH1trNuT8kqJ9VRo6u3vVWqLfoSnU9yjmZMjhfGB1Hfc0eVZG5vc8fTjtHNu8vd0GkK2w2fcGgvlP8PvNVX8cUh8tp6G+JmITulJTtIFo6N7jsNDUhtKe4YaXLHTQl+mVJKfHSplf2eEZrDqmH2nk+M2tKh0pONoz6X4zDyfFcbSsfaGOhyufKpH1Jr2qzck3yT/AO7d0RGIItLRvcqQj0XVjuObQXcaFSlqOuGz7g0OVP5YSvoWfdzASCCNYtTnkyIER8anWUL+8AdCvDcqx2Gz+G/O4emr25mRtgp/DUr6JsaG+M81C81Wf5t/UhPVb4gzEJ3S0p2kC0dAajst8yEJT3DS5Y6aEyqbUkDyiFMrPV4wzY7ymH2XkeM2tKx0pONmH0vx2XkanG0rHQoY6Kv/AJzd6qfZmteVb6w5JV1BFNkH0gB3nOore7qTGxJKj2aK8n5cj6MZrPlmuuNLW6YIy9/ZT8Ss/dOfRZnhEJIcVwtcU+vZyFaUrSpCgClQII2g2rNOVTalJinUhfEO1J1aeT5QdGmp0JyfOjRW/GdWE9A5zZllDDLTLYwQ2kJSPUOQ5WfkmfrbWbcn5J0T6qjR3oRuLx1lOyY972Zkz+WMDqu+5o8rqMLzsnbDR7Tm3Y+TtH+ps+7nynAxFfeP6Npa/ujGzi1OOLWo4qUok9JzIQ3UyKNrqPbpsp8ES7pyl+dHWh0Z1z5IeurRXDwqMVCfu8XQ5WwBehr6k37Tm5Jvkn/3bujrCdxVqinZKdHco5t2fk7RvqTPuDQ5WmdxekL5nIjZzbgVMTLpU1W6xWygsq6W9DNWGIEp5XmMrV3DGxOJJPPmZLYaod10ukYKlPLc7BxRoJbwYhyX+Zppa/ujGy1qcWpajiVEk9JzII3U2INryPbpsqEASbpyVhPDGcbdHszrnyA7dajOqPCYqB90YaK8H5zd6qfZmteVR1hyS8ru5htt+m57M67bY32Q8eZISO3RXl/LkfRjNY8s1106V5pt5pxtYxChgbSGFx33Gl60KwzruyN7mKQTwLQe8civ5S9/itVFtHHZ4rnrQdPJ8r2DTZPKZunZNRWPE+La6TrPIsrPyTP1prNuT8k6J9URo75jC9dc+uOZmTP5Y0/qu+5o8sKMLwQvXCHvnNu18nqP9TZ93PvMrwe7dZcB4RDd/mnNiK3MqOrY6g9x01fhplUCqsKHC5FdA7s7J0tS7nUsbAsdyzocrvyoa+pN+05uShe5un/3bujvEnc1+rjZNf8AfObdn5O0b6kx7g0OWWId+o8zmKHGjm5HqwEPz6StXlBvzXSOBWhvzNEG6VUd3WCnG95R0uHDMhxXpktiKyndOPOJQgetRwtTobcCnxITXiR2koHYNBe13ers1leyG77M2EdzMjK2OoP89NeOIiVd+rxh58R3vCcRnZOlldzqTjzJWO5Z0Vf/ADm71U+zNa8ojrDkl5HE+Essp8xGJ6TnUZoM09HF4zhKidFeT8vT9GM1jyzXXT7dNeOLuHWXwMN2MD0jOpzgbnxlc27APbyJ5lt9h1lxO6Q4kpUPUbVSnu02fIiOa21cB9JJ1HTSPKq0rLLj7zbTacVrUEpG0m1Jp7dOp8aIjU2njHao6zyLKz8kz9aazblfJOifVEaO+4wvbW/rSszJl8sYHVd9zR5YhhXKd9S9izm3eWE0CkD/AOmz7uffFG4unW9piLzUq3Kkq2EGzDu+x2HB57aVd4x0rqA40tHMpJHfZ5G9vOo9FRHcc3JsMLnUz/qe+dDld+VLX1Nv2nNyTqAumfrjujvQMLyVr66975zbs/J2jfUmfcGhyj0oz7qylIRi5FUH0nq8Cs2j1N+k1OJPY8dhwKw2jnFqdPiVCBGmxlBbT6AtP+x6NBlgq6d1Ao7R8X4972JzMlV3C/LcrT6PimMUMetzQ32+Sdb+qrzUK3C0q2EGzDocjsrHnoSrvGOleQHGnUHUpBB7RZ1G9uuI9FRHdm5O1bi51L2kOe+dFX/zm71U+zNb8ojrDklSf8ImvucxVgOgcGbHaLz7bQ85QFkpCEpSkYADAaK8n5en6MZrHlmuuNNXmEqpqlJGO4UDj/LOYOD7R2LT7eR36pCJERM5hPxkfgX85GmfOLq9Lk/o3hExypOj4qNwI9azyPKz8k/+7azblfJOh/VEaO/Pyurf1k5mTAY3xgdR33NHljGFapv1P/Wc2gcWg0nH9iZ9wZ96Wd1dmsADEmG77uddiYmRdyjyPSiNjuGGmqSdzUZqdj7g/wA2bclsN3SoqdrG6P2iTocrnyqR9Sa9qs3JJ8lFfXHdHev5S1r64972bdj5O0b6kx7mhcQh1tba0goWkpIPODa81EdodamQF+KheLavSQrhSc3J3fUUR80+a4RBfXwL5mV2SpKkhSSCCMQRqIzqtVIlJp0idKXg20nH1qPMkes2q9TkVWpSp0g/GPuFRGwcwHR8N2buzLwVJEVgENjjPO8zaLU6BGp0JiHFbCGWUBKR/U6G9bG6uxWk6z4I77M67ctEq71If1lURrvA01QTuZ8xOx9wdys25KQ1dKiI2xwr7xJ0VdONTe6E5rfjo6RyOe/4NBdd5yNynpOdduJu3XJChwI4qek6O8n5ePoxms+Wb6401UbH4OlbQ3nRxi+yNq0+3ka0oWhSVAFKgQRtBteGkLpNRcZwO9L47R2pOldOLi+nSRo70qQ0wygqccUEpG0m1JpzdNp8eI3qbTwnao6zyPKyAm6iRtmNZtyvknQ/qiNHfck3srX1lWZku+WML6J73NHlk/PdN+p/6zm0L8yUn6mx7gz5rO/QJzWHCuO4n7ycLEEEg5uTCeH7pMI3WKo7rjR97TVQg1Oedsh33jmAYm1JjiJSKdGAwLUZpB7E6HK38q0/U2vac3JJ8lV/XHfYNHez5TVr6477c26/ybov1Jn3Rosot0lV2miVGbxnRQSkemjnRYggkEYEZt0Moc+ghESSkyYPo+e31LUa81CrLOMCalSuds8VwdhzKzeSi0NkrnS0heHFZTxnFdAte29828coFQLURs/Esf1VtV8N3bs1K8EsMxUYNpI314+IgWoFAgUGAiJDR63HD4zitp0VTZS7TZsceew4nvTYgjNyYzxIujGRusVR3XGj7w01SONRnHbIc945gBJAFqUz4HSKdFHAWozaD2J0Vc/OT3Zmo8dPSOR3glBTrcdJ4EDFXWOa2hTi0oSMVKIAtFjojR22k+aO8850d4/zgPo05rXlW+sNNVVAU+UNrZzqYjd1CMnm3YJ7OHkl5aKKtTilCfj28VMnbtTZSVJJSoEEHAjSLOKldJ0lwKJ49VeTtQx/VXJMrfFuu0B+2N+w5tyvknQ/qiNHfU43srf1teZkt+WMP6J73NHlj/PlN+p/6zm0ZeFFpY/+oz7g0F4IhhVyqRsMN7lOAdGObkcqQRKqlOUryiEvIHrRpVK3KVK2DG0he7kPL9JxR7zmXdgmoV2mRQPKSEY9UHE6LKycb1/9o1m5Ijjdd0bJjnsGjvb8p619cd9ubdX5NUX6kz7ujv8A5PjMW9VqQ3i9rfYT5+1aLKSpKlJUCFA4EHgIIzULWhQUhRSoaiDgRaFfi9cIJDVXfKRzLIc96wyqXv8A2hg9LItOv7eyclSXKq4hJ1hrBv3bLcW4tS1rKlE4lROJPwAEkAWutk2n1Mok1MLixPQ1OuWgU6DTYrcWEwllhGpI9p2k6SvxDCrdTjYYb3JcA6Mc3I5UQmVUqepXjpS8gdXinSrUEoWrYCbPr3b7q/SWo95zLtwTUK9S4oHlJKMeqDidHW/zk/2ezNT4w6bDUOQy5KYzC3Vcw4BtNnHFuuLcWcVKJJObd+ASTKWMAOBH++kvH+cf+mnNb8ojrDTVxzcUx/52Ce8513Gd1NU6dTaP5nPUpKUlSiABrJs/XojRKGEKeV/Kwm110AtQwlPNiLeE3jTwmMlQ6LN11xlQRLiLb9YsxIjyEbppwKGhvxQt4e/CbCMGnT8aB5qtvboxZXjK6To6FSHqxUmYjeISTi4r0UDWbR2Go7DTLSQlttISlI5gOSZX1/8AtyN9dR7is25y8Lp0MD9kRo74EKvTWztmO+3MyWfLCJ9C97ujyxnGvwPqQ99WbRfzPTPqrPuDQZVad4HehT6RgiUyhztHFObdKrfgi8VOmFWDaXQl3qL4psCCARpKy8IlGqclX6OK6ruTm5JaYX66/PKeLEZOHXc0WVc43uc9UZnNyQfJqR9cX7Bo72/KatfXHfbm3SON2KL9Ta9mkvVk+plf3chsCLNI8qkcC+uLV26NdoS1eFxFFoHgfRxmzoGmXnnEttNqcWdSUgknsFqLkzvFUcFyGxCZ2u+P2Itd+4tAoYQ6hjwiSP073CfsjUNNlTp3gl6FvAcWUyhztHFObdGrfgi8VOmFWDYdCXeovim2vhGkrcgQqJVHv1cV1WP2c3JLTS9W5E8jiRGcE9dzR1n85SOkezNFk+KOjkNYn+Evb2g/FN/zO3Np8Jct8J8wcKzsFkJShKUpGAAwA0l4vzifo05qPGT02GlvI4EMssjzlYnszqHHLEHdnW6d12c2dIfbjtKdcOCRZDcurL3bii1GB4BtszFixQA0gJ9Z1m27T6QsCDqNlIQtJStIUNhtLoy2F+EU9ZQsYncY6+i1MqKJoLboCXka0aCQwxIYdZeQFocTgoeo2rlHfpE9cdzEoPC0v0k6KMndyGE7XEjvNnxg+8NjivbokhSlBKQSScABa6lCFIp/xgHhL2CnTs2J5LlgwRQoCNswe4c25i//AGlRPqqNHedW6vHWT/8Ace97MyWfLCL9C97ujywfKKGNkNPvnNpp/wDSqanZFZ90aDK5SPCKLHnoGK4juCuo5nZPbwCrXcjha8ZMTBl3+h0mUeWIV0p3pvlDIHWObk8oyqRdqOVp3L8v49zaArxRosqfyvkjYwz7ubkfON3Zf1xXujR3s+U1a+uO+9m3OON1qJ9Ta0qkpWkpUAQdYPCDa+1yLtCjz6ghhEN9ltSwtHFSo7CPhpOTq9FUZDyIgYbOovq3GNmsj9aIxeqMRv7yrRMjaD+U1kn6Nq0TJbdaHuC6h6Ur/EXgO5NodLpdPTuIMJlhPzEAE8gyt0gyKLFqCE8aI7gvqOZ2T+vpq93I4WvGREAZd7NR0mUiX4HdKbzKfUhlPacTm5PaQaRdqPu0bl+V8e59rxdHV/zlK6+c0cWmztSOQVqpJbSqKyrFZ8orZ6hmx47sl5LTScVKtDhtxGUto6VHadLeH85L6ic0WQcUJPqGlrMrwmcvA4pRxRmwIplSUN4cXWo+qwAAAAwAzlpVValvIJ8HZPGslKUJCUgAAYAC15jx4pGxVmKLLfZQ8lxASoY8JNlUKptJ3aCD1VYG1Jqr4fTFkqJCjgFHWk/BWIq2HEz44wW2Ru/X6zaPITJjtvDzhq2HQV6jM1enlnU+nFTS9h/2Nn2HY7zjLqChxCilSTzEaGlp3VRhj/FTaancTZSdjyx/PRXGu7vriapJRxEH4hJ51elybLDgKRShtlK/knNuN8kaL9WGjrqt1W6qrbMe985mSz5YRPoXvd0eV443lY+po9pzaV+a6f8AVmvdGgqMBmdTpUSQnFD7akEbARaoQX6fOkw304OMOFCuzNuLeU0CtoccURFfG9v/ANFdlkqSoBSSCCMQRo8r9TBep1LQfEBec9icy5N3l1+usMKTjHa+NfPzE83bYAAAAYAaLKavd3xn+pDQ/wAmbkdONCn+qZ/oGjvX8pq19cd97Nuc7/7Ton1RGlvDfGjXeQRId32ThxI6OFXbsteS91WvC8DJc3DCT8WwjxE/BkxunGcj/huY0FqKyIyTqATrXyWpU9ifTpUN8cR9pSD2i1Qgv0+bJhvpwdYcUhQ9Yzbh3k/AFbbW8oiK/g2//RVgoKAKSCCMQRo8sVUSqRTaWg+SSXnOlXAMy493V16vMMqTjHZwdf6o5u2wAAAGjqhxqMv6Q51NfDtPjHHEhOB6U8GnqlWDALLBxc51ejYkkkk4nMYYdkOpaaQVKVanwG4TWA4XFeMrTV041J31BIzojodiMLHOhOkqkwRIxwPxi+BI/rmgFRAAxJtS4PgjHG8ovhX/ALZ09wx4T7mohOCek2orAZgpX57pKj0fBejx4vVVakfm2L1PgqXFrC9zr3xJ7fgWhK0KQoYgjA2u+tbT0uGrzFYj2aG+F3PDmfDoqP7wgcdI89A/qNDQUbqqx/Vuj3C1aRuKtPT/AIyj36G7NAdrM0BWKYzZBdX/AKR6zZpptptDTaAlCAEpA1ADk2WQhEOjN7XXTm3EWkXQox/wPYTo6kvd1Gav0n3D3qzMl6sL4wvo3vc0eVo43ob+ptZtM/NsH6u17o0OVq7RC265Hb4OBqT/AKV52TG+Qfbaoc5zB1Awiuemj0NFIfZix3pD6whppBWtR5gLV+rO1mrzZ7nBvzhKU+igcCR8LbbjriG20lS1qCUpHCSTqAtci7KKBR0NLSPCn8FyV+xHZo8oit1fGrepaB3IGbkaONHqg2Sx7mjvScby1r66972bctWN0aLxv/jjR1CqQKXGVImyUMtDWpXsA5za8mVKbK3cejpMdnUXz5RXR6NnHHHVqW4tS1qOKlKOJJ+HJlUWX7pxmUkFcda21p7d0OTZWrtYLarkdHAcG5I91edkwvmJLTdDnO4PNjCKs+ekeZopUlmJHekPrCGmkFa1HmCRjavVZ2sVeZPcGBecJSn0UjgA+Fppx5xDbaCta1BKUgYkk6gLXJu4m71HQ0oDwp7BchXr9Hs0klW7kPK2rUc67s5LTqo7hwC+FHTpVKShJUogAaybVGtbrFqKSBzr/wBs2JDflubhtPSrmFoUJmG1uWxio+Ms6zp6osLqEkjVu8O7Ou3LCm1xieMjhT0HRypTMVouOHoHOTsFpcp2U8p1w69Q2DNpFLLWEh5PH8xJ5s+8aiKeBtcFooCIrA2IHwXo8eL1VWhV9iPFZZLSyUJwJGFlXlQhB3qOSrao2psV+ZM8KeB3AVuio852D4cS1eB0J88gd+GivhdvelLqUNv4o8LyB5p9LQXZRuqgtXotH+drzt7itSfnpQrvGgpVLk1Sa3Fjp4VcKlcyU85NqXTI1LhtRY44qdZ51K5yeT5Y5TZn0qInW2ytah1zm5O5CXbnUvnKA4juWdFIdSzGfeUcEttqUfsjGziytxaz5yie/MybvJavhTMfO3xPeg6PKdJS/e6YEnyLbTfcM2kSWn6TTXWl7tCozZH3RoZcSPMivxZLYW08goWk7Da9N3JV3qq7DeBLZ4zLnpozW3HGnEONrKVoIKVA4EEc4tcS/wCzV0N0+pupROAwQs6n/wDZWhylXxRI3VFgO4tpP96cHOR5mZk2uYWN7rVQbwc1xWz5o9M6S+MlMm9NZdScQZSx9zi5uRp5PglYa84OtHR1t4P1mpujUuU8rvUc3J+8hdz6QQRihC09yzor3XhF3qOuZve7dUsNspOoqNqvWqnWZRkz5KnV8w1JSNiRzZt2Lzz7uTvCI2C214B1k6li1FyjXYqTaAuSIj36t7g7lWYkxngFNPtuA86VBXs5JKhRpsN+PJbC2XUFC0nnBtei7sq71VdhvAlHjMuemg5rbjjTiHG1lC0KCkqBwII5xa4eUBmrIap9SdS3OHAlZ4A/ocpd8m5RNFgOYsoV/eXB5yh5mZk4uWqMG61UGsHSMYrZ8wemdJPkJixHHCeMRgkes54JBBBtTrwblIblDoc/3s2426kKQsKG0aFSgkEkgDabSK7Ejghr41z1eKLS58mWfjFcXmSNWbAo7sjBbuKG/wCZs0y0wgNtICUjTvOoZaW6s4JSMbOLK1rWdaiT350d9yO8h1s4KSbQ6g1MaDiCAQOMnnB0Musxo+IbwdXs5h02kyn5TpcdXuj/ACGYlKlqCUgknUBamUdLG5ekDFzWlPMnQV1oGmrw4SlaSbQ3d8hx1bW0/Bejx4vVVaBAgLgx1rjoUtSeE2qkUQKhi2kbgkLQObotHdbdYbcR4qkggfDHSH63LcHio1dmiUkKBSoYgjAg2vTdpdOcMuMgmIs/+M7M+6iMVy3NgSm182dzOiu+mzh9058OJImyWo8dsrdcOCQLXeoMeiww2kBTy8C87tOweocnrV46RRGFOzZSUkDitA4uL9QFrwVqRXKtKqD4wLp4qPQQNSc3JtfSNRXHafUFbmK+vdoc5m12adaebS404laFDEKScQdDlCvpBYp79JgvpdkvgoeUg4htGbDlvwpTEphe5dZcStCthScbXYv1Rq6w0gvIjSwnjsLPP8zbobyXupN34zheeS5Kw+LjJOKifnbBabLfmy5Ep9W6decUtZ9ajjm3AygtUdkU2plRigktOgYlq1NqNNqDIdgy2nxtQrHQ3outDvFS1RXQEPJxUy9zoXarUqdSJz0KayW3mz2EbRtBzQSCCDgRqNrq5UpkANxauFyWBgA8PKoFqRW6RVWQ9BmtPDDhAPGT0jNly4cFhUiXIbYaTrWs4C178pjktDsCilbTJ4HJOpa+pmXFyeqUWapWGsE8CmYyveXpL2XzptChPIQ+h2epJDTKTjuT6S7LWpa1LUcVKJJO0nNuFeZu79Z3cgkRZCN7dPo7FWjSYsphD0d9Dra+ELQoKB0N7b206hU2SA+hc1aClllJxUCfOVsAsSSSSeE5twb9s0BD0GelxURxe6QpHCWzal12i1NsLgz2n9oSeMOw6HKZSzMurJLaMVxlpe7E8B0CHHGzihaknaDhZqsVZnydRko6HVCzV7rzsjBFalgfSE2bygXwb1Vh09YJNmcqF729cplfWZTZnK/eNHlY0Rz7Kk2ZyzSdT1Gb+w6RaNlhpBw36mSW+qUrtEyn3QdABkusn/EaNoF4rvTCPBqrGcVsCwD3HSXsuxCvBTVRncEOoGLDvOhdqpS5tJnPQpjRbebOB2EbRtBzQSkggkEHEEWutlTmQQ1FrAVJYGADw8okf1tSK1SaqwHoE1t5JHGAOCk9IPCM2ZNiQWFPy5DbLSdalnAWvflKcmIdg0YraZPAuRqWsbE5lxMnpJZqtYawHjMRle8vRFSU6yBZ2oQmvGkN9+Nn7wRWk7llBdV3C0uY/LXunFatSRqGhaedaUFNuKQdoOFma/UG8N0oOAekLN3nBGDsX7psi8cLAcRabGv01WGK14bNzY3hpvpr+7b8YKejxQtR6LLvO0BxIyifWcLPXhmrBS2lDY9Qxs/KkSDi66pfSc2LBky1bllsn18wtDorEbcqdO+O/wAhpi62nxlpHbY1KntAlclGOwcJs5eGM35JtTh2ngFptSkzMAshKBqQNWgbdcaWFtrKVDnBsxeKc2MHAlwevgNmrysgDdRlDoNkXjgEcYODssLw0301/dsK/TEgALX9234wwW/FQ4s2cvI4AQwwE486jjaTUZkryryiPRHAM2FTZUxQDaME86zqFoVOYhpxSN0s61nQvsh5h1tWpSSLUGSUNvRF8C2lEgHZ8F6PHi9VVqR+bYvUtWoQfhFSU8dvjDaRz2u3LJC4qlfOR/UfBLfEaM48dSRwes2oLRajrfWMVvKx7NG60062tpxAWhYwUDqINry3bdpL2+tAqiLPFVzo+ac66reEJ5fpu+wWvmxu6fHfA8k9gehYzmGHpLzbLLZW4s4JSBiSbXYu0zRo+7cwXLcHHX6PzU8lvPXmrv0lc9xku8dKEIxw3SjaVlfrKxhFgRmPWcXDaffq9U8EO1R1CD5rWDY/y2ccccWVrWpSjrKjiTn0+tVamKxhT32PUhZA7rRMqF7o4AXKaf8ApGx7U2u7lVlTqnBgyqaynf3Ut742sjDHMvblENAqSqexAS+6ltJWtS8AkqtLyq3pexDBYjD5iMT3qtPvNX6jiJdUkOJOtO7IT3DQQbz3gp+HgtUkIA80rKk9yrQcrV5I+AkNRpIG1JQbXOvYLyQJL5iBhbLoQUhW6B+FxaW0LWdSUknstNyv1IlYhU5hrYpwlZtUr9XpqIUHqo4hB8xr4sf5bKUpSipSiSdZOexJkRnA4w8tpY85Cik/ytByh3thYBNSU6NjwC7RMsVWRgJdNjvetBLdmHQ9HZeCcN8bSvDZuhjn3qurTbxQt7kjcPox3l8eMg2r926pQJZYms4A+TdHChY9RzmJD8dwOsOrbWNSkKKSO0Wp+Uq9sEBJmiQkczyQqzOWOpAAPUphfVWU2OWSUBg3RWu102nZV7yyEFDCY8YfMRuj3qtUKtUqm7vs6Y6+vatWOHw0+mzqlJRGhR1vOq1JSPbsFro5OYtJKJlS3EiZrSjW21or33iN3KQJqWUuuKdS22hWok2k5Vb0O4hnwdjqIx96069V4qhiJVWkrHohZSO5NiSTiTnw6lUIC93ElvMHa2sp9lomUm98YYGoB4bHUBVmMsFeR5WFEc7FJtSKkKnR4ExKNxv7KVlOwn4b3V/8W6OZwaS66pxKG0KOAJNpWVu8zuO8txWehBVadfW9E4KS9VXgk+a2Q2P8tlKUpRUokknEk56FrbUFoWpKhqIOBFoN971QQkM1Z8pHmuHfB/mtEyvXjZwD8eK+OqUWjSBJjR306nW0rHqChjnOIQ4hba0hSVJKVA84Nr4Xbfu9V3WCk+DuErjr2o5DS70V+lKBh1F5AHmFW6R3G13MrMeQpDFaaDCv2hvxLNOtPNocaWlaFDFKknEEbQdFeq6lNvHCKJA3D7eO8vgcZH+4tX7t1SgSyxOZIB8m6PEWNoOcxIfjuB1h1baxqUhRSR2i1Pyk3shJCDMEhGx5AVZjLHUkgB2kx19Cymyss0sIwRRmh0um07KveV8FLCY8YbUI3Su9VqhValU3t+nTHX17VqJw+Gn02fU5KI0KMt51XMkfzOwWujk6iUgtzKgUSJutKdbbR/qdFJfTHYceVqSO82eececUtxRJJ5RGpk2RwpaIT6SuAWi0GO1gp9RcV6OoWShKEhKUgAagNNXZhQhEdCuFQxX0WxPJo0GTJPxTZI9I8AtFoLLOCpB3xfo+aLJSEgBIAA5ho6pFeivoqEbWnxx/U2hzWJccLQRj5yecG1ap0mUWd5AIQDuiThrtBS4zDZaUMFJTgfgFInR55ejJBQle6Txhq2WUoJSVKIAAxJNnFrq0sNoxEZs4k7bJSEgJAwAGAGkeZZfZW082laFjBSVcIIteS7T1JdLrQK4ijxV+gdhzaA1vdKjfOxV3m1WhmZTJbAHGU2SnrJ4Rmxoz8p9thhsuOrOCUjWbXZuwzRmd8dwXLWOOvmSPRTybLCFG70PYJg906S57RdvRRUD9rbPccczKIFC+NWx9NHuDSZH2iii1J5epyUAPsJ+GoJwp8xKdZYcA+7pI7Kn5DLKfGcWlA6VHCzLYaZbbGpCQkdgw0FQp0CdEcjS46Hmla0rGNry5JpLBU/RHC83+zuHBY6ptLhy4T62JUdxl1JwKFpKToqfSqlU3gzBiOvr2ITjah5JZKih2syQ0P1DRxX2qtTaRS6Qx4PT4qGW+fDxletR59HlhBFIpewyle5pbnJLN1aKg+N4Kg/e4fhyvjChU765/oOlpeLNIpzRPGTFZB7EDPvDQabXacuFLR623B47atoteS61Vu7KLUtrFon4p9PiL5Fc2+827shLThU9AWrjteh85FokyLMisyYzodadTukKGojRVCFBqMVcWZGQ8yoYbhQx7bXkyTSmFLfojm/N/s6zgsdU2lQ5UN5TMlhxlxOtC0lJ0VOpVSqbwZgxHX17EJxw6Tah5JX1bh6syQ2n9Q0cVdqrU6kUykRxHgRUMo5ykcKuk6zo7yL3DDDQ85RJ7OSoZecOCG1K6BjZuiVBeGLW4HzjhZq7aUgF98n5qRZmmwYwBQyN1tVwnkNQfMiY+4edRA6ByRmDMf8mwtXZaPdyUsbp5aWk95tHo0FgAlJcXtVYAAYAaaVSn4zxk09RSdZbtHrzY+LlNKacHPzWamQljFEhB7bKkR0jFTyB9oWfrMBkYJWXVbE2KKhVSnfRvEfmG2zDDMdsNtJwSNM6y080tt1AWhYwKTqINryXWdpqlSYwUuIT2t9OZEa3mMw16DaR3CybXjpxgVV5ITg078Y30K+GBT5dRkojRWitxXcBtJ5ha7t2otFY5nJKx8Y7/AET6uT3poTF4KSuC86WsVpUlYGJBTb+xuANdbe7GRZGRukedVZR6AgWGSG7rY48uYrtSLHJRdRHnTCfpRYZKLpehJP8A1bLyW3QT+hfP/WNjkqulgSWpP/ls5kpumP2vsds5kiuzhiH5iftg2cyP0LmqMxP3LKyNQOarvp6UA2oGTWHQquxUBUVvqaCtygthPCRhmXoybxrw1ZVQNQXHUpCUrSEBfi2ORuEnxq072MiwyN0wDFVWf+4mxyPUROupS/8AJb+x+gJGKp0zvRY5IbtpBJkzPvJsrJFdsD8omffTb+x+7v7XM+8mxyPUDmmzO9FjkconNUZn+SysjVK82qyu1KbHIzB5q07/AOIWu9RGaDSWKey4VhBUVLIwKlKOJPwqSFJIOoixyO0wKUV1Z/oShIsjI7QeeoS1fcsMkl10eO9MP2xY5KLpoGqX2u2GSi6P6uT/AOW39lN0f1Mj/wApt/ZVdD9TI/8AMbLyVXSHmSf/AC2XkouphwKl9josvI9d8+LMmJ7U2ORulK8Sqyh0oSbUzJXBplUhzDU1vhhwL3stgYkaOo0qmVBneZ0Jp9PMFpxI7bVTJDRpBUuBKeiK9A/GotOyUXmjkmOqPKT8xe5Pcq0q516IvlaNK6UoK/ds5Tqg3jvkJ9OG1tQsWXhrbX3GzcGa6cG4ry+qgm0S5l6JhG9UeR0rTuB/mtAyRVx0gzZTEZPOAS4q1NyX3ZgFKpAdmOD9acEdybMRosVsNRmG2WxqShISP5aXKFdyZW6EhqC3vj7L6VpRt5jZGTO+K/8Ah6R0uosnJVe862GB0vCyMkt6VedDH/VNk5Ibx+dJhj7arf2PVzWqfEH3rf2N1r/mcTuXb+xutf8AM4fcuysj1cGqfE/zWVkhvJzSYZ+2qy8k16k6jEV0OGy8ll8E6orKuh5Nmsm17FPtIcghCFLAUvfEEJFo7KI8dlhHAhpCUJ6EjAfDf2gyq1d1yPDa3yQ28hxAxAxw4DZOTa+Kj+be9xFkZLb4K1xWR0vJsjJNetX7InpdsjJDeMjFUqGPtqNk5Ha5z1GGPvW/sbrX/M4ncu39jda/5nD/AM9lZH66NU+Ge1Vl5Iryp1SIZ+2bLyTXsGoRFdDtl5Lb4J1RGj0PJtTcm15TUoiZkLe4++pLq92k4IsAAABq0EqFFlxnI8tlDrSxgpChiDav5I2VqU7RpO9H9Q7wp7FWqVOl0yc/Clt7h9lWC0448hyX3rVAnikSV/3aSfifmO/7K0lSplNqbO9T4TT42LGOHRstVcklEf3S4Mt6Ir0D8Yi07JReZjExyxKT8xe5Pcq0m596IpO+0aV0pQV+7ZdOqDflIb6OltQsWXhrbV3GzcGa7wNxXl9VBNolzL0TMN6pEgDatO9j/Nan5IK68QZspiMnYCXFWpuS+7UDBchLkxwfrDgjuFmI0aM2G47DbTY1IQkJH8tLUYEaWUb7usU46jhrsu79OTwAu49ay7uwAMQtzvsbtQ/1rlvxZifrnLfixF/XuW/FiN+0Odwsq7cZI/KV9wsLsM/tKu6xuw1+1q+7b8V2/wBqV9yyrsJSCfCjh1bfiuf2r/Lb8V1ftQ+7b8V1/tQ+7YXYV+1D7tk3YGOBlHsTYXYZ55K+4WN3ISBxnHDYUWmIxO8lWzFRsiFDa8SO2D0WAA5I5QadulH4zE8OG6sug04HABz71vxcp3+L9634t0/a796yrtweZbnfY3ZifrnLfixG/XuW/Fdj9pX3C34rtftSvu2N1xzSj2psbrr5pQ+7b8V3v2lH3bfiu/8AtKO42/FeR+0N9xt+K8j9pR3Gxuy4nxpSfu2TddHnSj2Jt+LkNAxU64qwotOa1s7o+smzcWM34jKE9A5G9HYeGDrSV9Is9QKbhiAtPQqxu/ARrU4o9NmqfBjn4plOI848J5CpKVAhSQQRgQRiCLXkugWC5LpyCprWtrnT60+r4Kcx4ROitek4nHoHCbCyRa8NFFVg7lGAkNYqaPtT22cbcaWttxBQtJIUkjAgi1EoE+sv7hhO5aB47qvFTaj0SDR4+8xkcY+O4fGWf/1Mtt+gO6wAGof/AJYkAYm17MpkWBu4dI3D8nUp7W2i0uXJmyXZMl5Trzqt0tatZNkpUpQSkEknAAWpOTe89SQHVRxFaPnPncn7tmMjCsPj619xqxyMsc1Yc7WhY5GE81aPazZ3IzLAJRWWu1o2fyP19HkpsRz7ybScmN72NUNt76N0WmXYvFCx8IpMpAHPvZI7xZSVJJSoEEcxz0LW2tK0KKVJIKSOYi126yKtQafPxxcdbwcGxaeBXIC236A7rAAah/8Au14bosTyuTASGnySVI1JX/sbXdp77VTfL7SkKjpIKVDAhSrJFk2Tabdql1d5DslkhaSMVoO5KhsNo0ZiKyhmO0lttAwSlIwH7iqjUoNLiOSpr6Wmkc59g2m17coc+tFyJC3caDzjz3ev8FFodRrcxMWCyVq1qVqSgbVG11rjUu76UukCRN531DxeoNDUKJRqghQmU9h7YVIBV32rGSOkyQpdLkLiuegvjt2rt2KzQXtxOjEIJ4jqeM2roOdkhmKeotQhk+RkhSehwfuIqLIS6lYHjDA9lhZIskWaRuEAd/7irzXqpt3Ym+SFbt5fkmEnjL/2Fq/eSp1+WX5jvFHk2h4jY9Q+C79Bm16pNwoow53HDqbRzqNqJQqfQ4CIcNvAa1rPjOK9JWklxIkyM7GksIdaWMFIWMQRa/VyXbuyQ/H3S4DysEE621egrNyMKPhFaT8xn9xFTbC4xPOk4iyRZItHRunUD9xV774RLuRMBg7NdHxLP+tdqhUZlSluy5jynXnDiVH2D4NdrkXcRQaI0laAJcgBx9XsR2aas06LVaXKgPpG9vNkesHmI9YNpkV2FLkRXhg4y4pCulJwzMjDBwrL3MSyj9xChukqTtGFgLJFoYxdHR+4mt1ZijUqVUH/ABWk8CedajwBItVKnLqs9+bLc3brqsTsGwD1D4bmQEVC89JjrGKN/C19DfH5BlMiJjXvnFOp5KHe8ZmSuGIl1w+Rx5T619g4n7iXU7l5wfONki0PAKUSOb9xOWCpELptKQrgAL7nsTmZNFhF8Kf1XfcPIMrKwb2dEVr4Y0d2VIZjtJ3Tjq0oQNpUcBamQ0U+mQoLfAhhlCOkgfuJlJwfX67JFoZCVKP7icqpWb3PY80doDMuvPFOvDSpajgluQjddVXFPIL71AVC9FUeScUJd3tPQ2Nx8OSqgeF1VdVfT8TD8n63T+4qeBv+Pqsm0U7kk/uJywQ96rkKVzPxsO1s5twLyprNAQ245jKigNOj2L01764ig0KTKJweWC2wNq1WJKiSTiScSfgplOlVOdHhRUbp15YSke0n1C1DpEei0uLAY4UtJ4yvTWdaj+4qoD41HRZItGIBUf3E5UKIZ12i+2nFyE5vv2NSs271fm0CptTopxI4FoOpxB1pNqHXabXKciXDdxSeBaPPQr0VaSXLjQYzsqS8lplpOK1q1C1871P3kqhewKIrWKWG9g2n1n4EIWtaUISVKUQAAMSSeYWuDc8UCJ4XLQPD30cb/BR6H7i5qQlSALJtHIBJ/cS62260404kKQtJSoHnB4CLXroDtArUiGQS1ju2F+k2c2i12p0OYmVAfKF+cnWlY2KFrr5RaNWUtMPrEOX6CzxFdVWird6aLQGiuc+C55jCOFxVr03xqV4nsHDvURCsW2E+1W0/AhC3FpQhJUpRASkDEkm1w7hilBup1JAM0jFprmZx/wBf7jJqUp3sD142SLMaz+4q+l0mbxUrek4Jls4qjr9qT6jaVFkQ5DsaQ0pt5pRStChgQRnUW/V5KMlLbE0uMj9E7x02peWGFwJn0xxs862lBYtDyj3Qlf8AEg0djqFItFvFd54je6vEUfpU2RU6Ur/iMbsdTZVZoiEbpyqRAPpk2fvrdKKMV1pgkegSv3bTcrVAjj+6R5ElfQG02rGVG8U8FuKUQmtjXCv7xs66684px1xS1qOJUo4k9JPwUylT6rLRFhR1Ouq5hqA2k8wtdC4cKgBMmQUyJ/p+a36kfuNUlKtYsY3ODZCSD+4u+txod42y8yQzUEDiOcyx6K7VOlVCky1xZ0ZbLqeY842g840wBJAAxJtdrJnVapuJFQxhRTtHxq+gWpFDplGiiPAjpbT5ytalnao/wOVmi0qtxVR58YOjzValJO1JtePJXV4C1O0smax6Gp1NnmXmHFNvNqbWk4FKgQR0g6KPGkynUtR2FuuHUlCSo9wtQ8lVenlK5xTBZ+dxnPu2odyaBQMFMMb7J/Xu8Zf8EFVolHqqSmdBZf8AnKTxuwi1RyP0d4lUKY/GOxWDibSskV4W8TGlRXx0lBs/k7vgxjjSlLA50LQqzt1rwtEhdLfFhQayTgKe9j1bMXQvNI8lSX1WjZM73v64KGuu4kWh5HqioAzKmw1tDaSu1PyUXZh4Lkl+UR6atynuTaHTqfAaDcSGywgcyEBPf/8AziL/AP/EADMRAAECBQIDBwMDBQEAAAAAAAECEQADECAwBDESITIFE0BRYHBxIkGBUFJhNGKRsLGh/9oACAECAQE/AP8AftEgM59lu0p3AmUlJ+oqB/xEmYJstKx9x7KT9RLkI4ln4H3MTpy50wrVHZ0/hUZSjyVt8+yeq1SNOhzzUdhE2auasrWXNAWIIjSaoTkMesbj2R1OpTIQ55qOwiZMXMWVrLk2IWpCgpJYiNNqUz0eShuPY+bNRKllathE6cudMK1fgeV0uYuWsKSWIjTz0z0cQ3+49jtbqe/mMOhO1o2FZE5UmYFD8jzhC0zEBSS4PsZ2jqOBHdJPNW/xcNhZotR3a+BR+lX/AIfYuZMTLQpatgImTFTFqWrcm4bC3Qz+9l8Kj9SfYrtKc5TKB25qvGwtkTTKmpWPzCSFAEbH2IWsIQpR2AeFrK1qWdyXvGwu7PncSDLO6dvj2I7Sm8MtMsbqPP4GBOwukTDKmoX5HnAL+w+tmd5qF+SeQwJ2F+im8cgA7p5ew0xYRLWvyBMEklzgTsL9BM4ZxT9lD2G7QXw6cj9xAwp6RehRQtKh9i8AggEbH2F7TV9UtP8ABOFOwwaNfHp0fxy9hdep9SoeQAwp6Rg7OVymJ+D6deHveHwGrw8Pa8Pk1RfUTT/dhT0jB2eWnKHmn000Na0NDQ1r3tDWNDQ0NYDiml5qz5qOFPSMGiLalH59OGoubwbZVbn5wp6Rg0n9RL+fThqMBGI4DUYVbnCnpGDS/wBRL+fThqMguOA1GGaGmLHko4UdIwaMPqZf59OGownCcBqMOrTw6maP5f8AzhR0jBoA8/4ScLQatDQ0NY0NDQ2NoaGhobC0NVoajY2hoaGhsTQ0NDQ0NgNRlGU5O0UNOCvNOFHSMHZyecxXwLhYYa452o8PD4B4NqPDw9xveHsIvNRiNRgerw9Gx9pIeUlf7T/3CjpGDQpaQ/7iTe9j4Hq9TgOR7Xo8PU3ChsFXh8YNTcajEai04nxT5feSlo8xhR0jBLRwISnyGAUNoqbReKG4VNoqbR4E3m4YDUYjUY2hrHxa2V3c9XkrmMCOkX6SXxz0+SeZwihwG0YTmGAXjEbBhFTaajEajwIw6+TxyeIbo5/jAnpF+hl8MsrO6sIocBtGE3i8YBeMwyG01GI1GY5dTJMmcU/bcXjYXSpZmTEpH3gAAADYYRQ4DaMJvF4wDEbBQ2jIbTUfpGskd9K5dSeYvG12ik8KDMO6tvjEKHAbRhN4vGAYBVoaGo9wqcJtNRhNR43X6fgV3iR9Kt/4No5m7TSTNmf2jfGKHAbReMIobRgGF6vDw94qcJtNRjHgDUY1oStJSoODGokKkzCk7fY2Sw81A/uEKDKV82IQpaglIcmJMoSkBI/JxihwG0XipwG0VNowt4UUNxqP0I0F0+SmcgpV+D5RNlrlLKFBiK6YPPl/MTg0xfzUAksI0un7pLq6zmOA2jAKtYBQm4VNowCxoaGhvFvD1eHq2B7Xq+E4dTp0T0MeShsYmS1y1FKgxFNEHnP5AxqUssHzFdLpeBlr6v8AmMXHwj2NV/0tqPccjYDjaG8DqNOieljyI2MTpK5K+FYjQJ61fAifL40ctxzEJSpSgkBzGn0olfUrmr/mV7Hsex6vkeHh4fA8PDw8PD1eHh4eHh8Dw+R4eHh8TQ0NDQ0NDZ2hoaGhobw02UiakpWHES5IkjgBfnREtKXIAc7n0O9z1PoSYOYMJHMehRQ4j6EmbCEdQ9Dn0cvphG49CjGfQq+kwnqHoUWNY1CfQ/CH9DPe/si8PDw/+7o//8QANREAAQIDBAgDCAIDAAAAAAAAAQIDAAQRECEwMQUSIEBRYHBxEyJBMlBSYYGRobE0YoCwwP/aAAgBAwEBPwD/AH7RIFKnotpB3UQgA+bWr9oZdDraVj1HRR59DKdZR7DjDzqnVqWqNGzGqstKNysu/ROZmUMJ4qOQhxxbqipZqbASCCIk5oPoobljMdEZmYSwipvJyELWpxZUo1J2ELUhQUk0IiVmkvo4LGY6HuupaQVqyEPPLecK1bTbi21haTQiJeYS+3rDP1HQ6cmfGcoD5E5YDD6mHApP1HEQ24lxCVpNQehmkJjUT4STerPthSEz4S9RR8ivwehbjiW0KWrICHHFOLUtWZOHITHit6qj5k/kdCtJPVKWgcr1YjDxZdSsfXtCVBQBBqCOhC1hCFKOQFYWsuLUs5k4ujXtZBaOabx26EaTd1W0tjNRv7DGl3S08hfA39oBBFR0HnnPEmF8E+UfTHkHfEYAOabugzqw22tfAEwTU1x9HOarxR6LH5HQbSK9WXI+Igbg2soWlQ9CDAIIBGR6C6VX5mkfIncZJevLI4i77dBdIqrNKHAAbjoxdzqex5lpFNypFMSbNZl4/wBiNx0aaPqHFPLVYrs1isViuzTbrFdisVisV2CMJ01dcPFR3GRNJpHzry4LT7mV7R77jJ/yWu/LgtOADuQtOCr2j33GT/ktd+XBacQ4wtOC6KOuDgo4IwJIVmW/ry4LTgjcRacGcTqzTo+dfvgjA0emsxXgk8uC04pxRiaTRR8K+JOCMDRib3VfIDlwWnCFp2RtUillcPSjdWkL+FX7wRgaPRqy9fiJPLgtOELTsjBpFMJ9vxWXEcRgjbAJhpGo2hPAAcuC04QtOHWK40814UwrgrzDAG3JN+I+ngm88ui04QtO4nB0iz4jOsBei/6YAy29HtarRWc1focui04Q3EYhFYmmCw8pPpmnttjaZaLriUD1MJASABkBy6LT7onpfxmrh503jFkGNRBcIvVl25eFpwRad90hLeGvxUjyqz+R2QKkCDcTsyrBecFfZF55fFpwzuAtOGtCVpKVCoMTMuphwpOXoeI2GBV9ocViHBRxY4KOwhClqCUipMMMpZbCR9TxPL4tPuQ7Uwwh9soV9DwMOtLaWULF4tkk60013r9omk6sw6P7E/e0CpAESksGU6yvbP45gGxSKW0iltcCmzS2m5TMsh9FDcoZGHG1tLKFihFmjE1ma/CkxpFFHgr4h+rZOU8MBax5/QcOXxiVwBh1iu4zMsh9FDcRkYeZcZXqrEaKRc6vsInGC81cPMm8QlClKCQCTwiVk0teZV6/1zJWKxWKxXcKxWKxWK7s6y28gpWKiJZgMNagNbya2BCAoqCQCcz/AIVD/hjP/9k=;" parent="1" vertex="1">
          <mxGeometry x="755" y="2150" width="84" height="52.5" as="geometry" />
        </mxCell>
        <mxCell id="EjAZbper3AnYCD3PskdR-101" value="" style="html=1;rounded=0;strokeColor=#001DBC;strokeWidth=2;fillColor=#0050ef;exitX=0.5;exitY=1;exitDx=0;exitDy=0;entryX=0.382;entryY=0;entryDx=0;entryDy=0;entryPerimeter=0;" parent="1" source="EjAZbper3AnYCD3PskdR-97" target="EjAZbper3AnYCD3PskdR-83" edge="1">
          <mxGeometry width="50" height="50" relative="1" as="geometry">
            <mxPoint x="497.5" y="2424.5" as="sourcePoint" />
            <mxPoint x="1247" y="2291" as="targetPoint" />
          </mxGeometry>
        </mxCell>
        <mxCell id="EjAZbper3AnYCD3PskdR-102" value="" style="html=1;rounded=0;strokeColor=#001DBC;strokeWidth=2;fillColor=#0050ef;exitX=0.606;exitY=1.019;exitDx=0;exitDy=0;exitPerimeter=0;entryX=0;entryY=0.5;entryDx=0;entryDy=0;" parent="1" source="EjAZbper3AnYCD3PskdR-95" edge="1">
          <mxGeometry width="50" height="50" relative="1" as="geometry">
            <mxPoint x="315" y="2380" as="sourcePoint" />
            <mxPoint x="801" y="2147" as="targetPoint" />
          </mxGeometry>
        </mxCell>
        <mxCell id="EjAZbper3AnYCD3PskdR-103" value="" style="html=1;rounded=0;strokeColor=#001DBC;strokeWidth=2;fillColor=#0050ef;entryX=0;entryY=0.5;entryDx=0;entryDy=0;exitX=1;exitY=0;exitDx=0;exitDy=0;" parent="1" source="EjAZbper3AnYCD3PskdR-96" edge="1">
          <mxGeometry width="50" height="50" relative="1" as="geometry">
            <mxPoint x="1142.5" y="2309.931506849315" as="sourcePoint" />
            <mxPoint x="811" y="2207" as="targetPoint" />
          </mxGeometry>
        </mxCell>
        <mxCell id="EjAZbper3AnYCD3PskdR-104" value="" style="fillColor=#CC4125;strokeColor=#660000" parent="1" vertex="1">
          <mxGeometry x="90" y="-1210" width="10" height="130" as="geometry" />
        </mxCell>
        <mxCell id="EjAZbper3AnYCD3PskdR-105" value="Browser" style="shadow=1;fillColor=#A2C4C9;strokeColor=none" parent="1" vertex="1">
          <mxGeometry x="40" y="-1310" width="105" height="50" as="geometry" />
        </mxCell>
        <mxCell id="EjAZbper3AnYCD3PskdR-106" value="SSPM&#xa;USAS16V0021" style="shadow=1;fillColor=#A2C4C9;strokeColor=none" parent="1" vertex="1">
          <mxGeometry x="310" y="-1310" width="105" height="50" as="geometry" />
        </mxCell>
        <mxCell id="EjAZbper3AnYCD3PskdR-107" value="SSPM&#xa;USAS16V0022" style="shadow=1;fillColor=#A2C4C9;strokeColor=none" parent="1" vertex="1">
          <mxGeometry x="468.28395061728384" y="-1310" width="105" height="50" as="geometry" />
        </mxCell>
        <mxCell id="EjAZbper3AnYCD3PskdR-108" value="Auth module&#xa;USAS16V0021" style="shadow=1;fillColor=#A2C4C9;strokeColor=none" parent="1" vertex="1">
          <mxGeometry x="630.5" y="-1310" width="105" height="50" as="geometry" />
        </mxCell>
        <mxCell id="EjAZbper3AnYCD3PskdR-109" value="Auth Module&#xa;USAS16V0022" style="shadow=1;fillColor=#A2C4C9;strokeColor=none" parent="1" vertex="1">
          <mxGeometry x="787.5" y="-1310" width="105" height="50" as="geometry" />
        </mxCell>
        <mxCell id="EjAZbper3AnYCD3PskdR-110" value="Mongo DB" style="shadow=1;fillColor=#A2C4C9;strokeColor=none" parent="1" vertex="1">
          <mxGeometry x="942.5" y="-1310" width="105" height="50" as="geometry" />
        </mxCell>
        <mxCell id="EjAZbper3AnYCD3PskdR-111" value="" style="edgeStyle=elbowEdgeStyle;elbow=horizontal;endArrow=none;dashed=1" parent="1" source="EjAZbper3AnYCD3PskdR-105" target="EjAZbper3AnYCD3PskdR-104" edge="1">
          <mxGeometry x="230.00000000000003" y="310" width="100" height="100" as="geometry">
            <mxPoint x="220" y="-960" as="sourcePoint" />
            <mxPoint x="320" y="-1060" as="targetPoint" />
          </mxGeometry>
        </mxCell>
        <mxCell id="EjAZbper3AnYCD3PskdR-112" value="" style="fillColor=#CC4125;strokeColor=#660000" parent="1" vertex="1">
          <mxGeometry x="90" y="-1090" width="10" height="760" as="geometry" />
        </mxCell>
        <mxCell id="EjAZbper3AnYCD3PskdR-113" value="Session Identification Using Cookiee" style="rounded=1;fontStyle=1;fillColor=#FFD966;strokeColor=none" parent="1" vertex="1">
          <mxGeometry x="-160" y="-1390" width="230" height="30" as="geometry" />
        </mxCell>
        <mxCell id="EjAZbper3AnYCD3PskdR-114" value="Wynsure" style="shadow=1;fillColor=#A2C4C9;strokeColor=none" parent="1" vertex="1">
          <mxGeometry x="1110" y="-1310" width="105" height="50" as="geometry" />
        </mxCell>
        <mxCell id="EjAZbper3AnYCD3PskdR-115" value="" style="edgeStyle=elbowEdgeStyle;elbow=horizontal;endArrow=none;dashed=1" parent="1" source="EjAZbper3AnYCD3PskdR-122" edge="1">
          <mxGeometry x="230.00000000000003" y="310" width="100" height="100" as="geometry">
            <mxPoint x="360" y="-1255" as="sourcePoint" />
            <mxPoint x="360" y="-476.47058823529414" as="targetPoint" />
          </mxGeometry>
        </mxCell>
        <mxCell id="EjAZbper3AnYCD3PskdR-116" value="" style="edgeStyle=elbowEdgeStyle;elbow=horizontal;endArrow=none;dashed=1" parent="1" source="EjAZbper3AnYCD3PskdR-143" edge="1">
          <mxGeometry x="230.00000000000003" y="310" width="100" height="100" as="geometry">
            <mxPoint x="840" y="-1255" as="sourcePoint" />
            <mxPoint x="840" y="-476.47058823529414" as="targetPoint" />
          </mxGeometry>
        </mxCell>
        <mxCell id="EjAZbper3AnYCD3PskdR-117" value="" style="edgeStyle=elbowEdgeStyle;elbow=horizontal;endArrow=none;dashed=1" parent="1" edge="1">
          <mxGeometry x="230.00000000000003" y="310" width="100" height="100" as="geometry">
            <mxPoint x="1000" y="-1255" as="sourcePoint" />
            <mxPoint x="1000" y="-476.47058823529414" as="targetPoint" />
          </mxGeometry>
        </mxCell>
        <mxCell id="EjAZbper3AnYCD3PskdR-118" value="" style="edgeStyle=elbowEdgeStyle;elbow=horizontal;endArrow=none;dashed=1;entryX=0;entryY=0;entryDx=0;entryDy=5;entryPerimeter=0;" parent="1" target="EjAZbper3AnYCD3PskdR-153" edge="1">
          <mxGeometry x="230.00000000000003" y="310" width="100" height="100" as="geometry">
            <mxPoint x="1163" y="-1255" as="sourcePoint" />
            <mxPoint x="1163" y="-450" as="targetPoint" />
          </mxGeometry>
        </mxCell>
        <mxCell id="EjAZbper3AnYCD3PskdR-119" value="After login Session ID for that&#xa;user session is available in the&#xa;Mongo DB, currently user land to &#xa;Home page" style="shape=note;align=left" parent="1" vertex="1">
          <mxGeometry x="122.28" y="-1240" width="187.72" height="110" as="geometry" />
        </mxCell>
        <mxCell id="EjAZbper3AnYCD3PskdR-120" value="&lt;b&gt;&lt;font style=&quot;font-size: 11px;&quot; color=&quot;#cc4125&quot;&gt;User1&lt;/font&gt;&lt;/b&gt; v1/welcome API(with session ID as cookiee)" style="html=1;verticalAlign=bottom;endArrow=block;curved=0;rounded=0;exitX=1.476;exitY=0.015;exitDx=0;exitDy=0;exitPerimeter=0;" parent="1" source="EjAZbper3AnYCD3PskdR-112" edge="1">
          <mxGeometry x="-0.0023" relative="1" as="geometry">
            <mxPoint x="140" y="-1080" as="sourcePoint" />
            <mxPoint x="356" y="-1081" as="targetPoint" />
            <mxPoint as="offset" />
          </mxGeometry>
        </mxCell>
        <mxCell id="EjAZbper3AnYCD3PskdR-121" value="" style="edgeStyle=elbowEdgeStyle;elbow=horizontal;endArrow=none;dashed=1" parent="1" target="EjAZbper3AnYCD3PskdR-122" edge="1">
          <mxGeometry x="230.00000000000003" y="310" width="100" height="100" as="geometry">
            <mxPoint x="360" y="-1255" as="sourcePoint" />
            <mxPoint x="360" y="-476.47058823529414" as="targetPoint" />
          </mxGeometry>
        </mxCell>
        <mxCell id="EjAZbper3AnYCD3PskdR-122" value="" style="html=1;points=[[0,0,0,0,5],[0,1,0,0,-5],[1,0,0,0,5],[1,1,0,0,-5]];perimeter=orthogonalPerimeter;outlineConnect=0;targetShapes=umlLifeline;portConstraint=eastwest;newEdgeStyle={&quot;curved&quot;:0,&quot;rounded&quot;:0};fillColor=#CC4125;" parent="1" vertex="1">
          <mxGeometry x="355.5" y="-1086" width="10" height="206" as="geometry" />
        </mxCell>
        <mxCell id="EjAZbper3AnYCD3PskdR-123" value="" style="html=1;points=[[0,0,0,0,5],[0,1,0,0,-5],[1,0,0,0,5],[1,1,0,0,-5]];perimeter=orthogonalPerimeter;outlineConnect=0;targetShapes=umlLifeline;portConstraint=eastwest;newEdgeStyle={&quot;curved&quot;:0,&quot;rounded&quot;:0};fillColor=#CC4125;" parent="1" vertex="1">
          <mxGeometry x="675" y="-1085" width="10" height="80" as="geometry" />
        </mxCell>
        <mxCell id="EjAZbper3AnYCD3PskdR-124" value="Verify session&amp;nbsp;" style="html=1;verticalAlign=bottom;endArrow=block;curved=0;rounded=0;exitX=1;exitY=0;exitDx=0;exitDy=5;exitPerimeter=0;" parent="1" source="EjAZbper3AnYCD3PskdR-122" target="EjAZbper3AnYCD3PskdR-123" edge="1">
          <mxGeometry relative="1" as="geometry">
            <mxPoint x="370" y="-1080" as="sourcePoint" />
            <mxPoint x="670" y="-1080" as="targetPoint" />
          </mxGeometry>
        </mxCell>
        <mxCell id="EjAZbper3AnYCD3PskdR-125" value="Session Available" style="html=1;verticalAlign=bottom;endArrow=open;dashed=1;endSize=8;curved=0;rounded=0;exitX=0;exitY=1;exitDx=0;exitDy=-5;" parent="1" source="EjAZbper3AnYCD3PskdR-123" target="EjAZbper3AnYCD3PskdR-122" edge="1">
          <mxGeometry x="0.0022" relative="1" as="geometry">
            <mxPoint x="370" y="-1020" as="targetPoint" />
            <mxPoint as="offset" />
          </mxGeometry>
        </mxCell>
        <mxCell id="EjAZbper3AnYCD3PskdR-126" value="" style="html=1;points=[[0,0,0,0,5],[0,1,0,0,-5],[1,0,0,0,5],[1,1,0,0,-5]];perimeter=orthogonalPerimeter;outlineConnect=0;targetShapes=umlLifeline;portConstraint=eastwest;newEdgeStyle={&quot;curved&quot;:0,&quot;rounded&quot;:0};fillColor=#CC4125;" parent="1" vertex="1">
          <mxGeometry x="995" y="-1090" width="10" height="760" as="geometry" />
        </mxCell>
        <mxCell id="EjAZbper3AnYCD3PskdR-127" value="Getting Session Context" style="html=1;verticalAlign=bottom;endArrow=block;curved=0;rounded=0;exitX=1;exitY=0;exitDx=0;exitDy=5;exitPerimeter=0;" parent="1" source="EjAZbper3AnYCD3PskdR-123" target="EjAZbper3AnYCD3PskdR-126" edge="1">
          <mxGeometry relative="1" as="geometry">
            <mxPoint x="690" y="-1080" as="sourcePoint" />
          </mxGeometry>
        </mxCell>
        <mxCell id="EjAZbper3AnYCD3PskdR-128" value="Session Context Available&amp;nbsp;" style="html=1;verticalAlign=bottom;endArrow=open;dashed=1;endSize=8;curved=0;rounded=0;" parent="1" target="EjAZbper3AnYCD3PskdR-123" edge="1">
          <mxGeometry relative="1" as="geometry">
            <mxPoint x="921" y="-1015" as="targetPoint" />
            <mxPoint x="1000" y="-1010" as="sourcePoint" />
          </mxGeometry>
        </mxCell>
        <mxCell id="EjAZbper3AnYCD3PskdR-129" value="" style="html=1;points=[[0,0,0,0,5],[0,1,0,0,-5],[1,0,0,0,5],[1,1,0,0,-5]];perimeter=orthogonalPerimeter;outlineConnect=0;targetShapes=umlLifeline;portConstraint=eastwest;newEdgeStyle={&quot;curved&quot;:0,&quot;rounded&quot;:0};fillColor=#CC4125;" parent="1" vertex="1">
          <mxGeometry x="1158" y="-980" width="10" height="80" as="geometry" />
        </mxCell>
        <mxCell id="EjAZbper3AnYCD3PskdR-130" value="Wysure API with Same Session ID&amp;nbsp; As cookiee : abc" style="html=1;verticalAlign=bottom;endArrow=block;curved=0;rounded=0;entryX=0;entryY=0;entryDx=0;entryDy=5;" parent="1" target="EjAZbper3AnYCD3PskdR-129" edge="1">
          <mxGeometry x="0.0019" relative="1" as="geometry">
            <mxPoint x="370" y="-975" as="sourcePoint" />
            <mxPoint as="offset" />
          </mxGeometry>
        </mxCell>
        <mxCell id="EjAZbper3AnYCD3PskdR-131" value="Resonse from wynsure" style="html=1;verticalAlign=bottom;endArrow=open;dashed=1;endSize=8;curved=0;rounded=0;exitX=0;exitY=1;exitDx=0;exitDy=-5;" parent="1" source="EjAZbper3AnYCD3PskdR-129" edge="1">
          <mxGeometry relative="1" as="geometry">
            <mxPoint x="370" y="-904" as="targetPoint" />
          </mxGeometry>
        </mxCell>
        <mxCell id="EjAZbper3AnYCD3PskdR-132" value="Verify session&amp;nbsp;" style="html=1;verticalAlign=bottom;endArrow=block;curved=0;rounded=0;entryX=0;entryY=0;entryDx=0;entryDy=5;" parent="1" source="EjAZbper3AnYCD3PskdR-141" target="EjAZbper3AnYCD3PskdR-143" edge="1">
          <mxGeometry relative="1" as="geometry">
            <mxPoint x="370" y="-810" as="sourcePoint" />
          </mxGeometry>
        </mxCell>
        <mxCell id="EjAZbper3AnYCD3PskdR-133" value="Session Available" style="html=1;verticalAlign=bottom;endArrow=open;dashed=1;endSize=8;curved=0;rounded=0;exitX=0;exitY=1;exitDx=0;exitDy=-5;" parent="1" source="EjAZbper3AnYCD3PskdR-143" target="EjAZbper3AnYCD3PskdR-141" edge="1">
          <mxGeometry relative="1" as="geometry">
            <mxPoint x="370" y="-750" as="targetPoint" />
          </mxGeometry>
        </mxCell>
        <mxCell id="EjAZbper3AnYCD3PskdR-134" value="Getting Session Context" style="html=1;verticalAlign=bottom;endArrow=block;curved=0;rounded=0;" parent="1" source="EjAZbper3AnYCD3PskdR-143" target="EjAZbper3AnYCD3PskdR-126" edge="1">
          <mxGeometry relative="1" as="geometry">
            <mxPoint x="530" y="-800" as="sourcePoint" />
            <mxPoint x="991" y="-815" as="targetPoint" />
          </mxGeometry>
        </mxCell>
        <mxCell id="EjAZbper3AnYCD3PskdR-135" value="Session Context Available&amp;nbsp;" style="html=1;verticalAlign=bottom;endArrow=open;dashed=1;endSize=8;curved=0;rounded=0;" parent="1" target="EjAZbper3AnYCD3PskdR-143" edge="1">
          <mxGeometry x="-0.0004" relative="1" as="geometry">
            <mxPoint x="921" y="-745" as="targetPoint" />
            <mxPoint x="1000" y="-760" as="sourcePoint" />
            <mxPoint as="offset" />
          </mxGeometry>
        </mxCell>
        <mxCell id="EjAZbper3AnYCD3PskdR-136" value="" style="html=1;points=[[0,0,0,0,5],[0,1,0,0,-5],[1,0,0,0,5],[1,1,0,0,-5]];perimeter=orthogonalPerimeter;outlineConnect=0;targetShapes=umlLifeline;portConstraint=eastwest;newEdgeStyle={&quot;curved&quot;:0,&quot;rounded&quot;:0};fillColor=#CC4125;" parent="1" vertex="1">
          <mxGeometry x="1158" y="-710" width="10" height="80" as="geometry" />
        </mxCell>
        <mxCell id="EjAZbper3AnYCD3PskdR-137" value="&lt;b&gt;&lt;font style=&quot;&quot; color=&quot;#cc4125&quot;&gt;&lt;font style=&quot;font-size: 13px;&quot;&gt;User1&lt;/font&gt;&lt;span style=&quot;font-size: 12px;&quot;&gt;&amp;nbsp;&lt;/span&gt;&lt;/font&gt;&lt;/b&gt; v1/employee-Profile-load API (with Session ID as cookiee)" style="html=1;verticalAlign=bottom;endArrow=block;curved=0;rounded=0;exitX=1;exitY=0.5;exitDx=0;exitDy=0;" parent="1" source="EjAZbper3AnYCD3PskdR-112" target="EjAZbper3AnYCD3PskdR-141" edge="1">
          <mxGeometry x="-0.0667" y="9" relative="1" as="geometry">
            <mxPoint x="115" y="-781" as="sourcePoint" />
            <mxPoint x="480" y="-810" as="targetPoint" />
            <mxPoint as="offset" />
          </mxGeometry>
        </mxCell>
        <mxCell id="EjAZbper3AnYCD3PskdR-138" value="Wysure API with Same Session ID as Cookiee : abc" style="html=1;verticalAlign=bottom;endArrow=block;curved=0;rounded=0;entryX=0;entryY=0;entryDx=0;entryDy=5;" parent="1" source="EjAZbper3AnYCD3PskdR-141" edge="1">
          <mxGeometry x="0.002" relative="1" as="geometry">
            <mxPoint x="530" y="-690" as="sourcePoint" />
            <mxPoint x="1158" y="-690" as="targetPoint" />
            <mxPoint as="offset" />
          </mxGeometry>
        </mxCell>
        <mxCell id="EjAZbper3AnYCD3PskdR-139" value="Resonse from wynsure" style="html=1;verticalAlign=bottom;endArrow=open;dashed=1;endSize=8;curved=0;rounded=0;exitX=0;exitY=1;exitDx=0;exitDy=-5;" parent="1" target="EjAZbper3AnYCD3PskdR-141" edge="1">
          <mxGeometry relative="1" as="geometry">
            <mxPoint x="530" y="-659" as="targetPoint" />
            <mxPoint x="1158" y="-660" as="sourcePoint" />
          </mxGeometry>
        </mxCell>
        <mxCell id="EjAZbper3AnYCD3PskdR-140" value="" style="edgeStyle=elbowEdgeStyle;elbow=horizontal;endArrow=none;dashed=1" parent="1" edge="1">
          <mxGeometry x="230.00000000000003" y="310" width="100" height="100" as="geometry">
            <mxPoint x="519.29" y="-1257.5" as="sourcePoint" />
            <mxPoint x="519.0042857142857" y="-822.5" as="targetPoint" />
          </mxGeometry>
        </mxCell>
        <mxCell id="EjAZbper3AnYCD3PskdR-141" value="" style="html=1;points=[[0,0,0,0,5],[0,1,0,0,-5],[1,0,0,0,5],[1,1,0,0,-5]];perimeter=orthogonalPerimeter;outlineConnect=0;targetShapes=umlLifeline;portConstraint=eastwest;newEdgeStyle={&quot;curved&quot;:0,&quot;rounded&quot;:0};fillColor=#CC4125;" parent="1" vertex="1">
          <mxGeometry x="515" y="-830" width="10" height="240" as="geometry" />
        </mxCell>
        <mxCell id="EjAZbper3AnYCD3PskdR-142" value="" style="edgeStyle=elbowEdgeStyle;elbow=horizontal;endArrow=none;dashed=1" parent="1" target="EjAZbper3AnYCD3PskdR-143" edge="1">
          <mxGeometry x="230.00000000000003" y="310" width="100" height="100" as="geometry">
            <mxPoint x="840" y="-1255" as="sourcePoint" />
            <mxPoint x="840" y="-476.47058823529414" as="targetPoint" />
          </mxGeometry>
        </mxCell>
        <mxCell id="EjAZbper3AnYCD3PskdR-143" value="" style="html=1;points=[[0,0,0,0,5],[0,1,0,0,-5],[1,0,0,0,5],[1,1,0,0,-5]];perimeter=orthogonalPerimeter;outlineConnect=0;targetShapes=umlLifeline;portConstraint=eastwest;newEdgeStyle={&quot;curved&quot;:0,&quot;rounded&quot;:0};fillColor=#CC4125;" parent="1" vertex="1">
          <mxGeometry x="835" y="-830" width="10" height="80" as="geometry" />
        </mxCell>
        <mxCell id="EjAZbper3AnYCD3PskdR-144" value="" style="edgeStyle=elbowEdgeStyle;elbow=horizontal;endArrow=none;dashed=1" parent="1" edge="1">
          <mxGeometry x="230.00000000000003" y="310" width="100" height="100" as="geometry">
            <mxPoint x="678.86" y="-1255" as="sourcePoint" />
            <mxPoint x="678.86" y="-830" as="targetPoint" />
          </mxGeometry>
        </mxCell>
        <mxCell id="EjAZbper3AnYCD3PskdR-145" value="" style="edgeStyle=elbowEdgeStyle;elbow=horizontal;endArrow=none;dashed=1" parent="1" edge="1">
          <mxGeometry x="230.00000000000003" y="310" width="100" height="100" as="geometry">
            <mxPoint x="684.29" y="-839" as="sourcePoint" />
            <mxPoint x="679" y="-330" as="targetPoint" />
          </mxGeometry>
        </mxCell>
        <mxCell id="EjAZbper3AnYCD3PskdR-146" value="User2 v1/welcome API(with session ID as cookiee)" style="html=1;verticalAlign=bottom;endArrow=block;curved=0;rounded=0;exitX=1.476;exitY=0.015;exitDx=0;exitDy=0;exitPerimeter=0;entryX=0;entryY=0;entryDx=0;entryDy=5;entryPerimeter=0;" parent="1" target="EjAZbper3AnYCD3PskdR-147" edge="1">
          <mxGeometry x="-0.007" relative="1" as="geometry">
            <mxPoint x="106" y="-541" as="sourcePoint" />
            <mxPoint x="342" y="-541" as="targetPoint" />
            <mxPoint as="offset" />
          </mxGeometry>
        </mxCell>
        <mxCell id="EjAZbper3AnYCD3PskdR-147" value="" style="html=1;points=[[0,0,0,0,5],[0,1,0,0,-5],[1,0,0,0,5],[1,1,0,0,-5]];perimeter=orthogonalPerimeter;outlineConnect=0;targetShapes=umlLifeline;portConstraint=eastwest;newEdgeStyle={&quot;curved&quot;:0,&quot;rounded&quot;:0};fillColor=#CC4125;" parent="1" vertex="1">
          <mxGeometry x="356.5" y="-546" width="10" height="216" as="geometry" />
        </mxCell>
        <mxCell id="EjAZbper3AnYCD3PskdR-148" value="" style="html=1;points=[[0,0,0,0,5],[0,1,0,0,-5],[1,0,0,0,5],[1,1,0,0,-5]];perimeter=orthogonalPerimeter;outlineConnect=0;targetShapes=umlLifeline;portConstraint=eastwest;newEdgeStyle={&quot;curved&quot;:0,&quot;rounded&quot;:0};fillColor=#CC4125;" parent="1" vertex="1">
          <mxGeometry x="676" y="-545" width="10" height="80" as="geometry" />
        </mxCell>
        <mxCell id="EjAZbper3AnYCD3PskdR-149" value="Verify session&amp;nbsp;" style="html=1;verticalAlign=bottom;endArrow=block;curved=0;rounded=0;exitX=1;exitY=0;exitDx=0;exitDy=5;exitPerimeter=0;" parent="1" source="EjAZbper3AnYCD3PskdR-147" target="EjAZbper3AnYCD3PskdR-148" edge="1">
          <mxGeometry relative="1" as="geometry">
            <mxPoint x="371" y="-540" as="sourcePoint" />
            <mxPoint x="671" y="-540" as="targetPoint" />
          </mxGeometry>
        </mxCell>
        <mxCell id="EjAZbper3AnYCD3PskdR-150" value="Session Available" style="html=1;verticalAlign=bottom;endArrow=open;dashed=1;endSize=8;curved=0;rounded=0;exitX=0;exitY=1;exitDx=0;exitDy=-5;" parent="1" source="EjAZbper3AnYCD3PskdR-148" target="EjAZbper3AnYCD3PskdR-147" edge="1">
          <mxGeometry x="0.0022" relative="1" as="geometry">
            <mxPoint x="371" y="-480" as="targetPoint" />
            <mxPoint as="offset" />
          </mxGeometry>
        </mxCell>
        <mxCell id="EjAZbper3AnYCD3PskdR-151" value="Getting Session Context" style="html=1;verticalAlign=bottom;endArrow=block;curved=0;rounded=0;exitX=1;exitY=0;exitDx=0;exitDy=5;exitPerimeter=0;" parent="1" target="EjAZbper3AnYCD3PskdR-126" edge="1">
          <mxGeometry relative="1" as="geometry">
            <mxPoint x="686" y="-540" as="sourcePoint" />
            <mxPoint x="990" y="-540" as="targetPoint" />
          </mxGeometry>
        </mxCell>
        <mxCell id="EjAZbper3AnYCD3PskdR-152" value="Session Context Available&amp;nbsp;" style="html=1;verticalAlign=bottom;endArrow=open;dashed=1;endSize=8;curved=0;rounded=0;" parent="1" target="EjAZbper3AnYCD3PskdR-148" edge="1">
          <mxGeometry relative="1" as="geometry">
            <mxPoint x="922" y="-475" as="targetPoint" />
            <mxPoint x="990" y="-470" as="sourcePoint" />
          </mxGeometry>
        </mxCell>
        <mxCell id="EjAZbper3AnYCD3PskdR-153" value="" style="html=1;points=[[0,0,0,0,5],[0,1,0,0,-5],[1,0,0,0,5],[1,1,0,0,-5]];perimeter=orthogonalPerimeter;outlineConnect=0;targetShapes=umlLifeline;portConstraint=eastwest;newEdgeStyle={&quot;curved&quot;:0,&quot;rounded&quot;:0};fillColor=#CC4125;" parent="1" vertex="1">
          <mxGeometry x="1159" y="-440" width="10" height="80" as="geometry" />
        </mxCell>
        <mxCell id="EjAZbper3AnYCD3PskdR-154" value="Wysure API with user 2 Session ID&amp;nbsp; As cookiee : def" style="html=1;verticalAlign=bottom;endArrow=block;curved=0;rounded=0;entryX=0;entryY=0;entryDx=0;entryDy=5;" parent="1" target="EjAZbper3AnYCD3PskdR-153" edge="1">
          <mxGeometry x="0.0019" relative="1" as="geometry">
            <mxPoint x="371" y="-435" as="sourcePoint" />
            <mxPoint as="offset" />
          </mxGeometry>
        </mxCell>
        <mxCell id="EjAZbper3AnYCD3PskdR-155" value="Resonse from wynsure" style="html=1;verticalAlign=bottom;endArrow=open;dashed=1;endSize=8;curved=0;rounded=0;exitX=0;exitY=1;exitDx=0;exitDy=-5;" parent="1" source="EjAZbper3AnYCD3PskdR-153" edge="1">
          <mxGeometry relative="1" as="geometry">
            <mxPoint x="371" y="-364" as="targetPoint" />
          </mxGeometry>
        </mxCell>
        <mxCell id="EjAZbper3AnYCD3PskdR-156" style="edgeStyle=orthogonalEdgeStyle;rounded=0;orthogonalLoop=1;jettySize=auto;html=1;" parent="1" source="EjAZbper3AnYCD3PskdR-157" edge="1">
          <mxGeometry relative="1" as="geometry">
            <mxPoint x="188.5" y="-1080" as="targetPoint" />
          </mxGeometry>
        </mxCell>
        <mxCell id="EjAZbper3AnYCD3PskdR-157" value="Cookiee eg : abc" style="shape=note;align=left" parent="1" vertex="1">
          <mxGeometry x="121" y="-1040" width="135" height="40" as="geometry" />
        </mxCell>
        <mxCell id="EjAZbper3AnYCD3PskdR-158" style="edgeStyle=orthogonalEdgeStyle;rounded=0;orthogonalLoop=1;jettySize=auto;html=1;" parent="1" edge="1">
          <mxGeometry relative="1" as="geometry">
            <mxPoint x="183" y="-709" as="targetPoint" />
            <mxPoint x="182.52173913043498" y="-669" as="sourcePoint" />
          </mxGeometry>
        </mxCell>
        <mxCell id="EjAZbper3AnYCD3PskdR-159" value="Cookiee eg : abc" style="shape=note;align=left" parent="1" vertex="1">
          <mxGeometry x="120" y="-670" width="135" height="40" as="geometry" />
        </mxCell>
        <mxCell id="EjAZbper3AnYCD3PskdR-160" style="edgeStyle=orthogonalEdgeStyle;rounded=0;orthogonalLoop=1;jettySize=auto;html=1;" parent="1" source="EjAZbper3AnYCD3PskdR-161" edge="1">
          <mxGeometry relative="1" as="geometry">
            <mxPoint x="187.5" y="-539.9999999999998" as="targetPoint" />
          </mxGeometry>
        </mxCell>
        <mxCell id="EjAZbper3AnYCD3PskdR-161" value="Cookiee eg :  def" style="shape=note;align=left" parent="1" vertex="1">
          <mxGeometry x="120" y="-500" width="135" height="40" as="geometry" />
        </mxCell>
        <mxCell id="EjAZbper3AnYCD3PskdR-162" value="" style="shape=umlLifeline;perimeter=lifelinePerimeter;whiteSpace=wrap;html=1;container=1;dropTarget=0;collapsible=0;recursiveResize=0;outlineConnect=0;portConstraint=eastwest;newEdgeStyle={&quot;curved&quot;:0,&quot;rounded&quot;:0};participant=umlActor;" parent="1" vertex="1">
          <mxGeometry x="-170" y="-1300" width="20" height="960" as="geometry" />
        </mxCell>
        <mxCell id="EjAZbper3AnYCD3PskdR-163" value="&lt;b&gt;User 1&lt;/b&gt;" style="text;html=1;align=center;verticalAlign=middle;resizable=0;points=[];autosize=1;strokeColor=none;fillColor=none;" parent="1" vertex="1">
          <mxGeometry x="-190" y="-1323" width="60" height="30" as="geometry" />
        </mxCell>
        <mxCell id="EjAZbper3AnYCD3PskdR-164" value="" style="shape=umlLifeline;perimeter=lifelinePerimeter;whiteSpace=wrap;html=1;container=1;dropTarget=0;collapsible=0;recursiveResize=0;outlineConnect=0;portConstraint=eastwest;newEdgeStyle={&quot;curved&quot;:0,&quot;rounded&quot;:0};participant=umlActor;" parent="1" vertex="1">
          <mxGeometry x="-60" y="-1300" width="20" height="960" as="geometry" />
        </mxCell>
        <mxCell id="EjAZbper3AnYCD3PskdR-165" value="&lt;b&gt;User 2&lt;/b&gt;" style="text;html=1;align=center;verticalAlign=middle;resizable=0;points=[];autosize=1;strokeColor=none;fillColor=none;" parent="1" vertex="1">
          <mxGeometry x="-80" y="-1322" width="60" height="30" as="geometry" />
        </mxCell>
        <mxCell id="EjAZbper3AnYCD3PskdR-166" value="" style="endArrow=block;endFill=1;html=1;edgeStyle=orthogonalEdgeStyle;align=left;verticalAlign=top;rounded=0;entryX=-0.132;entryY=0.014;entryDx=0;entryDy=0;entryPerimeter=0;" parent="1" target="EjAZbper3AnYCD3PskdR-112" edge="1">
          <mxGeometry x="-1" relative="1" as="geometry">
            <mxPoint x="-160" y="-1080" as="sourcePoint" />
            <mxPoint y="-1080" as="targetPoint" />
          </mxGeometry>
        </mxCell>
        <mxCell id="EjAZbper3AnYCD3PskdR-167" value="" style="endArrow=block;endFill=1;html=1;edgeStyle=orthogonalEdgeStyle;align=left;verticalAlign=top;rounded=0;entryX=-0.132;entryY=0.014;entryDx=0;entryDy=0;entryPerimeter=0;" parent="1" edge="1">
          <mxGeometry x="-1" relative="1" as="geometry">
            <mxPoint x="-159" y="-709.99" as="sourcePoint" />
            <mxPoint x="90" y="-708.99" as="targetPoint" />
            <Array as="points">
              <mxPoint x="-34" y="-710.23" />
            </Array>
          </mxGeometry>
        </mxCell>
        <mxCell id="EjAZbper3AnYCD3PskdR-168" value="" style="endArrow=block;endFill=1;html=1;edgeStyle=orthogonalEdgeStyle;align=left;verticalAlign=top;rounded=0;" parent="1" edge="1">
          <mxGeometry x="-1" relative="1" as="geometry">
            <mxPoint x="-50" y="-540" as="sourcePoint" />
            <mxPoint x="90" y="-540" as="targetPoint" />
            <mxPoint as="offset" />
          </mxGeometry>
        </mxCell>
      </root>
    </mxGraphModel>
  </diagram>
</mxfile>
